<?xml version="1.0" encoding="UTF-8"?>
<svg width="36px" height="25px" viewBox="0 0 36 25" version="1.1" xmlns="http://www.w3.org/2000/svg" xmlns:xlink="http://www.w3.org/1999/xlink">
    <!-- Generator: Sketch 41.2 (35397) - http://www.bohemiancoding.com/sketch -->
    <title>coin_bold</title>
    <desc>Created with Sketch.</desc>
    <defs></defs>
    <g id="Page-1" stroke="none" stroke-width="1" fill="none" fill-rule="evenodd">
        <g id="coin_bold" fill="#444444">
            <g id="레이어_1">
                <path d="M33.9,9.7 C35,8.7 35.6,7.6 35.6,6.4 C35.6,3 31,0.4 24.9,0.4 C18.8,0.4 14.2,2.9 14.2,6.3 C14.2,6.5 14.2,6.9 14.3,7.2 C13.3,7.1 12.4,7 11.5,7 C5.3,7 0.7,9.6 0.7,13 C0.7,14 1.1,14.9 2,15.9 C1.2,16.7 0.7,17.7 0.7,18.7 C0.7,22.1 5.3,24.7 11.4,24.7 C14,24.7 16.3,24.3 18.1,23.4 C20,24.2 22.4,24.7 24.8,24.7 C30.8,24.7 35.5,22.1 35.5,18.7 C35.5,17.7 35.1,16.8 34.2,15.8 C35,15 35.5,14 35.5,13 C35.6,11.8 35,10.6 33.9,9.7 Z M31.3,8.3 L30.5,8.7 C30.2,8.9 29.9,9 29.7,9 L29.6,9 L29.6,9 C28.3,9.5 26.8,9.7 25,9.7 C23.2,9.7 21.7,9.4 20.5,9 C20.4,8.9 20.3,8.9 20.2,8.9 C20.1,8.9 20,8.9 19.9,8.8 L19.8,8.8 C19.7,8.8 19.6,8.8 19.6,8.7 L19.5,8.7 L18.6,8.3 C17.5,7.7 16.9,7 16.9,6.3 C16.9,4.9 20,2.9 25,2.9 C30,2.9 33.1,4.9 33.1,6.3 C33.1,6.9 32.4,7.7 31.3,8.3 Z M17.1,10.7 C17.2,10.8 17.2,10.8 17.3,10.8 C17.3,10.8 17.4,10.8 17.5,10.9 L17.6,10.9 C17.6,10.9 17.7,11 17.8,11.1 C19,11.8 19.5,12.5 19.5,13.1 C19.5,13.2 19.5,13.4 19.4,13.5 C19.4,13.6 19.3,13.6 19.3,13.7 C19.2,13.9 19.1,14 18.8,14.3 C18.7,14.4 18.6,14.5 18.4,14.7 L18.2,14.9 C18.2,14.9 18,14.9 17.9,15 L17.8,15.1 L17.6,15.2 C17.5,15.2 17.5,15.2 17.4,15.3 L17.3,15.3 C17.2,15.3 17.2,15.3 17.1,15.4 L17,15.4 L16.7,15.4 C16.6,15.4 16.6,15.4 16.5,15.5 L16.4,15.5 C16.3,15.5 16.3,15.5 16.2,15.6 L16.1,15.6 L15.9,15.6 L15.9,15.6 C15.8,15.7 15.7,15.7 15.5,15.7 C15.3,15.7 15.1,15.8 14.9,15.9 C13.7,16.2 12.4,16.4 10.9,16.4 C8.9,16.4 6.9,16 5.1,15.3 C5.2,15.2 5,15.1 4.9,15 C4.8,14.9 4.7,14.9 4.7,14.9 C4.6,14.8 4.5,14.7 4.4,14.7 C4.3,14.7 4.3,14.6 4.3,14.6 C4.3,14.6 4.2,14.6 4.2,14.5 C3.7,13.9 3.4,13.4 3.4,13 C3.4,11.4 6.8,9.6 11.6,9.6 C13.3,9.6 15.1,9.9 16.6,10.4 L16.7,10.4 C16.7,10.4 16.8,10.4 16.8,10.5 C16.9,10.5 16.9,10.6 17,10.6 L17,10.6 L17,10.6 C17,10.7 17.1,10.7 17.1,10.7 Z M4.1,17.4 C6,18.4 8.6,19 11.5,19 C12.7,19 13.8,18.9 14.9,18.7 L15.1,18.7 C15.3,18.7 15.5,18.7 15.7,18.6 C15.8,18.6 15.8,18.6 15.9,18.5 L16.1,18.5 C16.2,18.5 16.3,18.5 16.3,18.4 L16.5,18.4 L16.6,18.4 L16.6,18.4 C17.2,18.2 17.7,18 18.1,17.8 L18.3,17.7 C18.4,17.7 18.4,17.6 18.5,17.6 C18.6,17.6 18.7,17.5 18.8,17.5 C18.9,17.6 18.9,17.7 19,17.7 C19.1,17.8 19.2,18 19.3,18 C19.5,18.3 19.5,18.4 19.5,18.6 C19.6,19.3 19.1,20 17.9,20.8 C17.8,20.8 17.7,20.9 17.7,20.9 C17.6,20.9 17.4,21 17.2,21.1 C17.1,21.1 17.1,21.1 17,21.2 L16.9,21.2 C16.8,21.2 16.6,21.3 16.4,21.4 C15,21.9 13.2,22.2 11.5,22.2 C6.7,22.1 3.4,20.2 3.4,18.6 C3.4,18.2 3.7,17.7 4.1,17.4 Z M22.2,18.6 C23,18.7 23.9,18.8 24.9,18.8 C27.7,18.8 30.3,18.2 32.3,17.2 C32.8,17.7 33,18.1 33,18.6 C33,19 32.8,19.4 32.5,19.8 C31.5,20.9 28.9,22.1 25,22.1 C23.5,22.1 22.1,21.9 21,21.6 C21.8,20.6 22.2,19.7 22.2,18.6 Z M32,14.5 L32,14.5 C31.9,14.5 31.9,14.6 31.9,14.6 C31.8,14.6 31.8,14.7 31.7,14.7 C31.6,14.8 31.5,14.9 31.5,14.9 L31.4,14.9 C31.3,14.9 31.2,15 31.2,15.1 C31.1,15.2 30.9,15.3 30.7,15.3 C29.2,16 27.2,16.4 25,16.4 C23.6,16.4 22.3,16.3 21.2,16 L21.1,15.9 L21.5,15.5 C21.7,15.3 21.8,15 21.9,14.7 C22,14.5 22.1,14.3 22.1,14 C22.1,13.9 22.1,13.9 22.2,13.7 C22.3,13.4 22.3,13.2 22.3,13 C22.3,12.7 22.3,12.4 22.2,12.1 C23,12.2 24,12.3 24.9,12.3 C27.5,12.3 29.8,11.9 31.6,11 C32.6,11.6 33.1,12.2 33.1,12.8 C33.1,13.5 32.7,14 32,14.5 Z" id="Shape"></path>
            </g>
        </g>
    </g>
</svg>