<?xml version="1.0" encoding="utf-8"?>
<!-- Generator: Adobe Illustrator 22.1.0, SVG Export Plug-In . SVG Version: 6.00 Build 0)  -->
<svg version="1.0" id="Layer_1" xmlns="http://www.w3.org/2000/svg" xmlns:xlink="http://www.w3.org/1999/xlink" x="0px" y="0px"
	 width="64px" height="48px" viewBox="0 0 64 48" style="enable-background:new 0 0 64 48;" xml:space="preserve">
<style type="text/css">
	.st0{fill:#070606;}
</style>
<path class="st0" d="M25.584,10.887l2.397-1.876l-2.397-1.876c-0.521-0.313-0.834-0.938-0.625-1.771
	c0-0.625,0.208-1.146,0.729-1.563l4.48-3.439c0.834-0.625,1.98-0.417,2.709,0.417c0.625,0.834,0.417,1.98-0.417,2.709l-2.397,1.876
	l2.397,1.98c0.417,0.417,0.729,0.938,0.729,1.563c0,0.625-0.208,1.146-0.729,1.563l-4.48,3.439c-0.417,0.208-0.834,0.417-1.25,0.417
	c-0.625,0-1.146-0.208-1.563-0.729C24.543,12.763,24.752,11.617,25.584,10.887z M48.81,39.335C48.753,44.122,44.845,48,40.044,48
	H18.001c-4.836,0-8.771-3.934-8.771-8.77V17.233h39.585v6.902c3.899,0.373,6.916,3.653,6.916,7.6
	C55.731,35.683,52.712,38.963,48.81,39.335z M45.381,20.666H12.664V39.23c0,2.943,2.394,5.337,5.337,5.337h22.043
	c2.943,0,5.337-2.394,5.337-5.337V20.666z M52.297,31.734c0-2.06-1.498-3.776-3.482-4.127v8.253
	C50.8,35.51,52.297,33.794,52.297,31.734z"/>
</svg>
