<?xml version="1.0" encoding="utf-8"?>
<!-- Generator: Adobe Illustrator 22.1.0, SVG Export Plug-In . SVG Version: 6.00 Build 0)  -->
<svg version="1.0" id="Layer_1" xmlns="http://www.w3.org/2000/svg" xmlns:xlink="http://www.w3.org/1999/xlink" x="0px" y="0px"
	 width="64px" height="48px" viewBox="0 0 64 48" style="enable-background:new 0 0 64 48;" xml:space="preserve">
<path d="M22.75,22.328c1.356,0,2.625-0.523,3.574-1.473c0.936-0.936,1.473-2.239,1.473-3.574s-0.537-2.638-1.473-3.575
	c-1.984-1.984-5.212-1.983-7.196,0c-0.965,0.965-1.497,2.243-1.497,3.598s0.532,2.633,1.517,3.617
	C20.162,21.829,21.441,22.328,22.75,22.328z M20.539,17.234c0-0.58,0.235-1.124,0.663-1.533l0.008-0.008
	c0.412-0.412,0.988-0.658,1.541-0.658c0.577,0,1.11,0.228,1.541,0.658c0.431,0.431,0.659,0.964,0.659,1.541
	c0,0.578-0.228,1.11-0.659,1.541c-0.862,0.862-2.211,0.87-3.089-0.008C20.774,18.358,20.539,17.813,20.539,17.234z M36.296,25.709
	C36.295,25.709,36.295,25.709,36.296,25.709c-1.365,0-2.636,0.533-3.578,1.499c-1.981,1.985-1.98,5.211,0.003,7.193
	c0.936,0.936,2.239,1.473,3.575,1.473c1.405,0,2.678-0.527,3.575-1.473c1.983-1.984,1.983-5.212,0.005-7.191
	C38.932,26.241,37.661,25.709,36.296,25.709z M38.471,30.778c0,0.584-0.226,1.132-0.635,1.541c-0.819,0.818-2.262,0.819-3.081,0
	c-0.849-0.849-0.849-2.232,0-3.081c0.412-0.412,0.989-0.659,1.541-0.659c0.577,0,1.109,0.228,1.54,0.659
	C38.245,29.648,38.471,30.195,38.471,30.778z M36.296,22.328c1.405,0,2.678-0.526,3.575-1.473c0.936-0.936,1.473-2.239,1.473-3.574
	c0-1.335-0.536-2.638-1.473-3.575c-1.984-1.984-5.213-1.983-7.197,0c-0.936,0.936-1.473,2.239-1.473,3.575
	c0,1.335,0.536,2.638,1.492,3.592C33.75,21.825,34.996,22.328,36.296,22.328z M34.096,17.234c0-0.589,0.24-1.159,0.642-1.525
	l0.017-0.016c0.412-0.412,0.988-0.658,1.541-0.658c0.577,0,1.109,0.228,1.54,0.658c0.431,0.43,0.659,0.964,0.659,1.541
	c0,0.578-0.228,1.11-0.659,1.541c-0.85,0.85-2.231,0.848-3.081,0C34.324,18.344,34.096,17.811,34.096,17.234z M22.75,25.684
	c-1.355,0-2.624,0.523-3.574,1.473c-0.965,0.965-1.497,2.243-1.497,3.598c0,1.355,0.532,2.634,1.487,3.588
	c0.935,0.987,2.208,1.53,3.583,1.53c1.355,0,2.625-0.523,3.574-1.473c1.984-1.984,1.984-5.212,0.01-7.186
	C25.399,26.228,24.127,25.684,22.75,25.684z M24.926,30.778c0,0.584-0.226,1.132-0.635,1.541c-0.862,0.862-2.219,0.862-3.081,0
	c-0.409-0.409-0.635-0.957-0.635-1.541c0-0.583,0.226-1.131,0.635-1.54c0.431-0.431,0.964-0.659,1.541-0.659s1.11,0.228,1.541,0.659
	C24.7,29.648,24.926,30.195,24.926,30.778z M26.37,24.006c0,1.738,1.414,3.153,3.153,3.153s3.153-1.414,3.153-3.153
	s-1.415-3.153-3.153-3.153S26.37,22.268,26.37,24.006z M29.265,24.006c0-0.149,0.108-0.257,0.257-0.257
	c0.149,0,0.257,0.108,0.257,0.257C29.78,24.304,29.265,24.304,29.265,24.006z M56.902,38.08H48.96
	c2.955-4.065,4.568-9.007,4.568-14.08c0-13.233-10.766-24-24-24c-13.233,0-24,10.767-24,24c0,13.234,10.767,24,24,24h27.375
	c1.029,0,1.866-0.836,1.866-1.866v-6.189C58.768,38.917,57.931,38.08,56.902,38.08z M55.037,41.811v2.458H42.348
	c1.125-0.721,2.193-1.542,3.196-2.458H55.037z M29.527,3.732c11.176,0,20.269,9.093,20.269,20.268s-9.093,20.269-20.269,20.269
	C18.351,44.269,9.258,35.176,9.258,24S18.351,3.732,29.527,3.732z"/>
</svg>
