<?xml version="1.0" encoding="utf-8"?>
<!-- Generator: Adobe Illustrator 22.1.0, SVG Export Plug-In . SVG Version: 6.00 Build 0)  -->
<svg version="1.0" id="Layer_1" xmlns="http://www.w3.org/2000/svg" xmlns:xlink="http://www.w3.org/1999/xlink" x="0px" y="0px"
	 width="64px" height="48px" viewBox="0 0 64 48" style="enable-background:new 0 0 64 48;" xml:space="preserve">
<path d="M24.993,30.105H19.02l-0.123-14.664h1.813c0.872,0,1.514-0.687,1.682-1.366l1.817-11.545
	c0.081-0.489-0.066-0.997-0.404-1.396c-0.331-0.391-0.797-0.615-1.278-0.615H11.108c-0.482,0-0.948,0.224-1.279,0.615
	C9.492,1.532,9.345,2.041,9.426,2.526l1.82,11.565c0.164,0.821,0.823,1.35,1.679,1.35h2.599l0.123,14.664H9.68
	c-0.962,0-1.687,0.781-1.682,1.877l2.332,12.676C10.475,46.531,12.07,48,13.963,48h6.877c1.893,0,3.488-1.469,3.629-3.316
	l2.205-12.699c0.077-0.463-0.048-0.915-0.352-1.274C25.995,30.325,25.51,30.105,24.993,30.105z M20.384,4.022l-1.303,8.175h-4.91
	l-1.185-8.175H20.384z M23.236,33.478l-2.131,10.826L21.1,44.367c0,0.175-0.085,0.26-0.26,0.26h-6.877
	c-0.175,0-0.26-0.085-0.265-0.323l-2.131-10.826H23.236z M54.319,9.343h-3.244V1.687C51.075,0.693,50.381,0,49.388,0H39.266
	c-0.993,0-1.687,0.693-1.687,1.687v7.656h-3.244c-0.993,0-1.687,0.693-1.687,1.687v32.429c0,2.547,1.995,4.542,4.542,4.542h14.274
	c2.547,0,4.542-1.995,4.542-4.542V11.03C56.005,10.219,55.36,9.343,54.319,9.343z M40.952,9.343v-5.97h6.749v5.97H40.952z
	 M51.464,44.627H37.19c-0.698,0-1.168-0.47-1.168-1.168V12.716h16.61v30.742C52.632,44.157,52.162,44.627,51.464,44.627z
	 M48.998,19.464c0,0.993-0.693,1.687-1.687,1.687h-5.968c-0.993,0-1.687-0.693-1.687-1.687s0.693-1.687,1.687-1.687h5.968
	C48.304,17.777,48.998,18.471,48.998,19.464z"/>
</svg>
