<svg enable-background="new 0 0 312 48" height="48" viewBox="0 0 312 48" width="312" xmlns="http://www.w3.org/2000/svg"><path d="m16.8.7c11.1 0 17.5 4.2 17.5 16.7 0 7.1-2.9 11.5-7.4 13.9l6.9 13c.9 1.6.3 3-1.2 3h-8.4c-1.4 0-2.3-.7-2.9-1.9l-6-11.9h-2.9v11.4c0 1.6-.6 2.4-2.1 2.4h-8.2c-1.4 0-2.1-.7-2.1-2.4v-41.8c0-1.6.6-2.4 2.1-2.4zm-.2 21.6c3.6 0 5.1-1.6 5.1-4.9 0-3.8-1.4-4.9-5.1-4.9h-4.2v9.7h4.2z"/><path d="m40.9 3.1c0-1.6.6-2.4 2.1-2.4h8.4c1.4 0 2.1.7 2.1 2.4v41.8c0 1.6-.6 2.4-2.1 2.4h-8.4c-1.4 0-2.1-.7-2.1-2.4z"/><path d="m63.2 47.2c-1.4 0-2.1-.7-2.1-2.4v-41.7c0-1.6.6-2.4 2.1-2.4h12.9c13.3 0 20 6.9 20 23.2s-6.7 23.2-20 23.2h-12.9zm10.5-34.1v21.8h1.8c5.4 0 7.9-2.3 7.9-10.9s-2.5-10.9-7.9-10.9z"/><path d="m102.8 3.1c0-1.6.6-2.4 2.1-2.4h8.4c1.4 0 2.1.7 2.1 2.4v41.8c0 1.6-.6 2.4-2.1 2.4h-8.4c-1.4 0-2.1-.7-2.1-2.4z"/><path d="m145.6 47.9c-6.2 0-11.2-1.5-14.2-3.3-1.2-.7-1.6-1.4-1.1-3l2-6.1c.5-1.5 1.3-2 2.7-1.4 2 .9 4.7 2 8.2 2 3.2 0 5.8-.5 5.8-2.8 0-1.7-2.2-2.7-5.8-4.1-6.2-2.4-12.7-5.4-12.7-15.8 0-9.7 6.1-13.6 15.8-13.6 5.7 0 10.2 1.6 12.5 3 1.2.7 1.6 1.4 1.1 3l-2 5.8c-.5 1.5-1.3 1.9-2.7 1.4-2.3-.9-5.2-1.4-7.6-1.4-2.5 0-4.5.3-4.5 2.4 0 1.7 2 2.8 5.7 4.3 6.8 2.8 12.7 5.1 12.7 15 .2 10.8-7.4 14.6-15.9 14.6z"/><path d="m193 36.9c1.2-.6 2.1 0 2.5 1.4l1.2 4.1c.4 1.4 0 2.1-1.2 2.8-2.6 1.5-6.3 2.8-11.2 2.8-11.3 0-17.7-6.5-17.7-18.5 0-11.9 6.3-18.5 16.1-18.5 9.6 0 15.1 6.9 15.1 17.5v3.2c0 1.5-.6 2.2-2 2.2h-17.4c.9 3.3 3.1 5 7 5 2.4-.1 5.4-.9 7.6-2zm-15.1-10.2h9.3v-.5c0-4.1-1.6-6.1-4.4-6.1-2.9.1-4.4 2.1-4.9 6.6z"/><path d="m215.9 45c0 1.5-.6 2.2-2 2.2h-8.1c-1.3 0-2-.7-2-2.2v-42c0-1.5.6-2.2 2-2.2h8.1c1.3 0 2 .7 2 2.2z"/><path d="m248.6 36.9c1.2-.6 2.1 0 2.5 1.4l1.2 4.1c.4 1.4 0 2.1-1.2 2.8-2.6 1.5-6.3 2.8-11.2 2.8-11.3 0-17.7-6.5-17.7-18.5 0-11.9 6.3-18.5 16.1-18.5 9.6 0 15.1 6.9 15.1 17.5v3.2c0 1.5-.6 2.2-2 2.2h-17.4c.9 3.3 3.1 5 7 5 2.4-.1 5.4-.9 7.6-2zm-15.1-10.2h9.3v-.5c0-4.1-1.6-6.1-4.4-6.1-3 .1-4.5 2.1-4.9 6.6z"/><path d="m274.9 11c3.7 0 7.7 1.1 9.8 2.6 1.2.9 1.6 1.7 1 3.2l-2 5c-.6 1.4-1.6 1.6-2.9 1.1-1.2-.5-2.8-.9-4.5-.9-3.6 0-5.9 2.2-5.9 7.7 0 5.4 2.3 7.7 6 7.7 1.7 0 3.4-.5 4.6-1.1 1.3-.7 2.3-.4 2.9 1.1l2 4.9c.6 1.4.2 2.3-1 3.2-2.1 1.6-6.2 2.7-9.9 2.7-10.2 0-16.8-6-16.8-18.5 0-12.7 6.6-18.7 16.7-18.7z"/><path d="m304.9 22.9v12.1c0 2.2.7 2.9 2.7 2.9.5 0 1.3-.2 2.1-.2 1 0 1.6.6 1.6 2v5.3c0 1.5-.7 2-1.9 2.3s-3.2.6-5.5.6c-7.3 0-10.9-2.9-10.9-11.4v-13.6h-1.8c-1.3 0-2-.7-2-2.2v-5.1c0-1.5.6-2.2 2-2.2h2v-7.8c0-1.3.6-2 2-2h7.5c1.4 0 2 .7 2 2v7.7h4.6c1.3 0 2 .7 2 2.2v5.1c0 1.5-.6 2.2-2 2.2h-4.4z"/></svg>