<?xml version="1.0" encoding="utf-8"?>
<!-- Generator: Adobe Illustrator 22.1.0, SVG Export Plug-In . SVG Version: 6.00 Build 0)  -->
<svg version="1.0" id="Layer_1" xmlns="http://www.w3.org/2000/svg" xmlns:xlink="http://www.w3.org/1999/xlink" x="0px" y="0px"
	 width="294px" height="48px" viewBox="0 0 294 48" style="enable-background:new 0 0 294 48;" xml:space="preserve">
<g>
	<g>
		<path d="M16.93,0.396c11.17,0,17.628,4.231,17.628,16.793c0,7.141-2.967,11.571-7.447,13.951l6.981,13.091
			c0.872,1.587,0.291,2.976-1.164,2.976h-8.494c-1.455,0-2.269-0.661-2.909-1.917l-5.993-11.967h-2.967v11.504
			c0,1.653-0.64,2.38-2.095,2.38H2.095C0.64,47.207,0,46.479,0,44.826V2.777c0-1.653,0.64-2.38,2.095-2.38H16.93z M16.755,22.082
			c3.666,0,5.12-1.587,5.12-4.893c0-3.835-1.455-4.892-5.12-4.892h-4.188v9.785H16.755z"/>
		<path d="M41.133,2.777c0-1.653,0.64-2.38,2.095-2.38h8.494c1.454,0,2.094,0.728,2.094,2.38v42.049c0,1.653-0.64,2.38-2.094,2.38
			h-8.494c-1.455,0-2.095-0.728-2.095-2.38V2.777z"/>
		<path d="M63.647,47.207c-1.455,0-2.094-0.728-2.094-2.38V2.777c0-1.653,0.639-2.38,2.094-2.38h12.973
			c13.439,0,20.188,6.943,20.188,23.405S90.06,47.207,76.621,47.207H63.647z M74.236,12.826v21.951h1.803
			c5.469,0,7.971-2.314,7.971-10.975s-2.502-10.975-7.971-10.975H74.236z"/>
		<path d="M103.5,2.777c0-1.653,0.64-2.38,2.095-2.38h8.494c1.454,0,2.094,0.728,2.094,2.38v42.049c0,1.653-0.64,2.38-2.094,2.38
			h-8.494c-1.455,0-2.095-0.728-2.095-2.38V2.777z"/>
	</g>
	<g>
		<path d="M144.56,47.802c-5.003,0-9.599-1.058-11.985-2.38c-0.698-0.396-1.047-0.727-0.814-1.52l1.163-3.571
			c0.232-0.793,0.524-1.256,1.396-0.793c2.152,0.992,5.585,1.917,9.658,1.917c5.701,0,9.541-2.182,9.541-6.545
			c0-4.628-4.189-6.414-9.134-8.595c-6.167-2.711-11.81-5.355-11.81-14.016c0-7.802,4.596-12.297,14.37-12.297
			c4.712,0,8.261,0.991,10.53,2.115c0.698,0.33,0.989,0.728,0.756,1.587l-1.105,3.438c-0.232,0.728-0.582,1.124-1.512,0.728
			c-2.095-0.86-4.654-1.521-8.145-1.521c-5.934,0-8.494,1.984-8.494,6.083c0,4.496,3.84,5.884,8.552,8.065
			c6.341,3.042,12.392,5.686,12.392,14.546C159.919,43.636,153.694,47.802,144.56,47.802z"/>
		<path d="M189.067,40.529c0.698-0.463,1.222,0,1.454,0.727l0.931,2.711c0.233,0.793-0.116,1.19-0.756,1.52
			c-2.385,1.388-5.817,2.512-9.657,2.512c-9.948,0-15.883-6.81-15.883-17.984c0-11.637,5.585-18.116,14.312-18.116
			c8.843,0,13.555,6.744,13.555,16.265v3.239c0,0.925-0.349,1.256-1.163,1.256h-20.711c0.465,5.95,4.306,9.917,10.298,9.917
			C184.588,42.578,186.915,41.851,189.067,40.529z M171.032,27.769h16.406v-0.331c0-6.016-2.618-10.116-7.912-10.116
			C174.406,17.322,171.44,20.694,171.032,27.769z"/>
		<path d="M206.172,45.95c0,0.86-0.291,1.256-1.047,1.256h-3.898c-0.756,0-1.047-0.396-1.047-1.256V1.917
			c0-0.859,0.291-1.19,1.047-1.19h3.898c0.756,0,1.047,0.331,1.047,1.19V45.95z"/>
		<path d="M237.239,40.529c0.698-0.463,1.222,0,1.455,0.727l0.931,2.711c0.232,0.793-0.117,1.19-0.757,1.52
			C236.483,46.876,233.05,48,229.211,48c-9.948,0-15.883-6.81-15.883-17.984c0-11.637,5.585-18.116,14.312-18.116
			c8.843,0,13.555,6.744,13.555,16.265v3.239c0,0.925-0.349,1.256-1.163,1.256H219.32c0.465,5.95,4.306,9.917,10.298,9.917
			C232.759,42.578,235.086,41.851,237.239,40.529z M219.204,27.769h16.406v-0.331c0-6.016-2.618-10.116-7.912-10.116
			C222.578,17.322,219.611,20.694,219.204,27.769z"/>
		<path d="M261.326,11.9c3.956,0,6.981,1.124,8.552,2.116c0.698,0.463,0.931,0.859,0.698,1.587l-1.164,3.041
			c-0.232,0.661-0.698,0.992-1.571,0.595c-1.512-0.793-3.316-1.388-5.817-1.388c-5.701,0-9.367,3.768-9.367,11.967
			c0,8.264,3.723,12.165,9.134,12.165c2.793,0,4.946-0.859,6.516-1.719c0.815-0.463,1.222-0.066,1.455,0.595l1.105,3.108
			c0.232,0.793-0.058,1.124-0.756,1.587c-1.455,1.058-4.945,2.314-8.436,2.314c-9.075,0-15.184-6.281-15.184-18.05
			C246.491,18.115,252.541,11.9,261.326,11.9z"/>
		<path d="M284.714,18.644v17.521c0,4.364,0.931,5.752,4.538,5.752c1.222,0,1.745-0.264,2.56-0.397
			c0.64-0.132,0.872,0.331,0.989,1.058l0.465,3.108c0.116,0.727-0.233,0.925-0.815,1.19c-0.931,0.397-2.909,0.793-4.596,0.793
			c-6.516,0-9.017-2.975-9.017-10.777V18.644h-3.723c-0.815,0-1.164-0.331-1.164-1.256V14.28c0-0.925,0.349-1.322,1.164-1.322h3.84
			V4.76c0-0.859,0.291-1.19,1.047-1.19h3.549c0.815,0,1.164,0.331,1.164,1.19v8.199h7.098c0.815,0,1.164,0.396,1.164,1.322v3.108
			c0,0.925-0.349,1.256-1.164,1.256H284.714z"/>
	</g>
</g>
</svg>
