<?xml version="1.0" encoding="utf-8"?>
<!-- Generated by IcoMoon.io -->
<!DOCTYPE svg PUBLIC "-//W3C//DTD SVG 1.1//EN" "http://www.w3.org/Graphics/SVG/1.1/DTD/svg11.dtd">
<svg version="1.1" xmlns="http://www.w3.org/2000/svg" xmlns:xlink="http://www.w3.org/1999/xlink" width="32" height="32" viewBox="0 0 32 32">
<path fill="rgb(68, 68, 68)" d="M11.325 17.666h5.588c2.1 0 3.75 0.788 3.75 3.15 0 2.212-1.538 3-3.75 3h-5.588v-6.15zM4.35 29.406h12.866c5.741 0 10.428-1.95 10.428-8.328 0-3.038-1.762-5.512-4.613-6.341 2.1-1.050 3.525-3 3.525-5.4 0-5.588-5.063-6.791-9.678-6.716h-12.528v26.784zM11.325 8.025h5.4c1.462 0 2.85 0.637 2.85 2.588 0 1.912-1.65 2.55-2.85 2.55h-5.4v-5.137z"></path>
</svg>
