<?xml version="1.0" encoding="utf-8"?>
<!-- Generated by IcoMoon.io -->
<!DOCTYPE svg PUBLIC "-//W3C//DTD SVG 1.1//EN" "http://www.w3.org/Graphics/SVG/1.1/DTD/svg11.dtd">
<svg version="1.1" xmlns="http://www.w3.org/2000/svg" xmlns:xlink="http://www.w3.org/1999/xlink" width="32" height="32" viewBox="0 0 32 32">
<path fill="#000000" d="M4.788 10.718c-1.010 0-1.828 0.831-1.828 1.854v7.256c0 1.024 0.818 1.858 1.828 1.858s1.828-0.834 1.828-1.858v-7.256c0-1.024-0.818-1.855-1.828-1.855zM7.945 23.953c0 0.781 0.633 1.412 1.412 1.412h1.612v3.997c0 1.015 0.812 1.838 1.811 1.838s1.811-0.823 1.811-1.838v-3.997h2.817v3.997c0 1.015 0.809 1.838 1.812 1.838 0.998 0 1.809-0.823 1.809-1.838v-3.997h1.612c0.781 0 1.412-0.636 1.412-1.412v-13.128h-16.108v13.128zM27.214 10.715c-1.011 0-1.83 0.832-1.83 1.856v7.258c0 1.026 0.819 1.858 1.83 1.858 1.007 0 1.826-0.832 1.826-1.858v-7.258c0-1.024-0.819-1.856-1.826-1.856zM20.227 4.089l1.527-2.248c0.209-0.307 0.128-0.719-0.175-0.927-0.303-0.205-0.717-0.127-0.921 0.177l-1.668 2.452c-0.928-0.319-1.932-0.503-2.99-0.503-1.057 0-2.061 0.184-2.987 0.503l-1.67-2.452c-0.207-0.304-0.62-0.382-0.924-0.177-0.304 0.208-0.382 0.62-0.175 0.927l1.531 2.248c-2.144 1.141-3.632 3.117-3.831 5.412h16.108c-0.196-2.295-1.685-4.272-3.826-5.412zM12.602 7.274c-0.492 0-0.892-0.398-0.892-0.892 0-0.491 0.398-0.89 0.892-0.89 0.493 0 0.89 0.4 0.89 0.89 0 0.494-0.398 0.892-0.89 0.892zM19.51 7.274c-0.495 0-0.892-0.398-0.892-0.892 0-0.491 0.397-0.89 0.892-0.89 0.49 0 0.891 0.4 0.891 0.89 0 0.494-0.401 0.892-0.891 0.892z"></path>
</svg>
