<?xml version="1.0" encoding="utf-8"?>
<!-- Generator: Adobe Illustrator 20.1.0, SVG Export Plug-In . SVG Version: 6.00 Build 0)  -->
<svg version="1.0" id="Layer_1" xmlns="http://www.w3.org/2000/svg" xmlns:xlink="http://www.w3.org/1999/xlink" x="0px" y="0px"
	 viewBox="0 0 32 32" style="enable-background:new 0 0 32 32;" xml:space="preserve">
<path d="M8.868,13.805c0.377,0,0.645-0.089,0.796-0.265c0.149-0.172,0.221-0.442,0.221-0.824c0-0.407-0.073-0.685-0.224-0.849
	c-0.154-0.168-0.413-0.25-0.794-0.25H8.248H8.155v0.092v2.004v0.092h0.092H8.868z"/>
<path d="M19.142,16.091c0.501,0,0.86-0.164,1.066-0.486c0.196-0.307,0.291-0.872,0.291-1.728c0-0.857-0.1-1.423-0.304-1.73
	c-0.214-0.321-0.576-0.484-1.077-0.484h-0.316H18.71v0.092v4.243v0.092h0.092H19.142z"/>
<path d="M27,1H5C2.8,1,1,2.8,1,5v22c0,2.2,1.8,4,4,4h22c2.2,0,4-1.8,4-4V5C31,2.8,29.2,1,27,1z M16.631,10.126
	c0-0.19,0.07-0.26,0.26-0.26h2.286c1.196,0,2.075,0.302,2.611,0.898c0.54,0.6,0.815,1.648,0.815,3.114
	c0,1.466-0.272,2.514-0.809,3.114c-0.532,0.596-1.405,0.898-2.593,0.898h-2.31c-0.19,0-0.26-0.071-0.26-0.26V10.126z M13.207,10.126
	c0-0.19,0.071-0.26,0.26-0.26h1.559c0.189,0,0.26,0.071,0.26,0.26v7.503c0,0.19-0.07,0.26-0.26,0.26h-1.559
	c-0.19,0-0.26-0.071-0.26-0.26V10.126z M6.088,10.126c0-0.19,0.071-0.26,0.26-0.26h2.544c1.094,0,1.893,0.213,2.377,0.634
	c0.478,0.416,0.72,1.162,0.72,2.217c0,1.171-0.419,1.965-1.246,2.361L10.7,15.098l-0.086,0.042l0.045,0.085l1.254,2.376
	c0.049,0.093,0.062,0.169,0.037,0.225c-0.008,0.017-0.028,0.064-0.16,0.064h-1.571c-0.206,0-0.341-0.08-0.426-0.25l-1.032-2.148
	l-0.025-0.052H8.675H8.248H8.155v0.092v2.098c0,0.19-0.071,0.26-0.26,0.26H6.348c-0.189,0-0.26-0.07-0.26-0.26V10.126z
	 M25.912,21.107c0,0.19-0.071,0.26-0.26,0.26h-1.691c-0.64,0-4.329,0.022-5.182,0.224c-1.389,0.328-2.117,1.318-2.268,1.543h-1.019
	c-0.15-0.225-0.88-1.215-2.267-1.543c-0.88-0.208-4.587-0.224-5.056-0.224l-1.836,0c-0.177-0.004-0.245-0.075-0.245-0.259
	c0-0.186,0-0.692,0-0.879c0-0.189,0.071-0.26,0.26-0.26h1.676c0.02,0,4.225,0.029,5.447,0.255c0.977,0.182,1.83,0.586,2.468,1.168
	l0.062,0.057l0.062-0.057c0.636-0.581,1.489-0.985,2.468-1.168c1.236-0.229,4.442-0.255,5.453-0.255l1.684,0
	c0.175,0.005,0.242,0.076,0.242,0.258V21.107z M25.912,17.629c0,0.19-0.07,0.26-0.26,0.26h-1.56c-0.19,0-0.26-0.071-0.26-0.26
	v-7.503c0-0.19,0.071-0.26,0.26-0.26h1.56c0.189,0,0.26,0.071,0.26,0.26V17.629z"/>
</svg>
