<?xml version="1.0" encoding="utf-8"?>
<!-- Generator: Adobe Illustrator 20.1.0, SVG Export Plug-In . SVG Version: 6.00 Build 0)  -->
<svg version="1.0" id="Layer_1" xmlns="http://www.w3.org/2000/svg" xmlns:xlink="http://www.w3.org/1999/xlink" x="0px" y="0px"
	 viewBox="0 0 32 32" style="enable-background:new 0 0 32 32;" xml:space="preserve">
<g>
	<path d="M9.886,12.716c0,0.382-0.072,0.651-0.222,0.824c-0.152,0.176-0.42,0.265-0.796,0.265H8.248H8.155v-0.092v-2.004v-0.092
		h0.092h0.621c0.381,0,0.641,0.082,0.794,0.251C9.813,12.031,9.886,12.309,9.886,12.716 M11.989,12.716
		c0-1.055-0.242-1.801-0.72-2.217c-0.484-0.421-1.283-0.634-2.377-0.634H6.348c-0.189,0-0.26,0.07-0.26,0.26v7.503
		c0,0.19,0.071,0.26,0.26,0.26h1.547c0.19,0,0.26-0.07,0.26-0.26v-2.098v-0.092h0.092h0.427h0.058l0.025,0.052l1.032,2.148
		c0.085,0.17,0.221,0.25,0.426,0.25h1.571c0.132,0,0.153-0.046,0.16-0.064c0.025-0.057,0.012-0.132-0.037-0.225l-1.254-2.376
		l-0.045-0.085l0.086-0.042l0.043-0.021C11.57,14.682,11.989,13.888,11.989,12.716 M15.286,17.629v-7.503
		c0-0.19-0.07-0.26-0.26-0.26h-1.559c-0.19,0-0.26,0.071-0.26,0.26v7.503c0,0.19,0.071,0.26,0.26,0.26h1.559
		C15.216,17.889,15.286,17.819,15.286,17.629 M20.5,13.877c0,0.856-0.095,1.421-0.291,1.728c-0.206,0.323-0.565,0.486-1.066,0.486
		h-0.34H18.71v-0.092v-4.243v-0.092h0.092h0.316c0.5,0,0.862,0.163,1.077,0.484C20.4,12.455,20.5,13.021,20.5,13.877 M21.794,16.992
		c0.537-0.6,0.809-1.648,0.809-3.114c0-1.466-0.274-2.514-0.815-3.114c-0.537-0.596-1.415-0.898-2.611-0.898h-2.286
		c-0.19,0-0.26,0.071-0.26,0.26v7.503c0,0.19,0.07,0.26,0.26,0.26h2.31C20.389,17.889,21.261,17.587,21.794,16.992 M25.912,17.629
		v-7.503c0-0.19-0.07-0.26-0.26-0.26h-1.56c-0.19,0-0.26,0.071-0.26,0.26v7.503c0,0.19,0.071,0.26,0.26,0.26h1.56
		C25.842,17.889,25.912,17.819,25.912,17.629"/>
	<path d="M25.912,21.107v-0.879c0-0.183-0.067-0.254-0.242-0.258l-1.684,0c-1.011,0-4.217,0.026-5.453,0.255
		c-0.979,0.183-1.832,0.586-2.468,1.168l-0.062,0.057l-0.062-0.057c-0.638-0.582-1.492-0.986-2.468-1.168
		c-1.223-0.226-5.428-0.255-5.447-0.255H6.348c-0.189,0-0.26,0.07-0.26,0.26c0,0.187,0,0.693,0,0.879
		c0,0.184,0.068,0.255,0.245,0.259l1.836,0c0.469,0,4.176,0.016,5.056,0.224c1.387,0.328,2.117,1.318,2.267,1.543h1.019
		c0.151-0.225,0.879-1.215,2.268-1.543c0.853-0.202,4.542-0.224,5.182-0.224h1.691C25.842,21.367,25.912,21.297,25.912,21.107"/>
</g>
<path d="M25.4,1.6H6.6c-2.8,0-5,2.2-5,5v18.8c0,2.8,2.2,5,5,5h18.8c2.8,0,5-2.2,5-5V6.6C30.4,3.8,28.2,1.6,25.4,1.6z M28.1,25.4
	c0,1.5-1.2,2.7-2.7,2.7H6.6c-1.5,0-2.7-1.2-2.7-2.7V6.6c0-1.5,1.2-2.7,2.7-2.7h18.8c1.5,0,2.7,1.2,2.7,2.7V25.4z"/>
</svg>
