<?xml version="1.0" encoding="utf-8"?>
<!-- Generator: Adobe Illustrator 19.1.0, SVG Export Plug-In . SVG Version: 6.00 Build 0)  -->
<svg version="1.1" id="Layer_1" xmlns="http://www.w3.org/2000/svg" xmlns:xlink="http://www.w3.org/1999/xlink" x="0px" y="0px"
	 viewBox="0 0 32 32" enable-background="new 0 0 32 32" xml:space="preserve">
<path fill-rule="evenodd" clip-rule="evenodd" fill="#3D4142" d="M29.5,15H5.2l9.5-8.6c0.4-0.4,0.4-1,0-1.4c-0.4-0.4-1-0.4-1.4,0
	L2,15.1c-0.1,0-0.1,0.1-0.2,0.1c-0.2,0.2-0.3,0.5-0.3,0.7c0,0,0,0,0,0c0,0,0,0,0,0c0,0.3,0.1,0.5,0.3,0.7c0.1,0.1,0.1,0.1,0.2,0.1
	L13.2,27c0.4,0.4,1,0.4,1.4,0c0.4-0.4,0.4-1,0-1.4L5.2,17h24.3c0.6,0,1-0.5,1-1C30.5,15.4,30,15,29.5,15z"/>
</svg>
