<?xml version="1.0" encoding="utf-8"?>
<!-- Generator: Adobe Illustrator 16.0.0, SVG Export Plug-In . SVG Version: 6.00 Build 0)  -->
<!DOCTYPE svg PUBLIC "-//W3C//DTD SVG 1.0//EN" "http://www.w3.org/TR/2001/REC-SVG-20010904/DTD/svg10.dtd">
<svg version="1.0" id="Layer_1" xmlns="http://www.w3.org/2000/svg" xmlns:xlink="http://www.w3.org/1999/xlink" x="0px" y="0px"
	 width="32px" height="32px" viewBox="-5 0.5 32 32" enable-background="new -5 0.5 32 32" xml:space="preserve">
<path d="M20,20.251c0,0.156-0.059,0.295-0.18,0.416l-0.903,0.901c-0.12,0.12-0.258,0.181-0.414,0.181s-0.294-0.061-0.416-0.181
	L11,14.48l-7.087,7.088c-0.121,0.12-0.259,0.181-0.416,0.181s-0.294-0.061-0.415-0.181l-0.902-0.901C2.06,20.546,2,20.407,2,20.251
	s0.06-0.294,0.181-0.415l8.403-8.403c0.121-0.122,0.259-0.182,0.416-0.182c0.156,0,0.294,0.06,0.415,0.182l8.404,8.403
	c0.121,0.121,0.18,0.259,0.18,0.415H20z"/>
</svg>
