<?xml version="1.0" encoding="utf-8"?>
<!-- Generated by IcoMoon.io -->
<!DOCTYPE svg PUBLIC "-//W3C//DTD SVG 1.1//EN" "http://www.w3.org/Graphics/SVG/1.1/DTD/svg11.dtd">
<svg version="1.1" xmlns="http://www.w3.org/2000/svg" xmlns:xlink="http://www.w3.org/1999/xlink" width="30" height="32" viewBox="0 0 30 32">
<path fill="#000000" d="M15.987 29.924q-0.946 0-1.607-0.661l-11.643-11.625q-0.661-0.696-0.661-1.625 0-0.946 0.661-1.607l11.643-11.625q0.643-0.679 1.607-0.679 0.946 0 1.625 0.679l1.339 1.321q0.661 0.696 0.661 1.625 0 0.946-0.661 1.607l-5.25 5.25h12.571q0.929 0 1.607 0.679t0.679 1.607v2.286q0 0.929-0.679 1.607t-1.607 0.679h-12.571l5.25 5.25q0.661 0.661 0.661 1.607 0 0.929-0.661 1.625l-1.339 1.339q-0.696 0.661-1.625 0.661z"></path>
</svg>
