<?xml version="1.0" encoding="utf-8"?>
<!-- Generator: Adobe Illustrator 16.0.0, SVG Export Plug-In . SVG Version: 6.00 Build 0)  -->
<!DOCTYPE svg PUBLIC "-//W3C//DTD SVG 1.0//EN" "http://www.w3.org/TR/2001/REC-SVG-20010904/DTD/svg10.dtd">
<svg version="1.0" id="Layer_1" xmlns="http://www.w3.org/2000/svg" xmlns:xlink="http://www.w3.org/1999/xlink" x="0px" y="0px"
	 width="32px" height="32px" viewBox="-5 0.5 32 32" enable-background="new -5 0.5 32 32" xml:space="preserve">
<path d="M19.997,12.749c0,0.156-0.06,0.294-0.18,0.415l-8.403,8.403c-0.12,0.12-0.259,0.181-0.415,0.181s-0.295-0.061-0.415-0.181
	l-8.403-8.403C2.06,13.043,2,12.905,2,12.749s0.06-0.294,0.181-0.415l0.901-0.902c0.121-0.121,0.259-0.181,0.415-0.181
	s0.294,0.06,0.415,0.181L11,18.52l7.088-7.087c0.12-0.121,0.258-0.181,0.414-0.181s0.295,0.06,0.415,0.181l0.902,0.902
	C19.939,12.455,20,12.593,20,12.749H19.997z"/>
</svg>
