<?xml version="1.0" encoding="utf-8"?>
<!-- Generated by IcoMoon.io -->
<!DOCTYPE svg PUBLIC "-//W3C//DTD SVG 1.1//EN" "http://www.w3.org/Graphics/SVG/1.1/DTD/svg11.dtd">
<svg version="1.1" xmlns="http://www.w3.org/2000/svg" xmlns:xlink="http://www.w3.org/1999/xlink" width="32" height="32" viewBox="0 0 32 32">
<path fill="#000000" d="M19.84 13.259l-3.692 3.691-3.68-3.68c-0.665-0.665-1.744-0.665-2.408 0-0.666 0.664-0.666 1.742 0 2.408l4.695 4.696c0.052 0.071 0.108 0.14 0.172 0.204 0.215 0.215 0.473 0.359 0.747 0.435 0.584 0.18 1.244 0.039 1.706-0.423 0.088-0.088 0.164-0.183 0.228-0.284l4.64-4.64c0.665-0.666 0.665-1.743 0-2.408-0.664-0.665-1.743-0.665-2.409 0zM16 1.599c-7.953 0-14.4 6.448-14.4 14.402s6.447 14.4 14.4 14.4c7.953 0 14.4-6.446 14.4-14.4s-6.447-14.402-14.4-14.402zM16 26.813c-5.972 0-10.814-4.84-10.814-10.813s4.841-10.815 10.814-10.815 10.815 4.841 10.815 10.815-4.842 10.813-10.815 10.813z"></path>
</svg>
