<?xml version="1.0" encoding="utf-8"?>
<!-- Generated by IcoMoon.io -->
<!DOCTYPE svg PUBLIC "-//W3C//DTD SVG 1.1//EN" "http://www.w3.org/Graphics/SVG/1.1/DTD/svg11.dtd">
<svg version="1.1" xmlns="http://www.w3.org/2000/svg" xmlns:xlink="http://www.w3.org/1999/xlink" width="32" height="32" viewBox="0 0 32 32">
<path fill="#000000" d="M16 31.201c8.395 0 15.2-6.806 15.2-15.202s-6.805-15.2-15.2-15.2c-8.395 0-15.2 6.805-15.2 15.2s6.805 15.202 15.2 15.202zM9.404 16.351l4.898-4.898c0.069-0.106 0.148-0.207 0.241-0.3 0.487-0.488 1.184-0.636 1.8-0.446 0.288 0.080 0.561 0.232 0.788 0.459 0.068 0.068 0.127 0.141 0.181 0.216l4.956 4.957c0.703 0.703 0.703 1.841 0 2.542-0.701 0.702-1.84 0.702-2.542 0l-3.884-3.884-3.897 3.896c-0.703 0.702-1.841 0.702-2.543 0-0.702-0.702-0.702-1.839-0-2.542z"></path>
</svg>
