<?xml version="1.0" encoding="utf-8"?>
<!-- Generated by IcoMoon.io -->
<!DOCTYPE svg PUBLIC "-//W3C//DTD SVG 1.1//EN" "http://www.w3.org/Graphics/SVG/1.1/DTD/svg11.dtd">
<svg version="1.1" xmlns="http://www.w3.org/2000/svg" xmlns:xlink="http://www.w3.org/1999/xlink" width="32" height="32" viewBox="0 0 32 32">
<path fill="#000000" d="M13.259 12.16l3.691 3.692-3.68 3.68c-0.665 0.665-0.665 1.744 0 2.408 0.664 0.666 1.742 0.666 2.408 0l4.696-4.695c0.071-0.052 0.14-0.108 0.204-0.172 0.215-0.215 0.359-0.473 0.435-0.747 0.18-0.584 0.039-1.244-0.423-1.706-0.088-0.088-0.183-0.164-0.284-0.228l-4.64-4.64c-0.666-0.665-1.743-0.665-2.408 0-0.665 0.664-0.665 1.743 0 2.409zM1.599 16c0 7.953 6.448 14.4 14.402 14.4s14.4-6.447 14.4-14.4c0-7.953-6.446-14.4-14.4-14.4s-14.402 6.447-14.402 14.4zM26.813 16c0 5.972-4.84 10.814-10.813 10.814s-10.815-4.841-10.815-10.814 4.841-10.815 10.815-10.815 10.813 4.842 10.813 10.815z"></path>
</svg>
