<?xml version="1.0" encoding="utf-8"?>
<!-- Generator: Adobe Illustrator 16.0.0, SVG Export Plug-In . SVG Version: 6.00 Build 0)  -->
<!DOCTYPE svg PUBLIC "-//W3C//DTD SVG 1.0//EN" "http://www.w3.org/TR/2001/REC-SVG-20010904/DTD/svg10.dtd">
<svg version="1.0" id="Layer_1" xmlns="http://www.w3.org/2000/svg" xmlns:xlink="http://www.w3.org/1999/xlink" x="0px" y="0px"
	 width="32px" height="32px" viewBox="-5 0.5 32 32" enable-background="new -5 0.5 32 32" xml:space="preserve">
<path d="M14.752,25.498c-0.157,0-0.297-0.061-0.417-0.181l-8.402-8.403c-0.121-0.12-0.181-0.259-0.181-0.415
	c0-0.156,0.06-0.294,0.181-0.415l8.402-8.403c0.12-0.121,0.26-0.181,0.417-0.181c0.155,0,0.293,0.06,0.413,0.181l0.901,0.902
	c0.121,0.12,0.182,0.259,0.182,0.415s-0.061,0.294-0.182,0.414L8.98,16.5l7.086,7.088c0.121,0.12,0.182,0.259,0.182,0.414
	c0,0.157-0.061,0.295-0.182,0.416l-0.901,0.902c-0.12,0.119-0.258,0.18-0.413,0.18V25.498z"/>
</svg>
