<?xml version="1.0" encoding="utf-8"?>
<!-- Generated by IcoMoon.io -->
<!DOCTYPE svg PUBLIC "-//W3C//DTD SVG 1.1//EN" "http://www.w3.org/Graphics/SVG/1.1/DTD/svg11.dtd">
<svg version="1.1" xmlns="http://www.w3.org/2000/svg" xmlns:xlink="http://www.w3.org/1999/xlink" width="32" height="32" viewBox="0 0 32 32">
<path fill="#000000" d="M31.201 16c0-8.395-6.806-15.2-15.202-15.2s-15.2 6.805-15.2 15.2c0 8.395 6.805 15.2 15.2 15.2s15.202-6.805 15.202-15.2zM16.351 22.596l-4.898-4.898c-0.106-0.069-0.207-0.148-0.3-0.241-0.488-0.487-0.636-1.184-0.446-1.8 0.080-0.288 0.232-0.561 0.459-0.788 0.068-0.068 0.141-0.127 0.216-0.181l4.957-4.956c0.703-0.703 1.841-0.703 2.542 0 0.702 0.701 0.702 1.84 0 2.542l-3.884 3.884 3.896 3.897c0.702 0.703 0.702 1.841 0 2.543-0.702 0.702-1.839 0.702-2.542 0z"></path>
</svg>
