<?xml version="1.0" encoding="utf-8"?>
<!-- Generated by IcoMoon.io -->
<!DOCTYPE svg PUBLIC "-//W3C//DTD SVG 1.1//EN" "http://www.w3.org/Graphics/SVG/1.1/DTD/svg11.dtd">
<svg version="1.1" xmlns="http://www.w3.org/2000/svg" xmlns:xlink="http://www.w3.org/1999/xlink" width="32" height="32" viewBox="0 0 32 32">
<path fill="rgb(68, 68, 68)" d="M14.88 21.392l0.080-3.584-2.928 2.096c-0.352 0.256-0.912 0.128-1.136-0.256l-0.304-0.432c-0.256-0.4-0.128-0.912 0.224-1.184l3.28-2.048-3.36-2.064c-0.352-0.256-0.432-0.784-0.224-1.136 0.128-0.176 0.224-0.304 0.352-0.48 0.224-0.352 0.736-0.528 1.088-0.256l3.008 2.144-0.080-3.632c0-0.432 0.4-0.784 0.832-0.784h0.56c0.432 0 0.832 0.352 0.832 0.784l-0.080 3.584 2.928-2.176c0.4-0.224 0.88-0.080 1.136 0.256l0.304 0.48c0.224 0.4 0.176 0.88-0.224 1.136l-3.36 2.144 3.408 2.144c0.4 0.256 0.48 0.784 0.256 1.136l-0.304 0.48c-0.256 0.4-0.784 0.48-1.184 0.256l-2.976-2.144 0.080 3.536c0 0.432-0.4 0.832-0.832 0.832h-0.56c-0.416 0-0.816-0.4-0.816-0.832z"></path>
</svg>
