<?xml version="1.0" encoding="utf-8"?>
<!-- Generator: Adobe Illustrator 16.0.0, SVG Export Plug-In . SVG Version: 6.00 Build 0)  -->
<!DOCTYPE svg PUBLIC "-//W3C//DTD SVG 1.1//EN" "http://www.w3.org/Graphics/SVG/1.1/DTD/svg11.dtd">
<svg version="1.1" id="Layer_1" xmlns="http://www.w3.org/2000/svg" xmlns:xlink="http://www.w3.org/1999/xlink" x="0px" y="0px"
	 width="32px" height="32px" viewBox="0 0 32 32" enable-background="new 0 0 32 32" xml:space="preserve">
<g>
	<polygon points="32,4.5 27.5,4.5 27.5,0 27.5,0 24.5,0 24.5,0 24.5,4.5 20,4.5 20,4.5 20,4.9 20,7.5 20,7.5 23.4,7.5 24.5,7.5 
		24.5,9.2 24.5,12 24.5,12 25.5,12 27.5,12 27.5,12 27.5,7.5 32,7.5 32,7.5 	"/>
	<path d="M15.95,31c1.601,0,2.8-1.305,2.8-2.811h-5.6C13.15,29.796,14.45,31,15.95,31z"/>
	<path d="M25.85,14.043H24.65h-2v-2.007V9.528h-2.5h-2V7.521v-3.01V2.605C17.85,1.703,17.051,1,15.95,1c-1.3,0-2.3,1.003-2.3,2.308
		v1.004c-4.3,1.002-7.5,4.916-7.5,9.531v8.328l-3,3.01v1.505h25.7V25.18l-3-3.01V14.043z"/>
</g>
</svg>
