<?xml version="1.0" encoding="utf-8"?>
<!-- Generated by IcoMoon.io -->
<!DOCTYPE svg PUBLIC "-//W3C//DTD SVG 1.1//EN" "http://www.w3.org/Graphics/SVG/1.1/DTD/svg11.dtd">
<svg version="1.1" xmlns="http://www.w3.org/2000/svg" xmlns:xlink="http://www.w3.org/1999/xlink" width="32" height="32" viewBox="0 0 32 32">
<path fill="#000000" d="M10.118 16.494h-0.904l-0.256 1.245h0.904c0.17 0 0.307-0.034 0.426-0.102 0.222-0.136 0.375-0.409 0.375-0.665 0-0.273-0.17-0.477-0.546-0.477z"></path>
<path fill="#000000" d="M25.82 14.363v0c-0.017 0-0.256 0.648-0.443 1.040l-0.58 1.159h1.193l-0.119-1.159c-0.034-0.375-0.051-1.040-0.051-1.040z"></path>
<path fill="#000000" d="M10.408 14.261h-0.733l-0.222 1.057h0.767c0.426 0 0.648-0.341 0.648-0.665 0-0.222-0.119-0.392-0.46-0.392z"></path>
<path fill="#000000" d="M30.321 10.033h-25.42c-0.563 0-1.023 0.46-1.023 1.006v2.967l-3.222 1.995 3.222 1.995v2.967c0 0.563 0.46 1.006 1.023 1.006h25.42c0.563 0 1.023-0.46 1.023-1.006v-9.922c0-0.546-0.46-1.006-1.023-1.006zM12.198 17.006c0 0.955-0.648 1.603-1.5 1.858-0.307 0.102-0.648 0.136-0.972 0.136h-2.489l1.193-6.001h1.944c0.409 0 0.767 0.034 1.074 0.136 0.614 0.205 0.972 0.682 0.972 1.296 0 0.546-0.341 1.125-0.938 1.415v0.017c0.511 0.188 0.716 0.665 0.716 1.142zM17.483 14.261h-2.336l-0.205 1.091h1.858l-0.256 1.262h-1.858l-0.222 1.142h2.455l-0.256 1.262h-3.938l1.193-6.001h3.819l-0.256 1.245zM20.382 19.001h-1.5l0.938-4.74h-1.841l0.256-1.262h5.183l-0.256 1.262h-1.841l-0.938 4.74zM26.229 19.001l-0.136-1.262h-1.909l-0.614 1.262h-1.603l3.171-6.001h1.722l0.852 6.001h-1.483z"></path>
</svg>
