<?xml version="1.0" encoding="utf-8"?>
<!-- Generator: Adobe Illustrator 16.0.0, SVG Export Plug-In . SVG Version: 6.00 Build 0)  -->
<!DOCTYPE svg PUBLIC "-//W3C//DTD SVG 1.1//EN" "http://www.w3.org/Graphics/SVG/1.1/DTD/svg11.dtd">
<svg version="1.1" id="Layer_1" xmlns="http://www.w3.org/2000/svg" xmlns:xlink="http://www.w3.org/1999/xlink" x="0px" y="0px"
	 width="32px" height="32px" viewBox="0.5 0.5 32 32" enable-background="new 0.5 0.5 32 32" xml:space="preserve">
<g>
	<path d="M25.5,23.15V17.55c3.1-0.6,5.4-3.3,5.4-6.5c0-3.6-3-6.6-6.601-6.6c-3.6,0-6.6,3-6.6,6.6c0,3.2,2.3,5.9,5.399,6.5v5.601
		l-2.899-2.9L18.1,22.351l6.2,6.199l6.2-6.199l-2-2.2L25.5,23.15z M20.7,11.05c0-2,1.6-3.6,3.6-3.6s3.601,1.6,3.601,3.6
		s-1.601,3.6-3.601,3.6S20.7,13.05,20.7,11.05z"/>
	<path d="M9.9,15.35v-5.6l2.9,2.9l2.1-2.1l-6.2-6.1l-6.2,6.2l2,2.1l3-3v5.6c-3.1,0.6-5.4,3.3-5.4,6.5c0,3.6,3,6.6,6.6,6.6
		c3.6,0,6.6-3,6.6-6.6C15.3,18.65,13,15.95,9.9,15.35z M8.7,25.45c-2,0-3.6-1.6-3.6-3.6s1.6-3.601,3.6-3.601s3.6,1.601,3.6,3.601
		S10.7,25.45,8.7,25.45z"/>
</g>
</svg>
