<?xml version="1.0" encoding="utf-8"?>
<!-- Generated by IcoMoon.io -->
<!DOCTYPE svg PUBLIC "-//W3C//DTD SVG 1.1//EN" "http://www.w3.org/Graphics/SVG/1.1/DTD/svg11.dtd">
<svg version="1.1" xmlns="http://www.w3.org/2000/svg" xmlns:xlink="http://www.w3.org/1999/xlink" width="32" height="32" viewBox="0 0 32 32">
<path fill="rgb(68, 68, 68)" d="M24.23 3.317h-16.459c-1.156 0-2.086 0.93-2.086 2.086v21.194c0 1.156 0.93 2.086 2.086 2.086h16.459c1.156 0 2.086-0.93 2.086-2.086v-21.194c0-1.156-0.93-2.086-2.086-2.086zM24.92 26.597c0 0.381-0.31 0.69-0.69 0.69h-12.88v-22.575h12.88c0.38 0 0.69 0.31 0.69 0.69v21.194zM7.77 27.288c-0.381 0-0.69-0.31-0.69-0.69v-21.194c0-0.381 0.31-0.69 0.69-0.69h2.198v22.589h-2.198z"></path>
</svg>
