<?xml version="1.0" encoding="utf-8"?>
<!-- Generated by IcoMoon.io -->
<!DOCTYPE svg PUBLIC "-//W3C//DTD SVG 1.1//EN" "http://www.w3.org/Graphics/SVG/1.1/DTD/svg11.dtd">
<svg version="1.1" xmlns="http://www.w3.org/2000/svg" xmlns:xlink="http://www.w3.org/1999/xlink" width="32" height="32" viewBox="0 0 32 32">
<path fill="#000000" d="M29.808 24.768c0 0-2.64-0.048-3.904-0.048-2.592 0-6.688 0.336-7.296 2.752h-1.344c0 0 0-14.688 0-18.736 1.488-3.536 4.080-3.696 6.976-4.192h4.88c0.896 0 1.616 0.72 1.616 1.616v17.664c0.032 0.528-0.4 0.944-0.928 0.944z"></path>
<path fill="#000000" d="M2.032 24.768c0 0 2.64-0.048 3.904-0.048 2.592 0 6.688 0.336 7.296 2.752h1.344c0 0 0-14.688 0-18.736-1.488-3.536-4.080-3.696-6.976-4.192h-4.88c-0.896 0-1.616 0.72-1.616 1.616v17.664c-0.032 0.528 0.4 0.944 0.928 0.944z"></path>
</svg>
