<?xml version="1.0" encoding="utf-8"?>
<!-- Generated by IcoMoon.io -->
<!DOCTYPE svg PUBLIC "-//W3C//DTD SVG 1.1//EN" "http://www.w3.org/Graphics/SVG/1.1/DTD/svg11.dtd">
<svg version="1.1" xmlns="http://www.w3.org/2000/svg" xmlns:xlink="http://www.w3.org/1999/xlink" width="32" height="32" viewBox="0 0 32 32">
<path fill="rgb(68, 68, 68)" d="M8.768 25.488h15.184c0.048 0 0.080 0 0.128 0 0.032 0 0.064 0 0.112 0 1.472 0 2.672-1.2 2.672-2.672v-18.544c0-1.472-1.2-2.672-2.672-2.672h-16.368c-1.472 0-2.672 1.2-2.672 2.672v21.952c0 0.064 0 0.128 0.016 0.192-0.016 0.112-0.016 0.24-0.016 0.352 0 2 1.632 3.632 3.632 3.632h16.912c0.656 0 1.168-0.528 1.168-1.168 0-0.656-0.528-1.168-1.168-1.168h-16.928c-0.704 0-1.28-0.576-1.28-1.28 0-0.72 0.576-1.296 1.28-1.296zM24.512 4.272v18.544c0 0.176-0.144 0.32-0.32 0.32-0.048 0-0.080 0-0.128 0-0.032 0-0.064 0-0.112 0h-13.040v-19.2h13.28c0.176 0.016 0.32 0.16 0.32 0.336zM7.824 3.952h1.92v19.2h-0.96c-0.448 0-0.88 0.080-1.28 0.24v-19.12c-0.016-0.176 0.128-0.32 0.32-0.32z"></path>
</svg>
