<?xml version="1.0" encoding="utf-8"?>
<!-- Generator: Adobe Illustrator 19.2.1, SVG Export Plug-In . SVG Version: 6.00 Build 0)  -->
<svg version="1.1" id="Layer_1" xmlns="http://www.w3.org/2000/svg" xmlns:xlink="http://www.w3.org/1999/xlink" x="0px" y="0px"
	 viewBox="0 0 32 32" style="enable-background:new 0 0 32 32;" xml:space="preserve">
    <path d="M8.7,4.4h18.1V1.8H8.7c-2,0-3.6,1.6-3.6,3.6c0,0.1,0,0.2,0,0.3l0,0V25v1.3v0.5h0c0.2,1.9,1.9,3.4,3.9,3.4h17.6v0h0.2V6.4
	H8.7c-0.5,0-1-0.4-1-1S8.2,4.4,8.7,4.4z M8.7,8.9h15.6v18.6H9c-0.7,0-1.3-0.6-1.3-1.3V25V8.8C8,8.9,8.4,8.9,8.7,8.9z"/>
</svg>
