<?xml version="1.0" encoding="utf-8"?>
<!-- Generated by IcoMoon.io -->
<!DOCTYPE svg PUBLIC "-//W3C//DTD SVG 1.1//EN" "http://www.w3.org/Graphics/SVG/1.1/DTD/svg11.dtd">
<svg version="1.1" xmlns="http://www.w3.org/2000/svg" xmlns:xlink="http://www.w3.org/1999/xlink" width="32" height="32" viewBox="0 0 32 32">
<path fill="#000000" d="M8.393 3.303c-4.151 0-8.233 2.394-8.233 2.394v23.001c0 0 4.924-1.905 8.506-1.905s6.081 1.533 6.358 1.692c0.004 0.002 0.005 0.004 0.009 0.005l0.001-23.484c0 0-2.489-1.702-6.64-1.702zM23.607 3.303c4.15 0 8.233 2.394 8.233 2.394v23.001c0 0-4.924-1.905-8.505-1.905s-6.082 1.533-6.36 1.692c-0.004 0.002-0.005 0.004-0.009 0.005l-0-23.484c0 0 2.489-1.702 6.64-1.702z"></path>
</svg>
