<?xml version="1.0" encoding="utf-8"?>
<!-- Generated by IcoMoon.io -->
<!DOCTYPE svg PUBLIC "-//W3C//DTD SVG 1.1//EN" "http://www.w3.org/Graphics/SVG/1.1/DTD/svg11.dtd">
<svg version="1.1" xmlns="http://www.w3.org/2000/svg" xmlns:xlink="http://www.w3.org/1999/xlink" width="32" height="32" viewBox="0 0 32 32">
<path fill="#000000" d="M18.822 18.017c-0.568 0.801-1.478 1.322-2.527 1.332s-1.972-0.495-2.552-1.285c-0.402-0.549-1.173-0.668-1.722-0.265-0.551 0.405-0.668 1.174-0.264 1.726l-0.002-0.003c1.021 1.397 2.688 2.312 4.563 2.292 0.003 0 0.005 0 0.009 0 1.867-0.018 3.517-0.961 4.511-2.378 0.39-0.556 0.257-1.325-0.3-1.716-0.557-0.394-1.325-0.259-1.716 0.298zM20.421 10.465c-0.68 0.007-1.225 0.561-1.219 1.243l0.008 0.862c0.006 0.677 0.561 1.227 1.243 1.219 0.682-0.006 1.228-0.564 1.222-1.242l-0.008-0.862c-0.007-0.681-0.565-1.226-1.246-1.22zM13.249 12.627l-0.007-0.862c-0.007-0.681-0.561-1.226-1.242-1.221-0.681 0.008-1.229 0.563-1.223 1.244l0.008 0.862c0.006 0.677 0.564 1.227 1.246 1.219 0.68-0.007 1.225-0.565 1.218-1.242zM27.069 10.472c-1.14-5.12-5.728-8.923-11.186-8.871-5.457 0.051-9.972 3.945-11.016 9.087-1.266 0.317-2.2 1.462-2.189 2.826v3.78c0.014 1.347 0.986 2.46 2.235 2.771 0.909 4.504 4.475 8.035 8.983 8.897 0.396 0.854 1.26 1.445 2.261 1.437 1.365-0.014 2.457-1.129 2.444-2.491-0.011-1.363-1.127-2.457-2.489-2.443-0.811 0.006-1.523 0.411-1.967 1.021-3.962-0.864-6.993-4.363-7.041-8.592l-0-4.857c-0.036-4.91 3.896-8.919 8.803-8.973 4.908-0.038 8.919 3.896 8.972 8.804v5.877c0.006 0.681 0.619 1.229 1.3 1.221 0.055 0 0.257-0.001 0.313-0.001 1.599-0.018 2.846-1.325 2.83-2.922l0-3.781c-0.012-1.367-0.973-2.498-2.253-2.79z"></path>
</svg>
