<?xml version="1.0" encoding="utf-8"?>
<!-- Generated by IcoMoon.io -->
<!DOCTYPE svg PUBLIC "-//W3C//DTD SVG 1.1//EN" "http://www.w3.org/Graphics/SVG/1.1/DTD/svg11.dtd">
<svg version="1.1" xmlns="http://www.w3.org/2000/svg" xmlns:xlink="http://www.w3.org/1999/xlink" width="32" height="32" viewBox="0 0 32 32">
<path fill="rgb(68, 68, 68)" d="M22.326 28.364c-1.55 0-2.812-1.274-2.812-2.84s1.261-2.842 2.812-2.842c1.551 0 2.814 1.275 2.814 2.842s-1.263 2.84-2.814 2.84zM22.326 24.146c-0.751 0-1.362 0.619-1.362 1.378s0.611 1.376 1.362 1.376c0.751 0 1.363-0.617 1.363-1.376s-0.612-1.378-1.363-1.378zM10.496 28.364c-1.551 0-2.813-1.274-2.813-2.84s1.262-2.842 2.813-2.842 2.813 1.275 2.813 2.842c-0 1.566-1.262 2.84-2.813 2.84zM10.496 24.146c-0.751 0-1.363 0.619-1.363 1.378s0.611 1.376 1.363 1.376c0.751 0 1.363-0.617 1.363-1.376s-0.611-1.378-1.363-1.378zM22.265 20.633h-13.405c-0.676 0-1.226-0.555-1.226-1.239v-11.135h-2.022c-0.676 0-1.227-0.555-1.227-1.237v-2.15c0-0.682 0.55-1.237 1.227-1.237h4.629c0.675 0 1.224 0.556 1.224 1.239v2.33h14.213c0.646 0 1.222 0.277 1.577 0.759 0.357 0.484 0.454 1.125 0.266 1.761l-0.018 0.053-1.944 5.121-1.905 4.73c-0.189 0.66-0.832 1.005-1.389 1.005zM9.084 19.169h13.18c0.002 0 0.005-0.001 0.008-0.001l1.937-4.808 1.928-5.078c0.049-0.18 0.033-0.337-0.046-0.444-0.080-0.109-0.227-0.169-0.414-0.169h-15.664v-3.569h-4.178v1.694h3.249v12.374z"></path>
</svg>
