<?xml version="1.0" encoding="utf-8"?>
<!-- Generated by IcoMoon.io -->
<!DOCTYPE svg PUBLIC "-//W3C//DTD SVG 1.1//EN" "http://www.w3.org/Graphics/SVG/1.1/DTD/svg11.dtd">
<svg version="1.1" xmlns="http://www.w3.org/2000/svg" xmlns:xlink="http://www.w3.org/1999/xlink" width="32" height="32" viewBox="0 0 32 32">
<path fill="#000000" d="M16 0.798c-8.395 0-15.2 6.806-15.2 15.202s6.805 15.202 15.2 15.202c8.395 0 15.2-6.806 15.2-15.202s-6.805-15.202-15.2-15.202zM24.107 11.296l-11.031 11.514c-0.31 0.322-0.812 0.322-1.122 0-0.005-0.005-0.006-0.011-0.010-0.016s-0.012-0.007-0.018-0.012l-4.597-4.815c-0.313-0.324-0.313-0.85 0-1.176 0.313-0.324 0.82-0.324 1.133 0l4.064 4.262 10.459-10.921c0.31-0.321 0.812-0.321 1.122 0s0.31 0.843-0 1.164z"></path>
</svg>
