<?xml version="1.0" encoding="utf-8"?>
<!-- Generator: Adobe Illustrator 16.0.0, SVG Export Plug-In . SVG Version: 6.00 Build 0)  -->
<!DOCTYPE svg PUBLIC "-//W3C//DTD SVG 1.0//EN" "http://www.w3.org/TR/2001/REC-SVG-20010904/DTD/svg10.dtd">
<svg version="1.0" xmlns="http://www.w3.org/2000/svg" xmlns:xlink="http://www.w3.org/1999/xlink" x="0px" y="0px" width="32px"
	 height="32px" viewBox="0 0 32 32" enable-background="new 0 0 32 32" xml:space="preserve">
<g id="Layer_1" display="none">
	<path display="inline" d="M16,0.798C7.605,0.798,0.8,7.604,0.8,16c0,8.396,6.805,15.202,15.2,15.202
		c8.395,0,15.2-6.806,15.2-15.202C31.2,7.604,24.395,0.798,16,0.798z M24.107,11.296L13.076,22.811c-0.31,0.321-0.812,0.321-1.122,0
		c-0.005-0.006-0.006-0.012-0.01-0.017c-0.004-0.005-0.012-0.007-0.018-0.012l-4.597-4.815c-0.313-0.324-0.313-0.85,0-1.176
		c0.313-0.324,0.82-0.324,1.133,0l4.064,4.262l10.458-10.921c0.311-0.321,0.812-0.321,1.123,0
		C24.417,10.453,24.417,10.975,24.107,11.296z"/>
</g>
<g id="Layer_3">
	<g>
		<path d="M16,31.752C7.315,31.752,0.25,24.686,0.25,16S7.315,0.248,16,0.248S31.75,7.314,31.75,16S24.685,31.752,16,31.752z
			 M16,1.348C7.922,1.348,1.35,7.921,1.35,16S7.922,30.652,16,30.652S30.65,24.079,30.65,16S24.078,1.348,16,1.348z"/>
	</g>
</g>
<g id="Layer_2">
	<path d="M24.174,11.237L13.143,22.752c-0.311,0.321-0.812,0.321-1.122,0c-0.005-0.006-0.006-0.012-0.01-0.017
		c-0.004-0.005-0.012-0.007-0.018-0.012l-4.597-4.815c-0.313-0.324-0.313-0.85,0-1.176c0.313-0.324,0.82-0.324,1.133,0l4.063,4.262
		l10.458-10.921c0.311-0.321,0.812-0.321,1.123,0C24.484,10.395,24.484,10.917,24.174,11.237z"/>
</g>
</svg>
