<?xml version="1.0" encoding="utf-8"?>
<!-- Generated by IcoMoon.io -->
<!DOCTYPE svg PUBLIC "-//W3C//DTD SVG 1.1//EN" "http://www.w3.org/Graphics/SVG/1.1/DTD/svg11.dtd">
<svg version="1.1" xmlns="http://www.w3.org/2000/svg" xmlns:xlink="http://www.w3.org/1999/xlink" width="32" height="32" viewBox="0 0 32 32">
<path fill="#000000" d="M16 1.6c-7.952 0-14.4 6.448-14.4 14.4s6.448 14.4 14.4 14.4c7.952 0 14.4-6.448 14.4-14.4s-6.448-14.4-14.4-14.4zM21.296 21.648l-0.416 0.416c-0.352 0.352-0.944 0.368-1.312 0.032l-5.424-4.752c-0.368-0.336-0.656-1.008-0.624-1.504l0.496-8.56c0.032-0.496 0.448-0.896 0.944-0.896h0.592c0.496 0 0.928 0.4 0.944 0.896l0.416 7.12c0.032 0.496 0.32 1.2 0.64 1.568l3.776 4.352c0.336 0.4 0.32 0.976-0.032 1.328z"></path>
</svg>
