<?xml version="1.0" encoding="utf-8"?>
<!-- Generated by IcoMoon.io -->
<!DOCTYPE svg PUBLIC "-//W3C//DTD SVG 1.1//EN" "http://www.w3.org/Graphics/SVG/1.1/DTD/svg11.dtd">
<svg version="1.1" xmlns="http://www.w3.org/2000/svg" xmlns:xlink="http://www.w3.org/1999/xlink" width="32" height="32" viewBox="0 0 32 32">
<path fill="#000000" d="M22.222 2.376c0.656-1.324 1.984-2.256 3.565-2.256 2.213 0 4.010 1.796 4.010 4.010 0 1.217-0.574 2.271-1.431 3.006-1.63-2.044-3.705-3.72-6.143-4.759zM30.732 16.974c0 3.857-1.516 7.346-3.951 9.968l2.394 3.986-1.978 0.989-2.974-2.728c-2.347 1.58-5.171 2.505-8.212 2.505-3.045 0-5.872-0.925-8.221-2.508l-2.978 2.731-1.976-0.989 2.395-3.992c-2.428-2.625-3.945-6.105-3.945-9.962 0-8.133 6.592-14.724 14.724-14.724 8.13 0 14.721 6.591 14.721 14.724zM16.011 4.549c-6.862 0-12.424 5.562-12.424 12.422 0 6.863 5.562 12.424 12.424 12.424 6.86 0 12.421-5.561 12.421-12.424 0-6.86-5.561-12.422-12.421-12.422zM14.977 18.144v-10.081h2.018v8.067h6.049v2.014h-8.067zM3.595 7.209c-0.916-0.735-1.538-1.815-1.538-3.080 0-2.214 1.794-4.010 4.010-4.010 1.605 0 2.969 0.96 3.609 2.324-2.413 1.055-4.47 2.723-6.080 4.766z"></path>
</svg>
