<?xml version="1.0" encoding="utf-8"?>
<!-- Generated by IcoMoon.io -->
<!DOCTYPE svg PUBLIC "-//W3C//DTD SVG 1.1//EN" "http://www.w3.org/Graphics/SVG/1.1/DTD/svg11.dtd">
<svg version="1.1" xmlns="http://www.w3.org/2000/svg" xmlns:xlink="http://www.w3.org/1999/xlink" width="32" height="32" viewBox="0 0 32 32">
<path fill="#000000" d="M18.626 13.875c0.944 0.945 2.056 1.417 3.334 1.417 0.668 0 1.071 0.098 1.209 0.291 0.138 0.196 0.098 0.682-0.126 1.46-0.387 1.445-1.124 2.738-2.207 3.876-1.087 1.142-2.435 2.044-4.045 2.712l1.419 3.084c1.498-0.554 2.887-1.305 4.169-2.251 1.274-0.945 2.386-2.042 3.335-3.294 0.944-1.25 1.694-2.638 2.251-4.169 0.554-1.527 0.835-3.125 0.835-4.794 0-1.944-0.545-3.585-1.628-4.918-1.083-1.336-2.516-2.001-4.296-2.001s-3.168 0.515-4.169 1.541c-0.999 1.030-1.499 2.266-1.499 3.711 0 1.281 0.472 2.392 1.418 3.337zM5.076 13.875c0.972 0.945 2.098 1.417 3.377 1.417 0.611 0 0.986 0.098 1.126 0.291 0.137 0.196 0.096 0.682-0.125 1.46-0.334 1.445-1.057 2.738-2.168 3.876-1.112 1.142-2.475 2.044-4.086 2.712l1.5 3.084c1.445-0.554 2.806-1.305 4.086-2.251 1.278-0.945 2.39-2.042 3.336-3.294 0.945-1.25 1.695-2.638 2.252-4.169 0.555-1.527 0.834-3.125 0.834-4.794 0-1.944-0.541-3.585-1.626-4.918-1.084-1.336-2.516-2.001-4.294-2.001-1.78 0-3.169 0.515-4.169 1.541-1 1.030-1.501 2.266-1.501 3.711-0 1.281 0.486 2.392 1.46 3.337z"></path>
</svg>
