<?xml version="1.0" encoding="utf-8"?>
<!-- Generated by IcoMoon.io -->
<!DOCTYPE svg PUBLIC "-//W3C//DTD SVG 1.1//EN" "http://www.w3.org/Graphics/SVG/1.1/DTD/svg11.dtd">
<svg version="1.1" xmlns="http://www.w3.org/2000/svg" xmlns:xlink="http://www.w3.org/1999/xlink" width="32" height="32" viewBox="0 0 32 32">
<path fill="rgb(68, 68, 68)" d="M31.839 16.44c0-1.197-0.739-2.27-1.971-3.133 1.232-0.862 1.971-1.936 1.971-3.133 0-2.851-4.189-5.086-9.521-5.086s-9.521 2.235-9.521 5.104c0 0.528 0.141 1.038 0.422 1.513-1.091-0.229-2.27-0.352-3.52-0.352-5.35 0-9.539 2.235-9.539 5.086 0 0.986 0.51 1.901 1.408 2.693-0.88 0.774-1.408 1.69-1.408 2.693 0 2.851 4.189 5.086 9.521 5.086 2.446 0 4.646-0.475 6.318-1.267 1.672 0.792 3.872 1.267 6.318 1.267 5.332 0 9.521-2.235 9.521-5.086 0-0.986-0.51-1.901-1.408-2.693 0.898-0.774 1.408-1.69 1.408-2.693zM30.519 21.808c0 1.813-3.291 3.766-8.201 3.766-1.918 0-3.573-0.299-4.892-0.774 1.126-0.845 1.777-1.865 1.777-2.992 0-0.194-0.018-0.37-0.053-0.563 0.986 0.176 2.059 0.282 3.168 0.282 2.798 0 5.28-0.616 7.004-1.619 0.757 0.598 1.197 1.267 1.197 1.901zM1.481 21.808c0-0.651 0.422-1.302 1.179-1.901 1.725 1.003 4.206 1.619 7.004 1.619 1.126 0 2.182-0.106 3.168-0.282 0.246-0.053 0.493-0.088 0.739-0.158 0.282-0.070 0.563-0.141 0.827-0.229 0.581-0.176 1.109-0.37 1.584-0.598 0.246-0.106 0.475-0.229 0.686-0.37 0.387 0.299 0.704 0.634 0.898 0.968 0.176 0.299 0.282 0.616 0.282 0.933 0 0.827-0.686 1.672-1.883 2.358-0.211 0.123-0.44 0.229-0.686 0.352-0.229 0.106-0.475 0.194-0.739 0.299-1.32 0.475-2.992 0.774-4.892 0.774-4.857 0-8.166-1.936-8.166-3.766zM1.481 16.44c0-1.813 3.291-3.766 8.201-3.766 1.918 0 3.573 0.299 4.892 0.774 0.264 0.088 0.493 0.194 0.739 0.299s0.475 0.229 0.686 0.352c1.197 0.686 1.883 1.531 1.883 2.358 0 0.317-0.106 0.616-0.282 0.933-0.194 0.334-0.51 0.669-0.898 0.968-0.053 0.035-0.106 0.088-0.158 0.123-0.141 0.106-0.282 0.194-0.44 0.282-0.018 0.018-0.053 0.035-0.088 0.053-0.194 0.123-0.422 0.229-0.651 0.334-0.018 0-0.035 0.018-0.035 0.018-0.053 0.018-0.106 0.053-0.176 0.070-0.176 0.070-0.37 0.141-0.563 0.211-0.317 0.106-0.634 0.211-0.986 0.299-1.126 0.299-2.446 0.475-3.907 0.475-2.305 0-4.241-0.44-5.667-1.074-0.264-0.123-0.51-0.246-0.722-0.37-0.229-0.141-0.422-0.264-0.616-0.422-0.774-0.598-1.214-1.267-1.214-1.918zM30.519 10.192c0 0.845-0.704 1.707-1.936 2.393-0.246 0.141-0.51 0.264-0.792 0.387-0.299 0.123-0.634 0.246-0.968 0.352-1.25 0.387-2.781 0.634-4.505 0.634s-3.238-0.246-4.505-0.634c-0.334-0.106-0.669-0.229-0.968-0.352-0.282-0.123-0.546-0.246-0.792-0.387-1.232-0.686-1.936-1.549-1.936-2.393 0-1.813 3.291-3.766 8.201-3.766s8.201 1.936 8.201 3.766zM29.322 18.341c-0.194 0.141-0.387 0.282-0.616 0.422-0.229 0.123-0.475 0.246-0.722 0.37-1.426 0.651-3.361 1.074-5.667 1.074-1.461 0-2.781-0.176-3.907-0.475-0.176-0.211-0.37-0.422-0.598-0.616 0.229-0.194 0.422-0.405 0.598-0.616 0.211-0.246 0.37-0.51 0.493-0.792 0.106-0.229 0.194-0.475 0.246-0.722 0.035-0.176 0.053-0.37 0.053-0.563 0-0.528-0.141-1.038-0.422-1.513 1.091 0.229 2.27 0.352 3.52 0.352 2.411 0 4.593-0.458 6.248-1.232 1.232 0.686 1.936 1.549 1.936 2.393 0.035 0.669-0.405 1.338-1.162 1.918z"></path>
</svg>
