<?xml version="1.0" encoding="utf-8"?>
<!-- Generated by IcoMoon.io -->
<!DOCTYPE svg PUBLIC "-//W3C//DTD SVG 1.1//EN" "http://www.w3.org/Graphics/SVG/1.1/DTD/svg11.dtd">
<svg version="1.1" xmlns="http://www.w3.org/2000/svg" xmlns:xlink="http://www.w3.org/1999/xlink" width="32" height="32" viewBox="0 0 32 32">
<path fill="#000000" d="M31.68 9.853c0 2.217-3.91 4.014-8.733 4.014s-8.733-1.797-8.733-4.014c0-2.215 3.91-4.014 8.733-4.014s8.733 1.799 8.733 4.014zM17.786 16c0 2.217-3.91 4.014-8.733 4.014s-8.733-1.797-8.733-4.014c0-2.215 3.91-4.014 8.733-4.014s8.733 1.799 8.733 4.014zM16.064 19.762c-1.591 0.986-4.135 1.629-7.011 1.629s-5.42-0.642-7.011-1.629c-1.077 0.669-1.721 1.491-1.721 2.385 0 2.217 3.91 4.014 8.733 4.014s8.733-1.797 8.733-4.014c-0.001-0.895-0.645-1.717-1.722-2.385zM29.829 13.535c-1.599 0.941-4.084 1.549-6.882 1.549-1.526 0-2.95-0.185-4.197-0.502 0.364 0.442 0.572 0.918 0.572 1.419 0 1.107-0.976 2.11-2.554 2.836 1.581 0.727 3.765 1.177 6.179 1.177 4.823 0 8.733-1.797 8.733-4.014-0-0.929-0.696-1.784-1.851-2.465zM29.933 19.746c-1.593 0.977-4.125 1.613-6.986 1.613-1.471 0-2.852-0.17-4.067-0.466 0.284 0.395 0.442 0.817 0.442 1.255 0 1.107-0.976 2.11-2.554 2.836 1.581 0.727 3.765 1.178 6.179 1.178 4.823 0 8.733-1.797 8.733-4.014-0-0.902-0.655-1.731-1.747-2.401z"></path>
</svg>
