<?xml version="1.0" encoding="utf-8"?>
<!-- Generated by IcoMoon.io -->
<!DOCTYPE svg PUBLIC "-//W3C//DTD SVG 1.1//EN" "http://www.w3.org/Graphics/SVG/1.1/DTD/svg11.dtd">
<svg version="1.1" xmlns="http://www.w3.org/2000/svg" xmlns:xlink="http://www.w3.org/1999/xlink" width="32" height="32" viewBox="0 0 32 32">
<path fill="rgb(68, 68, 68)" d="M28.982 5.958h-25.963c-1.041 0-1.883 0.842-1.883 1.883v16.334c0 1.041 0.842 1.883 1.883 1.883h25.98c1.041 0 1.883-0.842 1.883-1.883v-4.591c-0.429-0.066-0.842-0.198-1.206-0.396-0.429-0.231-0.809-0.562-1.123-0.958-0.595-0.76-0.859-1.718-0.727-2.676 0.149-1.189 0.875-2.18 1.85-2.725 0.363-0.198 0.776-0.347 1.206-0.396v-4.591c-0.017-1.041-0.859-1.883-1.899-1.883zM26.537 15.389c-0.165 1.288 0.182 2.577 0.991 3.617 0.562 0.727 1.305 1.255 2.131 1.569v3.601c0 0.182-0.083 0.347-0.198 0.479-0.132 0.116-0.297 0.198-0.479 0.198h-4.41v-2.411h-1.288v2.395h-20.265c-0.182 0-0.347-0.083-0.479-0.198-0.132-0.132-0.198-0.297-0.198-0.479v-16.318c0-0.182 0.083-0.347 0.198-0.479 0.132-0.116 0.297-0.198 0.479-0.198h20.282v2.18h1.288v-2.18h4.41c0.182 0 0.347 0.083 0.479 0.198 0.116 0.132 0.198 0.297 0.198 0.479v3.601c-1.668 0.611-2.907 2.114-3.138 3.947z"></path>
<path fill="rgb(68, 68, 68)" d="M15.571 11.161l-5.302 9.365 1.057 0.479 5.318-9.365z"></path>
<path fill="rgb(68, 68, 68)" d="M11.342 15.967c0.281-0.116 0.529-0.297 0.76-0.512 0.215-0.215 0.38-0.462 0.512-0.76 0.116-0.281 0.182-0.595 0.182-0.925s-0.066-0.644-0.182-0.925c-0.116-0.281-0.297-0.529-0.512-0.76-0.215-0.215-0.462-0.38-0.76-0.512-0.281-0.116-0.595-0.182-0.925-0.182s-0.644 0.066-0.925 0.182c-0.281 0.116-0.529 0.297-0.76 0.512-0.215 0.215-0.38 0.462-0.512 0.76-0.116 0.281-0.182 0.595-0.182 0.925s0.066 0.644 0.182 0.925c0.116 0.281 0.297 0.529 0.512 0.76s0.462 0.38 0.76 0.512c0.281 0.116 0.595 0.182 0.925 0.182 0.33 0.017 0.628-0.050 0.925-0.182zM9.261 13.787c0-0.33 0.116-0.595 0.33-0.809s0.495-0.33 0.809-0.33c0.33 0 0.595 0.116 0.809 0.33s0.33 0.495 0.33 0.809c0 0.33-0.116 0.595-0.33 0.809s-0.495 0.33-0.809 0.33c-0.33 0-0.595-0.116-0.809-0.33s-0.33-0.479-0.33-0.809z"></path>
<path fill="rgb(68, 68, 68)" d="M18.18 16.71c-0.215-0.215-0.462-0.38-0.76-0.512-0.281-0.116-0.595-0.182-0.925-0.182s-0.644 0.066-0.925 0.182c-0.281 0.116-0.529 0.297-0.76 0.512-0.215 0.215-0.38 0.462-0.512 0.76-0.116 0.281-0.182 0.595-0.182 0.925s0.066 0.644 0.182 0.925c0.116 0.281 0.297 0.529 0.512 0.76 0.215 0.215 0.462 0.38 0.76 0.512 0.281 0.116 0.595 0.182 0.925 0.182s0.644-0.066 0.925-0.182c0.281-0.116 0.529-0.297 0.76-0.512 0.215-0.215 0.38-0.462 0.512-0.76 0.116-0.281 0.182-0.595 0.182-0.925s-0.066-0.644-0.182-0.925c-0.116-0.297-0.281-0.545-0.512-0.76zM17.321 19.204c-0.215 0.215-0.495 0.33-0.809 0.33-0.33 0-0.595-0.116-0.809-0.33s-0.33-0.495-0.33-0.809c0-0.33 0.116-0.595 0.33-0.809s0.495-0.33 0.809-0.33c0.33 0 0.595 0.116 0.809 0.33s0.33 0.495 0.33 0.809c0 0.314-0.099 0.578-0.33 0.809z"></path>
<path fill="rgb(68, 68, 68)" d="M23.3 16.826v3.749h1.272v-3.749h-0.644z"></path>
<path fill="rgb(68, 68, 68)" d="M23.3 11.21v3.749h1.272v-3.749h-0.644z"></path>
</svg>
