<?xml version="1.0" encoding="utf-8"?>
<!-- Generated by IcoMoon.io -->
<!DOCTYPE svg PUBLIC "-//W3C//DTD SVG 1.1//EN" "http://www.w3.org/Graphics/SVG/1.1/DTD/svg11.dtd">
<svg version="1.1" xmlns="http://www.w3.org/2000/svg" xmlns:xlink="http://www.w3.org/1999/xlink" width="32" height="32" viewBox="0 0 32 32">
<path fill="#000000" d="M31.2 28.514v0c-0.001-0.751-0.609-1.36-1.36-1.36h-27.681c-0.751 0-1.359 0.609-1.359 1.36v0 1.73c0 0.752 0.608 1.359 1.359 1.359v0h27.681c0.752 0 1.36-0.608 1.36-1.359v0 0-1.73z"></path>
<path fill="#000000" d="M4.656 11.725l-0.007-0.008-0.001 0.001c-0.256-0.219-0.584-0.357-0.947-0.357-0.795 0-1.439 0.637-1.457 1.427h-0.036v11.28h0.046c0.069 0.742 0.686 1.325 1.446 1.325 0.005 0 0.010-0.001 0.016-0.002v0.002h24.565v-0.034c0.005 0 0.010 0.002 0.017 0.002 0.748 0 1.359-0.567 1.443-1.293h0.017v-0.168c0 0 0-0.001 0-0.002v-10.839c0.020-0.098 0.032-0.199 0.032-0.304 0-0.806-0.654-1.46-1.46-1.46-0.348 0-0.662 0.127-0.912 0.327l-0.004-0.004-0.041 0.040c-0.050 0.044-0.096 0.090-0.14 0.14l-3.075 3.075-7.085-7.084-0.013 0.014c-0.267-0.283-0.642-0.462-1.061-0.462-0.42 0-0.796 0.18-1.062 0.464l-0.016-0.016-7.101 7.099-3.024-3.025c-0.044-0.050-0.091-0.097-0.142-0.14z"></path>
<path fill="#000000" d="M3.641 3.973c1.491 0 2.7 1.209 2.7 2.701s-1.209 2.7-2.7 2.7c-1.491 0-2.7-1.209-2.7-2.7s1.209-2.701 2.7-2.701z"></path>
<path fill="#000000" d="M28.223 3.973c1.491 0 2.7 1.209 2.7 2.701s-1.209 2.7-2.7 2.7c-1.492 0-2.701-1.209-2.701-2.7s1.209-2.701 2.701-2.701z"></path>
<path fill="#000000" d="M16.155 0.397c1.491 0 2.7 1.209 2.7 2.701s-1.209 2.7-2.7 2.7-2.7-1.209-2.7-2.7c0-1.492 1.209-2.701 2.7-2.701z"></path>
</svg>
