<?xml version="1.0" encoding="utf-8"?>
<!-- Generated by IcoMoon.io -->
<!DOCTYPE svg PUBLIC "-//W3C//DTD SVG 1.1//EN" "http://www.w3.org/Graphics/SVG/1.1/DTD/svg11.dtd">
<svg version="1.1" xmlns="http://www.w3.org/2000/svg" xmlns:xlink="http://www.w3.org/1999/xlink" width="32" height="32" viewBox="0 0 32 32">
<path fill="rgb(68, 68, 68)" d="M30.748 18.059c0.493-0.528 1.091-1.179 1.091-2.059s-0.598-1.531-1.091-2.059c-0.229-0.246-0.546-0.598-0.581-0.757-0.035-0.176 0.123-0.634 0.246-0.968 0.264-0.704 0.546-1.496 0.229-2.27-0.334-0.792-1.109-1.144-1.795-1.461-0.299-0.141-0.757-0.352-0.845-0.493-0.106-0.141-0.123-0.634-0.141-0.986-0.035-0.757-0.070-1.601-0.669-2.2s-1.443-0.634-2.2-0.669c-0.352-0.018-0.827-0.035-0.986-0.141-0.141-0.106-0.352-0.546-0.493-0.845-0.317-0.686-0.669-1.461-1.461-1.777-0.229-0.088-0.475-0.141-0.739-0.141-0.528 0-1.038 0.194-1.531 0.37-0.334 0.123-0.704 0.264-0.915 0.264-0.035 0-0.053 0-0.053 0-0.158-0.035-0.528-0.37-0.757-0.581-0.528-0.493-1.179-1.091-2.059-1.091s-1.531 0.598-2.059 1.091c-0.246 0.229-0.598 0.546-0.757 0.581-0.018 0-0.018 0-0.053 0-0.211 0-0.598-0.141-0.915-0.264-0.493-0.176-1.003-0.37-1.531-0.37-0.264 0-0.51 0.053-0.739 0.141-0.81 0.317-1.162 1.091-1.478 1.777-0.141 0.299-0.352 0.757-0.493 0.845-0.141 0.106-0.634 0.123-0.986 0.141-0.757 0.035-1.601 0.070-2.2 0.669s-0.634 1.443-0.669 2.2c-0.018 0.352-0.035 0.827-0.141 0.986-0.106 0.141-0.546 0.352-0.845 0.493-0.686 0.317-1.461 0.669-1.795 1.461-0.317 0.774-0.035 1.566 0.229 2.27 0.123 0.334 0.282 0.792 0.246 0.968-0.035 0.158-0.37 0.528-0.581 0.757-0.493 0.528-1.091 1.179-1.091 2.059s0.598 1.531 1.091 2.059c0.229 0.246 0.546 0.598 0.581 0.757 0.035 0.176-0.123 0.634-0.246 0.968-0.264 0.704-0.546 1.496-0.229 2.27 0.334 0.792 1.109 1.144 1.795 1.461 0.299 0.141 0.757 0.352 0.845 0.493 0.106 0.141 0.123 0.634 0.141 0.986 0.035 0.757 0.070 1.601 0.669 2.2s1.443 0.634 2.2 0.669c0.352 0.018 0.827 0.035 0.986 0.141 0.141 0.106 0.352 0.546 0.493 0.845 0.317 0.686 0.669 1.461 1.461 1.795 0.229 0.088 0.475 0.141 0.739 0.141 0.528 0 1.038-0.194 1.531-0.37 0.334-0.123 0.704-0.264 0.915-0.264 0.035 0 0.053 0 0.053 0 0.158 0.035 0.528 0.37 0.757 0.581 0.528 0.493 1.179 1.091 2.059 1.091s1.531-0.598 2.059-1.091c0.246-0.229 0.598-0.546 0.757-0.581 0.018 0 0.018 0 0.053 0 0.211 0 0.598 0.141 0.915 0.264 0.493 0.176 1.003 0.37 1.531 0.37 0.264 0 0.51-0.053 0.739-0.141 0.792-0.334 1.144-1.109 1.461-1.795 0.141-0.299 0.352-0.757 0.493-0.845 0.141-0.106 0.634-0.123 0.986-0.141 0.757-0.035 1.601-0.070 2.2-0.669s0.634-1.443 0.669-2.2c0.018-0.352 0.035-0.827 0.141-0.986 0.106-0.141 0.546-0.352 0.845-0.493 0.686-0.317 1.461-0.669 1.795-1.461 0.317-0.774 0.035-1.566-0.229-2.27-0.123-0.334-0.282-0.792-0.246-0.968 0.035-0.158 0.37-0.528 0.598-0.757zM12.287 20.928l-1.25-2.165c-0.106-0.158-0.194-0.475-0.194-0.475h-0.035c0 0-0.106 0.317-0.194 0.475l-1.267 2.165h-1.971l2.358-3.555-2.305-3.485h2.024l1.109 1.901c0.106 0.176 0.246 0.387 0.246 0.387h0.035c0 0 0.123-0.211 0.246-0.387l1.091-1.901h2.024l-2.305 3.485 2.376 3.555h-1.989zM24.271 21.808h-7.832c-0.088-0.352-0.141-0.81-0.141-1.214 0-4.365 5.104-5.121 5.104-6.811 0-0.827-0.669-1.162-1.267-1.162-1.126 0-1.76 1.267-1.76 1.267l-2.147-1.443c0 0 1.091-2.552 4.171-2.552 1.936 0 4.030 1.144 4.030 3.661 0 3.696-4.769 4.382-4.84 5.966h4.681v2.288z"></path>
</svg>
