<?xml version="1.0" encoding="utf-8"?>
<!-- Generated by IcoMoon.io -->
<!DOCTYPE svg PUBLIC "-//W3C//DTD SVG 1.1//EN" "http://www.w3.org/Graphics/SVG/1.1/DTD/svg11.dtd">
<svg version="1.1" xmlns="http://www.w3.org/2000/svg" xmlns:xlink="http://www.w3.org/1999/xlink" width="32" height="32" viewBox="0 0 32 32">
<path fill="rgb(68, 68, 68)" d="M6.4 17.056l8.768 6.379c0.173 0.15 0.387 0.253 0.626 0.292 0.009 0.001 0.017 0.003 0.026 0.004 0.059 0.008 0.119 0.014 0.18 0.014 0.059 0 0.117-0.006 0.175-0.014 0.010-0.001 0.021-0.003 0.032-0.005 0.117-0.020 0.23-0.056 0.335-0.105 0.017-0.008 0.033-0.016 0.050-0.024 0.011-0.006 0.021-0.012 0.031-0.018 0.043-0.023 0.087-0.046 0.129-0.074l8.864-6.448c0.56-0.416 0.688-1.2 0.272-1.76s-1.2-0.688-1.76-0.272l-6.864 4.986v-17.146c0-0.704-0.56-1.264-1.264-1.264s-1.264 0.56-1.264 1.264v17.144l-6.848-4.984c-0.56-0.416-1.36-0.288-1.76 0.272-0.416 0.56-0.288 1.344 0.272 1.76z"></path>
<path fill="rgb(68, 68, 68)" d="M27.008 22.304c-0.704 0-1.264 0.56-1.264 1.264v4.304h-19.488v-4.304c0-0.704-0.56-1.264-1.264-1.264s-1.264 0.56-1.264 1.264v5.568c0 0.704 0.56 1.264 1.264 1.264h22.016c0.704 0 1.264-0.56 1.264-1.264v-5.568c0-0.704-0.56-1.264-1.264-1.264z"></path>
</svg>
