<?xml version="1.0" encoding="utf-8"?>
<!-- Generated by IcoMoon.io -->
<!DOCTYPE svg PUBLIC "-//W3C//DTD SVG 1.1//EN" "http://www.w3.org/Graphics/SVG/1.1/DTD/svg11.dtd">
<svg version="1.1" xmlns="http://www.w3.org/2000/svg" xmlns:xlink="http://www.w3.org/1999/xlink" width="32" height="32" viewBox="0 0 32 32">
<path fill="rgb(68, 68, 68)" d="M26.675 26.216v0.003h-2.781v-0.016c-0.084 0.009-0.169 0.016-0.256 0.016-2.269 0-4.175-3.256-4.716-7.666h-10.694c-0.794 0-1.434-1.144-1.434-2.556s0.644-2.556 1.434-2.556h10.694c0.541-4.409 2.447-7.666 4.716-7.666 0.084 0 0.172 0.006 0.256 0.016v-0.016h2.781v0.003c2.644 0.134 4.766 4.656 4.766 10.216s-2.122 10.087-4.766 10.222zM27.372 11.969c-1.172 0-2.122 1.806-2.122 4.031s0.95 4.031 2.122 4.031 2.122-1.806 2.122-4.031-0.95-4.031-2.122-4.031zM7.791 11.969c-0.025 0-0.047 0-0.072 0.003h-0.128v0.012c-1.216 0.172-2.172 1.906-2.172 4.019s0.956 3.844 2.172 4.019v0.012h0.134c0.022 0 0.044 0.003 0.066 0.003s0.044 0 0.066-0.003h4.644c-0.728 3.544-2.387 6.053-4.331 6.181v0.006h-2.794v-0.003c-2.666-0.078-4.816-4.622-4.816-10.219s2.15-10.144 4.816-10.219v0h2.791v0.006c1.947 0.128 3.603 2.638 4.331 6.184h-4.634c-0.022-0.003-0.047-0.003-0.072-0.003z"></path>
</svg>
