<?xml version="1.0" encoding="utf-8"?>
<!-- Generated by IcoMoon.io -->
<!DOCTYPE svg PUBLIC "-//W3C//DTD SVG 1.1//EN" "http://www.w3.org/Graphics/SVG/1.1/DTD/svg11.dtd">
<svg version="1.1" xmlns="http://www.w3.org/2000/svg" xmlns:xlink="http://www.w3.org/1999/xlink" width="32" height="32" viewBox="0 0 32 32">
<path fill="#000000" d="M27.252 28.752l-1.2-8.214c-0.056-0.394-0.244-0.956-0.638-1.144l-5.326-2.625c-0.225-0.094-0.525-0.356-0.731-0.506-0.169-0.263-0.3-0.6-0.431-0.9 0.413-0.563 0.806-1.294 1.050-1.95 0.206-0.15 0.356-0.338 0.431-0.581 0.356-1.163 0.488-2.269 0.431-3.488l-0.037-0.019 0.019-2.85c0.6-0.15 1.181-0.3 1.782-0.45v3.357c-0.15 0.131-0.469 0.338-0.469 0.544 0 0.225 0.019 0.413 0.019 0.544v0.019l-0.113 0.431-0.113 1.5c0.263 0.413 1.819 0.506 2.025-0.037l-0.188-1.444-0.3-0.45v-0.037c0-0.131 0.3-0.338 0.3-0.563s-0.075-0.413-0.244-0.544l0.019-3.582 1.932-0.488 0.019-1.088-9.526-2.063-9.526 2.063 0.019 1.088 4.651 1.163 0.019 2.85-0.037 0.019c-0.056 1.106 0 2.55 0.431 3.582 0.094 0.206 0.225 0.375 0.394 0.488 0.244 0.656 0.675 1.388 1.088 1.95-0.113 0.3-0.263 0.6-0.413 0.881-0.206 0.15-0.506 0.394-0.731 0.469l-5.326 2.569c-0.375 0.188-0.581 0.825-0.638 1.238l-1.144 8.27h0.037c0 0-0.019-0.169-0.019-0.15 0 0.75 5.026 1.256 11.233 1.256s11.233-0.469 11.233-1.219c0.019 0 0 0.113 0.019 0.113v0z"></path>
</svg>
