<?xml version="1.0" encoding="utf-8"?>
<!-- Generated by IcoMoon.io -->
<!DOCTYPE svg PUBLIC "-//W3C//DTD SVG 1.1//EN" "http://www.w3.org/Graphics/SVG/1.1/DTD/svg11.dtd">
<svg version="1.1" xmlns="http://www.w3.org/2000/svg" xmlns:xlink="http://www.w3.org/1999/xlink" width="32" height="32" viewBox="0 0 32 32">
<path fill="rgb(68, 68, 68)" d="M16.080 0.24c-8.656 0-15.68 7.024-15.68 15.68s7.024 15.68 15.68 15.68 15.68-7.024 15.68-15.68c0-8.656-7.024-15.68-15.68-15.68zM16.080 26.656c-1.36 0-2.48-1.104-2.48-2.48 0-1.36 1.104-2.48 2.48-2.48 1.36 0 2.48 1.104 2.48 2.48 0 1.36-1.12 2.48-2.48 2.48zM18.56 15.92c0 1.36-1.104 2.48-2.48 2.48-1.36 0-2.48-1.12-2.48-2.48v-8.256c0-1.36 1.104-2.48 2.48-2.48 1.36 0 2.48 1.104 2.48 2.48v8.256z"></path>
</svg>
