<?xml version="1.0" encoding="utf-8"?>
<!-- Generated by IcoMoon.io -->
<!DOCTYPE svg PUBLIC "-//W3C//DTD SVG 1.1//EN" "http://www.w3.org/Graphics/SVG/1.1/DTD/svg11.dtd">
<svg version="1.1" xmlns="http://www.w3.org/2000/svg" xmlns:xlink="http://www.w3.org/1999/xlink" width="23" height="32" viewBox="0 0 23 32">
<path fill="#000000" d="M24.281 2.183h-25.982c-0.624 0-1.13 0.5-1.13 1.117v25.697c0 0.617 0.506 1.117 1.13 1.117h25.982c0.624 0 1.13-0.5 1.13-1.117v-25.697c0-0.617-0.506-1.117-1.13-1.117zM21.528 9.857c0 0-1.802 0.052-2.884 0.052s-1.030 1.030-1.030 1.030v3.193h3.759v3.828h-3.759l0 10.471h-4.377c0 0 0-5.357 0-10.471h-3.090v-3.828h3.090c0-2.202 0-4.019 0-4.84 0-2.987 3.244-3.090 3.244-3.090h5.047l-0 3.656z"></path>
</svg>
