<?xml version="1.0" encoding="utf-8"?>
<!-- Generator: Adobe Illustrator 20.1.0, SVG Export Plug-In . SVG Version: 6.00 Build 0)  -->
<svg version="1.1" id="Layer_1" xmlns="http://www.w3.org/2000/svg" xmlns:xlink="http://www.w3.org/1999/xlink" x="0px" y="0px"
	 viewBox="0 0 32 32" style="enable-background:new 0 0 32 32;" xml:space="preserve">
<style type="text/css">
	.st0{fill:#010101;}
</style>
<path id="XMLID_9_" class="st0" d="M16,16"/>
<g>
	<path d="M21.5,23.4h-11c-0.7,0-1.2,0.6-1.2,1.2c0,0.6,0.5,1.3,1.2,1.3h11c0.7,0,1.2-0.6,1.2-1.2C22.7,24.1,22.2,23.4,21.5,23.4z"/>
	<path d="M26.8,7.6l-6-6C20.6,1.2,20.1,1,19.6,1H8C6.2,1,4.8,2.5,4.8,4.3v23.4C4.8,29.5,6.2,31,8,31H24c1.8,0,3.3-1.5,3.3-3.3V8.6
		C27.2,8.3,27.2,7.8,26.8,7.6z M21,7.3V5.4l1.9,1.9L21,7.3L21,7.3z M19.7,10.1h4.7v17.6c0,0.2-0.2,0.4-0.4,0.4H8
		c-0.2,0-0.4-0.2-0.4-0.4V4.3c0-0.2,0.2-0.4,0.4-0.4h10.2v4.7C18.2,9.4,18.9,10.1,19.7,10.1z"/>
	<path d="M21.5,18.5h-11c-0.7,0-1.2,0.6-1.2,1.2c0,0.6,0.5,1.3,1.2,1.3h11c0.7,0,1.2-0.6,1.2-1.2C22.7,19.2,22.2,18.5,21.5,18.5z"/>
	<path d="M9.2,14.8c0,0.7,0.6,1.2,1.2,1.2h11c0.7,0,1.2-0.6,1.2-1.2s-0.6-1.2-1.2-1.2H10.5C9.8,13.5,9.2,14.1,9.2,14.8z"/>
</g>
</svg>
