<?xml version="1.0" encoding="utf-8"?>
<!-- Generated by IcoMoon.io -->
<!DOCTYPE svg PUBLIC "-//W3C//DTD SVG 1.1//EN" "http://www.w3.org/Graphics/SVG/1.1/DTD/svg11.dtd">
<svg version="1.1" xmlns="http://www.w3.org/2000/svg" xmlns:xlink="http://www.w3.org/1999/xlink" width="32" height="32" viewBox="0 0 32 32">
<path fill="#000000" d="M4.313 30.662h10.978v-13.322l-10.978-0v13.322zM16.725 30.662h11.078v-13.322h-11.078v13.322zM25.653 9.655c0.455-0.458 0.785-0.966 1.019-1.442 0.571-1.16 0.883-3.022 0.377-4.338-0.584-1.515-2.177-2.533-3.965-2.533-0.628 0-1.24 0.135-1.772 0.391-1.656 0.796-2.736 2.34-3.688 3.701-0.169 0.243-0.336 0.481-0.504 0.71-0.077 0.107-0.15 0.208-0.221 0.308h-1.506c-0.072-0.1-0.144-0.201-0.222-0.308-0.166-0.23-0.333-0.468-0.502-0.71-0.953-1.362-2.032-2.908-3.688-3.703-0.532-0.256-1.144-0.393-1.772-0.393-1.787 0-3.38 1.015-3.965 2.531-0.506 1.314-0.194 3.17 0.377 4.33 0.238 0.483 0.573 0.996 1.038 1.456l-4.684-0v6.175h28.049v-6.175h-4.371zM13.721 8.832c-0.685 0.079-1.278 0.137-1.507 0.137-0.159 0-0.333 0.012-0.555 0.038-0.307 0.036-0.689 0.066-1.113 0.066h-0.001c-1.51 0-2.493-0.555-3.094-1.774-0.402-0.818-0.544-2.066-0.304-2.689 0.278-0.724 1.128-1.23 2.063-1.23 0.324 0 0.632 0.066 0.89 0.189 1.174 0.565 2.051 1.819 2.899 3.032 0.177 0.253 0.351 0.501 0.525 0.74 0.069 0.094 0.133 0.184 0.196 0.272l-0 1.218zM24.844 7.312c-0.601 1.22-1.584 1.789-3.094 1.789-0.424 0-0.806-0.044-1.114-0.079-0.221-0.026-0.396-0.046-0.555-0.046-0.218 0-0.766-0.055-1.411-0.13v-1.31c0-0.017-0.002-0.033-0.003-0.050 0.034-0.047 0.068-0.094 0.103-0.143 0.174-0.24 0.349-0.488 0.525-0.742 0.849-1.214 1.726-2.468 2.9-3.032 0.259-0.123 0.566-0.189 0.89-0.189 0.936 0 1.785 0.505 2.064 1.228 0.24 0.623 0.099 1.887-0.304 2.704z"></path>
</svg>
