<?xml version="1.0" encoding="utf-8"?>
<!-- Generated by IcoMoon.io -->
<!DOCTYPE svg PUBLIC "-//W3C//DTD SVG 1.1//EN" "http://www.w3.org/Graphics/SVG/1.1/DTD/svg11.dtd">
<svg version="1.1" xmlns="http://www.w3.org/2000/svg" xmlns:xlink="http://www.w3.org/1999/xlink" width="32" height="32" viewBox="0 0 32 32">
<path fill="#000000" d="M22.807 7.419c-2.393-1.588-4.414-2.537-6.559-2.62 0-0.021-0.021-0.021-0.021-0.041l-2.702-3.424c-0.206-0.268-0.557-0.413-0.908-0.392s-0.701 0.206-0.908 0.516l-2.104 2.826c-0.227-0.268-0.619-0.33-0.887-0.103l-1.794 1.403c-0.268 0.227-0.33 0.619-0.103 0.887v0l-3.238 1.382c-0.33 0.144-0.598 0.433-0.701 0.784s-0.041 0.701 0.165 0.969l2.393 3.053c-0.681 3.011-0.619 7.075-2.908 13.16-0.062 0.186-0.103 0.392-0.021 0.578 0.784 1.361 6.147 4.311 8.312 2.805l0.206-0.144c0.082-0.062 0.206-0.082 0.309-0.021 5.198 2.723 4.125 2.723 9.323 0 0.103-0.062 0.227-0.041 0.33 0.021l0.206 0.144c2.166 1.506 7.529-1.444 8.312-2.805 0.103-0.165 0.062-0.392-0.021-0.578-3.96-10.478-0.928-14.975-6.683-18.399zM11.916 3.624c0.082-0.103 0.206-0.165 0.33-0.186 0.124 0 0.248 0.041 0.33 0.144l0.969 1.238c0.082 0.103 0.103 0.227 0.062 0.351 0 0 0 0.021-0.021 0.021-0.041 0.103-0.124 0.206-0.248 0.248l-1.464 0.619-0.103-0.144-0.784-1.011 0.928-1.279zM8.863 6.285l0.021-0.021c0.268-0.227 0.681-0.165 0.887 0.103l0.351 0.454 0.186 0.227c0.227 0.268 0.165 0.681-0.103 0.887l-0.021 0.021c-0.268 0.227-0.681 0.165-0.887-0.103l-0.536-0.66c-0.206-0.289-0.165-0.681 0.103-0.908zM5.48 9.317c-0.082-0.103-0.103-0.227-0.062-0.351s0.124-0.227 0.248-0.268l1.464-0.619 0.433 0.536 0.474 0.598-0.949 1.279c-0.082 0.103-0.206 0.165-0.33 0.186-0.124 0-0.248-0.041-0.33-0.144l-0.186-0.227-0.763-0.99zM20.249 26.272c-5.425 2.723-3.032 2.723-8.498 0-1.588-0.804-2.599-2.434-2.578-4.208l0.021-6.167c0-0.082 0.082-0.144 0.165-0.103 1.258 0.66 2.599 1.238 4.373 1.134 0.227-0.021 0.433-0.165 0.516-0.392l0.474-1.361c0.021-0.041 0.082-0.041 0.103 0l0.474 2.599c0.041 0.206 0.227 0.351 0.433 0.33 3.094-0.289 4.868-0.722 6.93-1.836 0.082-0.041 0.165 0 0.165 0.103l0.021 5.672c0 1.815-1.011 3.445-2.599 4.228z"></path>
<path fill="#000000" d="M15.113 22.745c0 0.495 0.474 0.887 1.052 0.887s1.031-0.392 1.052-0.887c-0.289 0.186-0.639 0.309-1.052 0.309s-0.763-0.124-1.052-0.309z"></path>
<path fill="#000000" d="M12.287 19.135c-0.33 0-0.619 0.165-0.784 0.433-0.103 0.144-0.144 0.309-0.144 0.495 0 0.516 0.413 0.928 0.928 0.928s0.928-0.413 0.928-0.928c0-0.082-0.021-0.165-0.021-0.227-0.103-0.392-0.474-0.701-0.908-0.701z"></path>
<path fill="#000000" d="M19.403 19.135c-0.433 0-0.784 0.289-0.887 0.66-0.021 0.082-0.041 0.165-0.041 0.268 0 0.516 0.413 0.928 0.928 0.928s0.928-0.413 0.928-0.928c0-0.206-0.062-0.392-0.186-0.557-0.165-0.206-0.433-0.371-0.743-0.371z"></path>
</svg>
