<?xml version="1.0" encoding="utf-8"?>
<!-- Generated by IcoMoon.io -->
<!DOCTYPE svg PUBLIC "-//W3C//DTD SVG 1.1//EN" "http://www.w3.org/Graphics/SVG/1.1/DTD/svg11.dtd">
<svg version="1.1" xmlns="http://www.w3.org/2000/svg" xmlns:xlink="http://www.w3.org/1999/xlink" width="32" height="32" viewBox="0 0 32 32">
<path fill="rgb(68, 68, 68)" d="M16 1.6c-7.936 0-14.4 6.464-14.4 14.4s6.464 14.4 14.4 14.4c7.936 0 14.4-6.464 14.4-14.4s-6.464-14.4-14.4-14.4zM9.618 21.248h5.774v6.704c-0.681-0.034-1.345-0.129-1.992-0.272-1.673-1.197-3.030-3.513-3.782-6.432zM4.032 16c0-1.42 0.25-2.783 0.706-4.048h3.385c-0.236 1.281-0.363 2.64-0.363 4.048s0.128 2.767 0.363 4.048h-3.385c-0.456-1.265-0.706-2.627-0.706-4.048zM8.976 16c0-1.416 0.133-2.776 0.376-4.048h6.040v8.096h-6.041c-0.242-1.271-0.375-2.631-0.375-4.048zM13.405 4.318c0.645-0.143 1.308-0.237 1.987-0.271v6.688h-5.768c0.753-2.91 2.11-5.222 3.781-6.418zM16.608 27.952v-6.704h5.772c-0.752 2.917-2.11 5.234-3.783 6.432-0.646 0.144-1.309 0.238-1.989 0.272zM16.608 4.047c0.68 0.034 1.344 0.128 1.99 0.271 1.671 1.195 3.028 3.505 3.78 6.418h-5.77v-6.688zM21.091 5.169c2.46 1.159 4.461 3.129 5.657 5.567h-3.134c-0.545-2.2-1.421-4.112-2.523-5.567zM22.649 11.952c0.242 1.271 0.375 2.631 0.375 4.048s-0.134 2.776-0.376 4.048h-6.040v-8.096h6.041zM23.618 21.248h3.132c-1.196 2.437-3.197 4.411-5.652 5.575 1.102-1.457 1.977-3.373 2.52-5.575zM23.877 20.048c0.236-1.281 0.363-2.64 0.363-4.048s-0.128-2.767-0.363-4.048h3.387c0.455 1.265 0.704 2.627 0.704 4.048 0 1.42-0.251 2.783-0.708 4.048h-3.383zM10.906 5.173c-1.101 1.454-1.976 3.366-2.52 5.563h-3.131c1.197-2.433 3.195-4.403 5.651-5.563zM5.246 21.248h3.136c0.544 2.204 1.42 4.121 2.524 5.579-2.459-1.162-4.463-3.137-5.659-5.579z"></path>
</svg>
