<?xml version="1.0" encoding="utf-8"?>
<!-- Generated by IcoMoon.io -->
<!DOCTYPE svg PUBLIC "-//W3C//DTD SVG 1.1//EN" "http://www.w3.org/Graphics/SVG/1.1/DTD/svg11.dtd">
<svg version="1.1" xmlns="http://www.w3.org/2000/svg" xmlns:xlink="http://www.w3.org/1999/xlink" width="32" height="32" viewBox="0 0 32 32">
<path fill="rgb(68, 68, 68)" d="M27.806 23.375h-2.444v-1.003c0-2.084-2.288-4.875-3.922-5.344-0.044-0.016-0.188-0.066-0.387-0.141 0.637-0.75 0.697-1.534 0.859-2.856 0-0.025 0-0.050 0-0.075 0.019-0.194 0.028-0.387 0.028-0.584 0-2.244-0.866-4.25-2.219-5.556 0.456-2.028 2-3.522 3.831-3.522 2.188 0 3.969 2.141 3.969 4.772 0 1.797-1.2 3.294-2.3 4.131 0 0 1.675 0.631 1.869 0.688 1.306 0.378 3.55 2.591 3.55 4.156 0 0.625 0 2.503 0 2.503 0.003 1.563-1.269 2.831-2.834 2.831zM17.681 17.525c0 0 1.675 0.634 1.866 0.688 1.309 0.378 3.55 2.594 3.55 4.156 0 0.625 0 2.503 0 2.503 0 1.566-1.269 2.834-2.834 2.834h-8.503c-1.566 0-2.838-1.269-2.838-2.834 0 0 0-1.878 0-2.503 0-1.566 2.244-3.778 3.553-4.156 0.191-0.056 1.866-0.688 1.866-0.688-1.1-0.834-2.3-2.334-2.3-4.131 0-2.631 1.781-4.772 3.969-4.772s3.969 2.141 3.969 4.772c0.003 1.797-1.197 3.297-2.297 4.131zM10.088 13.734c-0.003 0.088-0.006 0.188-0.006 0.297 0.166 1.322 0.222 2.109 0.859 2.856-0.2 0.075-0.341 0.125-0.387 0.141-1.634 0.472-3.922 3.262-3.922 5.344v1.003h-2.444c-1.566 0-2.837-1.269-2.837-2.834 0 0 0-1.878 0-2.503 0-1.566 2.244-3.778 3.55-4.156 0.194-0.056 1.869-0.688 1.869-0.688-1.1-0.838-2.3-2.334-2.3-4.131 0-2.631 1.781-4.772 3.969-4.772 1.834 0 3.381 1.503 3.834 3.541-1.341 1.309-2.2 3.306-2.2 5.541 0.003 0.119 0.009 0.241 0.016 0.363z"></path>
</svg>
