<?xml version="1.0" encoding="utf-8"?>
<!-- Generated by IcoMoon.io -->
<!DOCTYPE svg PUBLIC "-//W3C//DTD SVG 1.1//EN" "http://www.w3.org/Graphics/SVG/1.1/DTD/svg11.dtd">
<svg version="1.1" xmlns="http://www.w3.org/2000/svg" xmlns:xlink="http://www.w3.org/1999/xlink" width="32" height="32" viewBox="0 0 32 32">
<path fill="#000000" d="M22.225 3.725c-2.534 0-4.729 1.77-6.224 3.802-1.496-2.031-3.69-3.802-6.225-3.802-4.508 0-8.176 3.608-8.176 8.042 0 1.879 0.674 3.708 1.9 5.151 1.229 1.726 9.981 9.506 11.756 11.075 0.212 0.188 0.479 0.282 0.745 0.282 0.272 0 0.544-0.098 0.758-0.291 1.077-0.982 10.456-9.535 11.695-11.009 0.026-0.031 0.056-0.062 0.079-0.094 1.207-1.437 1.868-3.252 1.868-5.115 0-4.434-3.665-8.042-8.175-8.042z"></path>
</svg>
