<?xml version="1.0" encoding="utf-8"?>
<!-- Generated by IcoMoon.io -->
<!DOCTYPE svg PUBLIC "-//W3C//DTD SVG 1.1//EN" "http://www.w3.org/Graphics/SVG/1.1/DTD/svg11.dtd">
<svg version="1.1" xmlns="http://www.w3.org/2000/svg" xmlns:xlink="http://www.w3.org/1999/xlink" width="32" height="32" viewBox="0 0 32 32">
<path fill="rgb(68, 68, 68)" d="M21.243 4.857l-0.139 0.001c-1.959 0.026-3.774 0.739-5.186 2.025-1.433-1.233-3.259-1.903-5.222-1.903-2.008 0.008-3.911 0.801-5.358 2.234-1.574 1.558-2.458 3.754-2.428 6.023 0.010 0.838 0.14 1.654 0.378 2.364 0.512 2.11 2.883 4.673 7.678 8.305 1.221 0.918 3.044 2.151 3.82 2.676l0.301 0.204c0.069 0.051 0.143 0.098 0.224 0.141 0.263 0.141 0.56 0.216 0.862 0.216 0.339 0 0.67-0.094 0.956-0.271 1.055-0.651 2.47-1.687 4.203-3.077 4.559-3.634 6.987-6.388 7.419-8.418 0.237-0.788 0.351-1.615 0.341-2.457-0.059-4.446-3.577-8.063-7.848-8.063zM27.32 14.998c-0.006 0.022-0.012 0.043-0.016 0.065-0.233 1.147-1.621 3.4-6.913 7.619-1.688 1.354-3.052 2.354-4.056 2.973-0.092 0.057-0.218 0.059-0.306 0.012-0.016-0.009-0.032-0.019-0.069-0.046l-0.325-0.221c-0.769-0.52-2.57-1.738-3.76-2.632-4.408-3.339-6.747-5.798-7.15-7.52-0.005-0.023-0.012-0.045-0.019-0.067-0.194-0.569-0.306-1.265-0.314-1.959-0.026-1.889 0.705-3.71 2.003-4.995 1.169-1.157 2.698-1.797 4.305-1.803 1.808 0 3.474 0.7 4.691 1.972 0.143 0.149 0.329 0.232 0.552 0.23 0.209-0.003 0.408-0.091 0.546-0.244 1.194-1.318 2.84-2.056 4.632-2.080l0.128-0.001c3.459 0 6.313 2.978 6.362 6.639 0.008 0.708-0.089 1.401-0.29 2.060z"></path>
</svg>
