<?xml version="1.0" encoding="utf-8"?>
<!-- Generated by IcoMoon.io -->
<!DOCTYPE svg PUBLIC "-//W3C//DTD SVG 1.1//EN" "http://www.w3.org/Graphics/SVG/1.1/DTD/svg11.dtd">
<svg version="1.1" xmlns="http://www.w3.org/2000/svg" xmlns:xlink="http://www.w3.org/1999/xlink" width="32" height="32" viewBox="0 0 32 32">
<path fill="#000000" d="M16.698 1.438c-0.176-0.2-0.436-0.311-0.699-0.311-0.268 0-0.528 0.111-0.705 0.311l-14.876 16.507c-0.251 0.277-0.31 0.675-0.161 1.017 0.151 0.342 0.493 0.56 0.865 0.56h3.030v10.404c0 0.244 0.1 0.492 0.276 0.668 0.177 0.175 0.419 0.278 0.669 0.278h6.872v-12.657h8.068v12.657h6.872c0.251 0 0.487-0.101 0.67-0.282 0.175-0.177 0.271-0.417 0.271-0.665v-10.404h3.030c0.371 0 0.708-0.218 0.86-0.56 0.155-0.342 0.091-0.739-0.161-1.017l-14.88-16.507z"></path>
</svg>
