<?xml version="1.0" encoding="utf-8"?>
<!-- Generator: Adobe Illustrator 16.0.0, SVG Export Plug-In . SVG Version: 6.00 Build 0)  -->
<!DOCTYPE svg PUBLIC "-//W3C//DTD SVG 1.0//EN" "http://www.w3.org/TR/2001/REC-SVG-20010904/DTD/svg10.dtd">
<svg version="1.0" id="Layer_1" xmlns="http://www.w3.org/2000/svg" xmlns:xlink="http://www.w3.org/1999/xlink" x="0px" y="0px"
	 width="32px" height="32px" viewBox="0 0 32 32" enable-background="new 0 0 32 32" xml:space="preserve">
<g id="XMLID_3_">
	<path id="XMLID_4_" d="M18.79,11.261c-2.702,0-5.36,2.481-5.36,5.624c0,2.305,1.464,3.809,3.589,3.809c2.655,0,5.36-2.521,5.36-5.8
		C22.379,12.723,20.912,11.261,18.79,11.261z"/>
	<path id="XMLID_12_" d="M40.357,0.5H-8.36c-8.502,0-15.5,6.953-15.5,15.5l0,0c0,8.503,6.998,15.5,15.5,15.5h48.717
		c8.504,0,15.503-6.997,15.503-15.5l0,0C55.86,7.453,47.708,0.5,40.357,0.5z M5.236,23.971H1.295l1.241-6.197h-5.933l-1.241,6.197
		H-8.58l3.143-15.942h3.943l-1.284,6.201h5.934l1.286-6.201H8.38L5.236,23.971z M16.973,24.327c-4.649,0-7.572-3.013-7.572-7.22
		c0-5.138,4.519-9.478,9.478-9.478c4.605,0,7.619,2.967,7.619,7.042C26.449,19.897,21.844,24.327,16.973,24.327z M41.244,11.129
		h-4.875l-2.479,12.841h-3.942l2.48-12.841h-4.871l1.109-3.101h13.285L41.244,11.129z"/>
</g>
</svg>
