<?xml version="1.0" encoding="utf-8"?>
<!-- Generated by IcoMoon.io -->
<!DOCTYPE svg PUBLIC "-//W3C//DTD SVG 1.1//EN" "http://www.w3.org/Graphics/SVG/1.1/DTD/svg11.dtd">
<svg version="1.1" xmlns="http://www.w3.org/2000/svg" xmlns:xlink="http://www.w3.org/1999/xlink" width="32" height="32" viewBox="0 0 32 32">
<path fill="#000000" d="M15.803 1.282c-8.128 0.109-14.63 6.787-14.522 14.917 0.109 8.125 6.787 14.629 14.915 14.52s14.63-6.787 14.522-14.917c-0.107-8.126-6.787-14.629-14.915-14.52zM17.435 6.187c1.496 0 1.938 0.867 1.938 1.861 0 1.24-0.994 2.387-2.688 2.387-1.418 0-2.091-0.714-2.051-1.891 0-0.994 0.832-2.357 2.802-2.357zM13.598 25.2c-1.022 0-1.771-0.621-1.056-3.35l1.173-4.838c0.203-0.776 0.237-1.086 0-1.086-0.306 0-1.634 0.536-2.419 1.064l-0.51-0.837c2.488-2.077 5.349-3.296 6.574-3.296 1.022 0 1.192 1.21 0.682 3.070l-1.344 5.088c-0.237 0.899-0.134 1.21 0.102 1.21 0.306 0 1.312-0.371 2.301-1.149l0.578 0.776c-2.418 2.418-5.056 3.349-6.080 3.349z"></path>
</svg>
