<?xml version="1.0" encoding="utf-8"?>
<!-- Generator: Adobe Illustrator 16.0.0, SVG Export Plug-In . SVG Version: 6.00 Build 0)  -->
<!DOCTYPE svg PUBLIC "-//W3C//DTD SVG 1.0//EN" "http://www.w3.org/TR/2001/REC-SVG-20010904/DTD/svg10.dtd">
<svg version="1.0" id="Layer_2" xmlns="http://www.w3.org/2000/svg" xmlns:xlink="http://www.w3.org/1999/xlink" x="0px" y="0px"
	 width="32px" height="32px" viewBox="0 0 32 32" enable-background="new 0 0 32 32" xml:space="preserve">
<g>
	<g>
		<path d="M16,1C7.715,1,1,7.716,1,16c0,8.285,6.715,15,15,15c8.286,0,15-6.715,15-15C31,7.716,24.285,1,16,1z M16,29.126
			C8.75,29.126,2.875,23.249,2.875,16C2.875,8.751,8.75,2.876,16,2.876c7.25,0,13.125,5.875,13.125,13.124
			C29.125,23.249,23.249,29.126,16,29.126z M16.299,11.116c0.536,0,0.963-0.129,1.281-0.391c0.319-0.261,0.477-0.596,0.477-1.004
			c0-0.395-0.157-0.732-0.477-1.013c-0.318-0.28-0.745-0.421-1.281-0.421c-0.521,0-0.93,0.141-1.223,0.421
			c-0.293,0.281-0.439,0.619-0.439,1.013c0,0.408,0.146,0.743,0.439,1.004C15.369,10.987,15.777,11.116,16.299,11.116z
			 M17.764,12.513h-4.85v1.949h2.462v7.092h-2.931v1.948h8.448v-1.948h-3.13V12.513z"/>
	</g>
</g>
</svg>
