<?xml version="1.0" encoding="utf-8"?>
<!-- Generator: Adobe Illustrator 20.1.0, SVG Export Plug-In . SVG Version: 6.00 Build 0)  -->
<svg version="1.0" id="Layer_1" xmlns="http://www.w3.org/2000/svg" xmlns:xlink="http://www.w3.org/1999/xlink" x="0px" y="0px"
	 viewBox="0 0 32 32" style="enable-background:new 0 0 32 32;" xml:space="preserve">
<g>
	<path d="M16,2.883c4.272,0,4.778,0.016,6.465,0.093c1.56,0.071,2.407,0.332,2.971,0.551c0.747,0.29,1.28,0.637,1.84,1.197
		c0.56,0.56,0.907,1.093,1.197,1.84c0.219,0.564,0.48,1.411,0.551,2.971c0.077,1.687,0.093,2.193,0.093,6.465
		s-0.016,4.778-0.093,6.465c-0.071,1.56-0.332,2.407-0.551,2.971c-0.29,0.747-0.637,1.28-1.197,1.84
		c-0.56,0.56-1.093,0.907-1.84,1.197c-0.564,0.219-1.411,0.48-2.971,0.551c-1.687,0.077-2.193,0.093-6.465,0.093
		s-4.778-0.016-6.465-0.093c-1.56-0.071-2.407-0.332-2.971-0.551c-0.747-0.29-1.28-0.637-1.84-1.197
		c-0.56-0.56-0.907-1.093-1.197-1.84c-0.219-0.564-0.48-1.411-0.551-2.971C2.899,20.778,2.883,20.272,2.883,16
		s0.016-4.778,0.093-6.465c0.071-1.56,0.332-2.407,0.551-2.971c0.29-0.747,0.637-1.28,1.197-1.84c0.56-0.56,1.093-0.907,1.84-1.197
		c0.564-0.219,1.411-0.48,2.971-0.551C11.222,2.899,11.728,2.883,16,2.883 M16,0c-4.345,0-4.89,0.018-6.597,0.096
		C7.7,0.174,6.537,0.444,5.519,0.84C4.467,1.249,3.575,1.796,2.685,2.685C1.796,3.575,1.249,4.467,0.84,5.519
		C0.444,6.537,0.174,7.7,0.096,9.403C0.018,11.11,0,11.655,0,16c0,4.345,0.018,4.89,0.096,6.597
		c0.078,1.703,0.348,2.866,0.744,3.884c0.409,1.052,0.956,1.944,1.845,2.834c0.89,0.889,1.782,1.437,2.834,1.845
		c1.018,0.396,2.181,0.666,3.884,0.744C11.11,31.982,11.655,32,16,32s4.89-0.018,6.597-0.096c1.703-0.078,2.866-0.348,3.884-0.744
		c1.052-0.409,1.944-0.956,2.834-1.845c0.889-0.89,1.437-1.782,1.845-2.834c0.396-1.018,0.666-2.181,0.744-3.884
		C31.982,20.89,32,20.345,32,16s-0.018-4.89-0.096-6.597C31.826,7.7,31.556,6.537,31.16,5.519c-0.409-1.052-0.956-1.944-1.845-2.834
		c-0.89-0.889-1.782-1.437-2.834-1.845c-1.018-0.396-2.181-0.666-3.884-0.744C20.89,0.018,20.345,0,16,0L16,0z"/>
	<path d="M16,7.784c-4.538,0-8.216,3.679-8.216,8.216s3.679,8.216,8.216,8.216s8.216-3.679,8.216-8.216S20.538,7.784,16,7.784z
		 M16,21.333c-2.946,0-5.333-2.388-5.333-5.333s2.388-5.333,5.333-5.333s5.333,2.388,5.333,5.333S18.946,21.333,16,21.333z"/>
	<circle cx="24.541" cy="7.459" r="1.92"/>
</g>
</svg>
