<?xml version="1.0" encoding="utf-8"?>
<!-- Generated by IcoMoon.io -->
<!DOCTYPE svg PUBLIC "-//W3C//DTD SVG 1.1//EN" "http://www.w3.org/Graphics/SVG/1.1/DTD/svg11.dtd">
<svg version="1.1" xmlns="http://www.w3.org/2000/svg" xmlns:xlink="http://www.w3.org/1999/xlink" width="32" height="32" viewBox="0 0 32 32">
<path fill="#000000" d="M21.738 0.8c-3.637 0.694-6.394 3.203-6.045 7.292 4.016-0.331 6.266-3.308 6.045-7.292zM28.139 11.111c-1.42-1.858-2.822-3.045-5.334-3.198-2.478-0.151-3.6 1.031-5.334 1.244-3.412 0.421-4.407-1.553-7.467-1.244-0.741 0.074-1.7 0.418-2.31 0.71-4.032 1.949-5.569 7.421-4.267 12.62 0.884 3.528 4.123 9.929 8 9.954 1.384 0.009 2.551-1.045 4.089-1.243 2.911-0.372 4.488 1.328 6.401 1.243 1.585-0.068 3.205-1.59 4.089-2.663 1.252-1.53 2.168-3.457 3.020-5.332-4.958-1.454-5.702-10.412-0.886-12.091z"></path>
</svg>
