<?xml version="1.0" encoding="utf-8"?>
<!-- Generator: Adobe Illustrator 16.0.0, SVG Export Plug-In . SVG Version: 6.00 Build 0)  -->
<!DOCTYPE svg PUBLIC "-//W3C//DTD SVG 1.0//EN" "http://www.w3.org/TR/2001/REC-SVG-20010904/DTD/svg10.dtd">
<svg version="1.0" id="Layer_1" xmlns="http://www.w3.org/2000/svg" xmlns:xlink="http://www.w3.org/1999/xlink" x="0px" y="0px"
	 width="32px" height="32px" viewBox="0 0 32 32" enable-background="new 0 0 32 32" xml:space="preserve">
<path fill="#231F20" d="M28.599,0.999H3.402C2.076,0.999,1,2.076,1,3.401v25.197c0,1.325,1.076,2.402,2.402,2.402h25.196
	c1.324,0,2.401-1.077,2.401-2.402V3.401C31,2.076,29.923,0.999,28.599,0.999z M20.863,16.32c-0.111,2.312-0.751,6.583-5.181,9.989
	c-0.091,0.069-0.222,0.066-0.339,0.039c-0.102-0.025-0.226-0.156-0.226-0.156l-2.56-2.867c-0.072-0.104-0.138-0.2-0.136-0.325
	c0.002-0.165,0.08-0.284,0.188-0.387c0.012-0.01,1.374-1.14,2.012-2.158c0.568-0.906,0.961-1.929,0.986-2.866h-3.669
	c-0.534,0-0.967-0.431-0.967-0.963v-7.89c0-0.531,0.433-0.962,0.967-0.962h7.956c0.536,0,0.968,0.431,0.968,0.962
	C20.863,8.736,20.863,16.307,20.863,16.32z"/>
</svg>
