<?xml version="1.0" encoding="utf-8"?>
<!-- Generator: Adobe Illustrator 19.2.1, SVG Export Plug-In . SVG Version: 6.00 Build 0)  -->
<svg version="1.1" id="Layer_1" xmlns="http://www.w3.org/2000/svg" xmlns:xlink="http://www.w3.org/1999/xlink" x="0px" y="0px"
	 viewBox="0 0 32 32" style="enable-background:new 0 0 32 32;" xml:space="preserve">
<style type="text/css">
	.st0{fill:#231F20;}
</style>
<g>
	<path class="st0" d="M96.5,8.4L93,20.4L89.6,8.4l-4.5,0.3l5.8,15.7c-0.5,0.8-1,1.6-1.5,2.3c-0.5,0.7-1.2,1.3-1.9,2L90,31
		c1.3-0.8,2.4-1.9,3.3-3.3c0.9-1.4,1.7-3.1,2.4-5l5.1-14L96.5,8.4z"/>
	<path class="st0" d="M77.2,8.2c-1,0-2,0.2-3.1,0.5c-1.1,0.3-2,0.7-2.7,1.3l1.2,2.8c0.7-0.3,1.4-0.6,2.2-0.8
		c0.8-0.2,1.5-0.3,2.1-0.3c0.8,0,1.5,0.2,2,0.6c0.5,0.4,0.7,1,0.7,1.9v0.5h-2.4c-2.1,0-3.7,0.4-4.9,1.3c-1.1,0.9-1.7,2.1-1.7,3.8
		c0,1.6,0.4,2.8,1.3,3.6c0.8,0.9,2,1.3,3.5,1.3c0.7,0,1.4-0.1,2.2-0.4c0.8-0.3,1.6-0.7,2.4-1.3l0.4,1.3h2.9v-9.9
		c0-2-0.5-3.6-1.6-4.6C80.7,8.7,79.2,8.2,77.2,8.2z M79.5,20.3c-0.2,0.2-0.4,0.3-0.7,0.5c-0.3,0.2-0.5,0.3-0.8,0.4
		c-0.3,0.1-0.6,0.2-0.9,0.3c-0.3,0.1-0.6,0.1-0.9,0.1c-1.2,0-1.8-0.6-1.8-1.8c0-1.5,1.1-2.3,3.2-2.3h1.9V20.3z"/>
	<path class="st0" d="M67,5.3c-0.7-0.6-1.6-1.1-2.7-1.5c-1.1-0.3-2.4-0.5-3.9-0.5h-6.3v20.9h4.6V18h1.3c1.2,0,2.4-0.1,3.4-0.4
		c1.1-0.2,2-0.7,2.8-1.2c0.8-0.6,1.5-1.3,1.9-2.3c0.5-1,0.7-2.2,0.7-3.6c0-1.1-0.2-2.1-0.5-2.9C68.2,6.7,67.7,6,67,5.3z M64,12.5
		c-0.2,0.5-0.5,0.9-0.9,1.2c-0.4,0.3-0.9,0.5-1.4,0.6c-0.5,0.1-1.1,0.2-1.8,0.2h-1.1V6.9h1.9c1.2,0,2.1,0.3,2.7,0.9
		c0.6,0.6,0.9,1.5,0.9,2.7C64.3,11.3,64.2,12,64,12.5z"/>
	<rect x="-28.1" y="3.4" class="st0" width="2.8" height="20.9"/>
	<polygon class="st0" points="-14.1,4.7 -16.3,3.2 -24.3,14.1 -15.3,24.7 -13.1,22.9 -21.1,13.9 	"/>
	<path class="st0" d="M-4.3,8.4c-0.9,0-1.8,0.1-2.7,0.4c-0.9,0.2-1.7,0.6-2.5,1l0.7,1.9c0.6-0.3,1.3-0.5,2.1-0.7
		c0.8-0.2,1.5-0.3,2.2-0.3c2.2,0,3.2,1.2,3.2,3.6v1h-3.1c-2,0-3.6,0.4-4.6,1.3c-1.1,0.8-1.6,2-1.6,3.6c0,1.4,0.4,2.5,1.2,3.3
		c0.8,0.8,1.9,1.2,3.3,1.2c0.8,0,1.6-0.2,2.5-0.5c0.9-0.3,1.7-0.8,2.5-1.5l0.3,1.7h1.9v-10C1.2,10.4-0.6,8.4-4.3,8.4z M-1.3,20.7
		c-0.5,0.5-1.2,0.9-2,1.3c-0.8,0.3-1.6,0.5-2.3,0.5C-7.2,22.5-8,21.7-8,20c0-1,0.3-1.8,0.9-2.3c0.6-0.5,1.6-0.7,3-0.7h2.8V20.7z"/>
	<polygon class="st0" points="17.7,9.8 15.7,8.3 9.6,16.3 16.5,24.8 18.5,23.2 12.7,16.2 	"/>
	<polygon class="st0" points="6,24.4 8.6,24.4 8.6,1.6 6,2.2 	"/>
	<path class="st0" d="M27.2,8.4c-0.9,0-1.8,0.1-2.7,0.4c-0.9,0.2-1.7,0.6-2.5,1l0.7,1.9c0.6-0.3,1.3-0.5,2.1-0.7
		c0.7-0.2,1.5-0.3,2.2-0.3c2.2,0,3.2,1.2,3.2,3.6v1h-3.1c-2,0-3.6,0.4-4.6,1.3c-1.1,0.8-1.6,2-1.6,3.6c0,1.4,0.4,2.5,1.2,3.3
		c0.8,0.8,1.9,1.2,3.3,1.2c0.8,0,1.6-0.2,2.5-0.5c0.9-0.3,1.7-0.8,2.5-1.5l0.3,1.7h1.9v-10C32.7,10.4,30.8,8.4,27.2,8.4z M30.2,20.7
		c-0.5,0.5-1.2,0.9-2,1.3c-0.8,0.3-1.6,0.5-2.3,0.5c-1.6,0-2.4-0.8-2.4-2.5c0-1,0.3-1.8,0.9-2.3c0.6-0.5,1.6-0.7,3-0.7h2.8V20.7z"/>
	<path class="st0" d="M43.3,8.4c-2.2,0-3.9,0.7-5.1,2.1c-1.2,1.4-1.9,3.4-1.9,6.1c0,2.6,0.6,4.6,1.9,6c1.2,1.4,2.9,2.1,5.1,2.1
		c2.2,0,3.9-0.7,5.1-2.1c1.2-1.4,1.9-3.4,1.9-6c0-2.7-0.6-4.7-1.9-6.1C47.2,9.1,45.5,8.4,43.3,8.4z M46.5,21c-0.7,1-1.8,1.5-3.2,1.5
		c-1.4,0-2.5-0.5-3.2-1.5c-0.7-1-1.1-2.5-1.1-4.4c0-2,0.4-3.5,1.1-4.5c0.7-1,1.8-1.5,3.2-1.5c1.4,0,2.5,0.5,3.2,1.5
		c0.7,1,1.1,2.5,1.1,4.5C47.6,18.6,47.2,20,46.5,21z"/>
	<path class="st0" d="M-52.7,1c-8.9,0-16.1,5.7-16.1,12.7c0,4.5,3,8.5,7.5,10.8l-1.5,5.7c-0.1,0.2,0,0.4,0.1,0.5
		c0.1,0.1,0.2,0.1,0.3,0.1c0.1,0,0.2,0,0.3-0.1l6.5-4.4c0.9,0.1,1.9,0.2,2.9,0.2c8.9,0,16.1-5.7,16.1-12.7C-36.6,6.7-43.8,1-52.7,1z
		"/>
</g>
</svg>
