<?xml version="1.0" encoding="utf-8"?>
<!-- Generated by IcoMoon.io -->
<!DOCTYPE svg PUBLIC "-//W3C//DTD SVG 1.1//EN" "http://www.w3.org/Graphics/SVG/1.1/DTD/svg11.dtd">
<svg version="1.1" xmlns="http://www.w3.org/2000/svg" xmlns:xlink="http://www.w3.org/1999/xlink" width="32" height="32" viewBox="0 0 32 32">
<path fill="#000000" d="M29.62 15.999l1.128-1.545c0.842-1.154 0.469-2.787-0.79-3.462l-1.686-0.903 0.346-1.881c0.257-1.405-0.788-2.715-2.214-2.776l-1.911-0.081-0.504-1.844c-0.202-0.741-0.75-1.318-1.44-1.58-1.491 2.138-4.518 6.477-5.249 7.526 1.61 0.018 7.786 0.083 7.786 0.083 0.21 0.003 0.402 0.126 0.49 0.319 0.034 0.072 0.049 0.15 0.049 0.227 0 0.126-0.045 0.253-0.129 0.352 0 0-8.107 9.602-8.78 10.398 0.587 0.46 1.923 1.51 1.923 1.51 0.132 0.104 0.209 0.263 0.209 0.428 0 0.026-0.003 0.052-0.006 0.078-0.027 0.193-0.157 0.357-0.337 0.429l-7.133 2.861c-0.182 0.073-0.386 0.044-0.54-0.077-0.154-0.122-0.232-0.314-0.203-0.507l1.091-7.609c0.029-0.193 0.156-0.357 0.336-0.429 0.183-0.072 0.388-0.043 0.54 0.077 0 0 1.281 1.007 1.879 1.477 0.502-0.763 3.262-4.953 4.064-6.174-1.572-0.017-7.82-0.083-7.82-0.083-0.199-0.003-0.38-0.113-0.475-0.289-0.043-0.081-0.065-0.17-0.065-0.257 0-0.105 0.030-0.209 0.090-0.299l7.188-10.991c-0.961-0.758-2.399-0.661-3.233 0.299l-1.256 1.443-1.756-0.755c-1.302-0.56-2.821 0.154-3.2 1.541l-0.504 1.844-1.911 0.081c-1.428 0.061-2.471 1.372-2.214 2.777l0.346 1.88-1.687 0.903c-1.259 0.675-1.631 2.308-0.79 3.462l1.128 1.545-1.128 1.545c-0.842 1.154-0.469 2.788 0.79 3.462l1.686 0.903-0.346 1.882c-0.258 1.404 0.788 2.715 2.214 2.776l1.911 0.082 0.505 1.843c0.379 1.387 1.898 2.102 3.2 1.542l1.756-0.755 1.255 1.441c0.932 1.073 2.62 1.074 3.552 0.001l1.255-1.443 1.756 0.755c1.301 0.56 2.821-0.155 3.2-1.541l0.504-1.844 1.911-0.082c1.428-0.061 2.472-1.372 2.214-2.777l-0.345-1.881 1.687-0.903c1.259-0.674 1.632-2.309 0.79-3.462l-1.128-1.545z"></path>
</svg>
