<?xml version="1.0" encoding="utf-8"?>
<!-- Generated by IcoMoon.io -->
<!DOCTYPE svg PUBLIC "-//W3C//DTD SVG 1.1//EN" "http://www.w3.org/Graphics/SVG/1.1/DTD/svg11.dtd">
<svg version="1.1" xmlns="http://www.w3.org/2000/svg" xmlns:xlink="http://www.w3.org/1999/xlink" width="32" height="32" viewBox="0 0 32 32">
<path fill="rgb(68, 68, 68)" d="M16 1.6c-5.488 0-9.936 4.464-9.936 9.952 0 0.048 0.048 4.528 3.744 9.296 0.512 0.672 0.624 2.24 0.576 3.072-0.016 0.32 0.096 0.64 0.32 0.88s0.544 0.368 0.864 0.368h8.896c0.336 0 0.656-0.144 0.864-0.368 0.224-0.24 0.336-0.576 0.32-0.896-0.048-0.704 0.016-2.384 0.528-3.056 3.712-4.784 3.76-9.264 3.76-9.312 0-5.472-4.448-9.936-9.936-9.936zM13.927 14.397c0.257-0.054 0.433-0.224 0.553-0.397 0.144 0.208 0.368 0.416 0.72 0.416s0.576-0.208 0.72-0.416c0.144 0.208 0.368 0.416 0.72 0.416 0.368 0 0.592-0.224 0.736-0.432 0.138 0.215 0.352 0.414 0.695 0.429l-1.020 8.387h-2.102l-1.022-8.403zM20.304 19.424c-0.72 0.96-0.944 2.352-1.008 3.376h-1.045l1.365-11.344-1.168-0.144-0.161 1.324c-0.062 0.060-0.115 0.127-0.159 0.196-0.144-0.224-0.368-0.432-0.736-0.432s-0.592 0.224-0.736 0.432c-0.144-0.224-0.368-0.432-0.736-0.432-0.352 0-0.576 0.208-0.72 0.416-0.144-0.208-0.368-0.416-0.72-0.416s-0.576 0.208-0.72 0.416c-0.009-0.013-0.020-0.027-0.030-0.040l-0.178-1.464-1.168 0.144 1.365 11.344h-1.013c-0.080-1.024-0.32-2.432-1.024-3.392-3.12-4.016-3.264-7.824-3.264-7.856 0-4.176 3.392-7.568 7.568-7.568s7.568 3.392 7.568 7.568c0 0.032-0.144 3.84-3.28 7.872z"></path>
<path fill="rgb(68, 68, 68)" d="M20.64 25.44h-9.28c-0.656 0-1.184 0.528-1.184 1.184s0.528 1.184 1.184 1.184h9.28c0.656 0 1.184-0.544 1.184-1.184 0-0.656-0.528-1.184-1.184-1.184z"></path>
<path fill="rgb(68, 68, 68)" d="M19.52 28.032h-7.040c-0.656 0-1.184 0.528-1.184 1.184s0.528 1.184 1.184 1.184h7.040c0.656 0 1.184-0.528 1.184-1.184s-0.528-1.184-1.184-1.184z"></path>
</svg>
