<?xml version="1.0" encoding="utf-8"?>
<!-- Generated by IcoMoon.io -->
<!DOCTYPE svg PUBLIC "-//W3C//DTD SVG 1.1//EN" "http://www.w3.org/Graphics/SVG/1.1/DTD/svg11.dtd">
<svg version="1.1" xmlns="http://www.w3.org/2000/svg" xmlns:xlink="http://www.w3.org/1999/xlink" width="32" height="32" viewBox="0 0 32 32">
<path fill="#000000" d="M27.576 3.843l-2.439-0.019c-2.439 0-6.717 0-9.098 3.078-0.194-0.232-0.407-0.484-0.678-0.755-0.561-0.581-1.258-1.045-2.033-1.374-1.2-0.503-2.497-0.794-4.084-0.91-1.142-0.077-2.304-0.058-3.446-0.039-0.465 0-0.929 0.019-1.394 0.019-1.394 0-2.536 1.142-2.536 2.536v17.209c-0.039 0.503 0.135 0.987 0.484 1.355s0.852 0.581 1.394 0.581v0c0 0 2.575-0.039 3.794-0.039 2.594 0 6.001 0.639 7.743 2.4 0.097 0.097 0.194 0.174 0.31 0.232s0.252 0.077 0.368 0.077c0 0 0 0 0 0s0 0 0 0c0.116 0 0.252-0.019 0.368-0.077 0.135-0.058 0.232-0.135 0.329-0.232 1.607-1.607 4.123-2.4 7.743-2.4 1.239 0 3.794 0.039 3.813 0.039 0.523 0 1.026-0.213 1.374-0.581s0.523-0.852 0.503-1.297v-17.267c0.039-1.394-1.103-2.536-2.516-2.536zM25.156 5.76l2.439 0.019c0.348 0 0.619 0.271 0.619 0.619l0.058 14.092c-0.329-0.407-0.736-0.716-1.22-1.026-0.252-0.155-0.581-0.29-0.948-0.445 0 0 0 0-0.019 0s-0.019-0.019-0.039-0.019c-0.639-0.252-1.355-0.542-1.51-1.026-0.058-0.194-0.039-0.426 0.077-0.716 0.077-0.194 0.174-0.387 0.329-0.619 0.039-0.058 0.077-0.135 0.116-0.194 1.026-1.723 1.2-3.039 0.503-4.239-0.561-0.968-1.529-1.355-2.594-1.355 0 0 0 0 0 0s0 0 0 0c-1.045 0-2.013 0.387-2.594 1.355-0.697 1.2-0.523 2.613 0.503 4.336 0.039 0.058 0.077 0.077 0.116 0.155 0.155 0.232 0.252 0.407 0.329 0.6 0.097 0.271 0.135 0.503 0.077 0.697-0.155 0.484-0.871 0.774-1.51 1.026-0.019 0-0.019 0-0.039 0.019 0 0 0 0-0.019 0-0.368 0.155-0.697 0.271-0.948 0.445-0.91 0.581-1.568 1.22-1.878 2.381v-12.776c1.239-2.768 4.046-3.329 8.15-3.329zM3.805 23.646v-17.267c0-0.348 0.271-0.619 0.619-0.619 0.465 0 0.948 0 1.432-0.019 1.084-0.019 2.187-0.039 3.271 0.039 1.374 0.097 2.478 0.348 3.465 0.755 0.561 0.232 1.026 0.561 1.413 0.948 0.639 0.658 0.987 1.2 1.026 1.374 0 0 0 0.019 0 0.019v16.415c-2.749-1.568-6.272-1.723-7.472-1.723s-3.697 0.039-3.755 0.077z"></path>
<path fill="#000000" d="M5.353 9.128v1.936h1.084c1.471 0 4.801 0.155 6.33 1.2v-2.091c-2.342-0.91-4.53-1.084-5.962-1.065l-1.452 0.019z"></path>
<path fill="#000000" d="M5.353 13.561v1.936h1.084c1.471 0 4.801 0.155 6.33 1.2v-2.071c-2.342-0.91-4.53-1.084-5.962-1.065h-1.452z"></path>
<path fill="#000000" d="M5.353 18.013v1.936h1.084c1.471 0 4.801 0.155 6.33 1.2v-2.071c-2.342-0.91-4.53-1.084-5.962-1.065h-1.452z"></path>
</svg>
