<?xml version="1.0" encoding="utf-8"?>
<!-- Generator: Adobe Illustrator 16.0.0, SVG Export Plug-In . SVG Version: 6.00 Build 0)  -->
<!DOCTYPE svg PUBLIC "-//W3C//DTD SVG 1.1//EN" "http://www.w3.org/Graphics/SVG/1.1/DTD/svg11.dtd">
<svg version="1.1" id="Layer_2" xmlns="http://www.w3.org/2000/svg" xmlns:xlink="http://www.w3.org/1999/xlink" x="0px" y="0px"
	 width="32px" height="32px" viewBox="0 0 32 32" enable-background="new 0 0 32 32" xml:space="preserve">
<g>
	<path d="M9.7,8.85c0,0.7-0.1,1.3-0.4,1.6c-0.3,0.3-0.8,0.5-1.5,0.5H6.5H6.3v-0.2v-3.9v-0.2h0.2h1.2c0.7,0,1.2,0.2,1.5,0.5
		C9.6,7.45,9.7,8.05,9.7,8.85 M13.8,8.85c0-2-0.5-3.5-1.4-4.3c-0.9-0.8-2.5-1.2-4.6-1.2h-5c-0.4,0-0.5,0.1-0.5,0.5v14.5
		c0,0.4,0.1,0.5,0.5,0.5h3c0.4,0,0.5-0.1,0.5-0.5v-4.1v-0.2h0.2h0.8h0.1v0.1l2,4.2c0.2,0.3,0.4,0.5,0.8,0.5h3c0.3,0,0.3-0.1,0.3-0.1
		c0-0.101,0-0.3-0.1-0.4l-2.2-4.7l-0.1-0.2l0.2-0.1h0.1C13,12.65,13.8,11.05,13.8,8.85 M20.2,18.35V3.85c0-0.4-0.1-0.5-0.5-0.5h-3
		c-0.4,0-0.5,0.1-0.5,0.5v14.5c0,0.4,0.1,0.5,0.5,0.5h3C20,18.85,20.2,18.75,20.2,18.35 M30.3,11.05c0,1.7-0.199,2.8-0.6,3.3
		c-0.4,0.6-1.1,0.9-2.1,0.9h-0.7h-0.2v-0.2v-8.1v-0.2h0.2h0.6c1,0,1.7,0.3,2.101,0.9C30.101,8.35,30.3,9.45,30.3,11.05 M32.8,17.149
		c1-1.2,1.601-3.2,1.601-6c0-2.8-0.5-4.9-1.601-6c-1-1.2-2.699-1.7-5.1-1.7h-4.4c-0.399,0-0.5,0.1-0.5,0.5v14.5
		c0,0.399,0.101,0.5,0.5,0.5h4.5C30,18.85,31.7,18.25,32.8,17.149 M40.7,18.35V3.85c0-0.4-0.1-0.5-0.5-0.5h-3
		c-0.4,0-0.5,0.1-0.5,0.5v14.5c0,0.4,0.1,0.5,0.5,0.5h3C40.601,18.85,40.7,18.75,40.7,18.35 M50.8,14.05c0,0.6-0.1,1-0.399,1.3
		c-0.3,0.3-0.7,0.4-1.4,0.4h-1.6h-0.2v-0.2v-3.1v-0.2h0.2H49c0.601,0,1.101,0.1,1.4,0.4C50.7,12.95,50.8,13.45,50.8,14.05
		 M50.5,7.95c0,0.5-0.1,0.9-0.399,1.2c-0.301,0.3-0.7,0.4-1.301,0.4H47.4h-0.2v-0.3v-2.7v-0.2h0.2H48.8c0.601,0,1,0.1,1.2,0.4
		C50.3,6.95,50.5,7.35,50.5,7.95 M52.4,10.65l-0.4-0.1l0.4-0.2l0.2-0.1c1.199-0.5,1.8-1.6,1.8-3.1s-0.4-2.5-1.3-3
		c-0.9-0.6-2.301-0.9-4.2-0.9h-5.2c-0.4,0-0.5,0.1-0.5,0.5v14.5c0,0.399,0.1,0.5,0.5,0.5h5.5c3.7,0,5.5-1.5,5.5-4.5
		c0-1-0.2-1.7-0.6-2.3c-0.4-0.6-0.9-1-1.601-1.2L52.4,10.65z M64.601,11.05c0,1.7-0.101,2.9-0.4,3.5c-0.3,0.7-0.9,1-1.6,1
		c-0.7,0-1.301-0.4-1.601-1s-0.399-1.8-0.399-3.5s0.1-2.9,0.399-3.5c0.3-0.7,0.8-1,1.601-1c0.699,0,1.3,0.4,1.6,1
		C64.4,8.15,64.601,9.35,64.601,11.05 M68.2,14.95c0.3-1.1,0.4-2.4,0.4-3.9s-0.101-2.8-0.4-3.9c-0.3-1-0.7-1.9-1.2-2.5
		s-1.2-1-1.899-1.3c-0.7-0.2-1.5-0.3-2.5-0.3S60.7,3.15,60,3.45c-0.7,0.3-1.3,0.7-1.899,1.3c-0.5,0.6-0.9,1.4-1.2,2.5
		c-0.3,1.1-0.4,2.4-0.4,3.9s0.101,2.8,0.4,3.9c0.3,1,0.7,1.9,1.2,2.5s1.199,1,1.899,1.3s1.601,0.4,2.601,0.4s1.899-0.101,2.6-0.4
		s1.3-0.7,1.9-1.3C67.601,16.85,68,16.05,68.2,14.95 M78.3,11.05c0,1.7-0.1,2.9-0.399,3.5c-0.3,0.7-0.9,1-1.601,1
		c-0.699,0-1.3-0.4-1.6-1s-0.4-1.8-0.4-3.5s0.101-2.9,0.4-3.5c0.3-0.7,0.8-1,1.6-1c0.7,0,1.301,0.4,1.601,1
		C78.101,8.15,78.3,9.35,78.3,11.05 M81.9,14.95c0.3-1.1,0.399-2.4,0.399-3.9s-0.1-2.8-0.399-3.9c-0.3-1-0.7-1.9-1.2-2.5
		s-1.2-1-1.9-1.3c-0.699-0.2-1.5-0.3-2.6-0.3c-1,0-1.9,0.1-2.6,0.4c-0.7,0.3-1.301,0.7-1.9,1.3c-0.5,0.6-0.9,1.4-1.2,2.5
		c-0.2,1-0.3,2.3-0.3,3.8s0.1,2.8,0.4,3.9c0.3,1,0.699,1.9,1.199,2.5c0.5,0.6,1.2,1,1.9,1.3c0.7,0.2,1.5,0.3,2.5,0.3
		s1.9-0.1,2.6-0.4c0.7-0.3,1.301-0.699,1.9-1.3C81.3,16.85,81.7,16.05,81.9,14.95 M96.2,18.649c0-0.1,0.1-0.199-0.1-0.399l-3.9-7.9
		v-0.1v-0.1l3.7-6.4c0.1-0.2,0.1-0.3,0.1-0.4c0,0-0.1-0.1-0.3-0.1h-3.2c-0.399,0-0.6,0.2-0.8,0.6l-2.8,5l-0.3,0.6v-0.7v-4.9
		c0-0.4-0.101-0.5-0.5-0.5h-3c-0.4,0-0.5,0.1-0.5,0.5v14.5c0,0.4,0.1,0.5,0.5,0.5h3c0.399,0,0.5-0.1,0.5-0.5v-6.2v-0.8l0.3,0.7
		l3,6.3c0.2,0.4,0.399,0.601,0.8,0.601h3.2C96.101,18.85,96.2,18.75,96.2,18.649 M107.7,14.55c0-0.7-0.1-1.2-0.2-1.7
		c-0.2-0.5-0.399-0.9-0.8-1.3s-0.8-0.7-1.1-0.9c-0.4-0.2-0.9-0.6-1.601-0.9c-1.399-0.7-2.1-1.4-2.1-2.1c0-0.5,0.3-0.8,0.5-0.9
		c0.3-0.1,0.7-0.2,1.3-0.2c0.9,0,1.7,0.1,2.4,0.4c0.1,0,0.199,0,0.3,0c0.2,0,0.3-0.1,0.399-0.4l0.4-2.1c0-0.2,0-0.5-0.4-0.7
		c-1-0.4-2.199-0.6-3.6-0.6c-1.8,0-3.2,0.3-4,1c-0.8,0.7-1.3,1.8-1.3,3.3c0,0.7,0.1,1.4,0.3,1.9s0.5,1,0.9,1.4
		c0.399,0.4,0.8,0.7,1.199,1c0.4,0.2,0.9,0.5,1.4,0.8c0.8,0.4,1.4,0.8,1.7,1c0.3,0.3,0.5,0.6,0.5,1c0,0.8-0.8,1.2-2.3,1.2
		c-0.9,0-1.801-0.2-2.601-0.5c-0.1,0-0.2-0.1-0.3-0.1s-0.2,0-0.3,0.4l-0.4,2.2c-0.1,0.3,0,0.399,0,0.399s0.101,0.2,0.4,0.301
		c1.2,0.5,2.6,0.699,4.3,0.699c1.6,0,2.9-0.399,3.9-1.1C107.2,17.25,107.7,16.05,107.7,14.55 M107.8,25.05v-1.7
		c0-0.399-0.1-0.5-0.5-0.5h-41c-2,0-4.1,0.101-6.5,0.5c-1.899,0.4-3.5,1.101-4.8,2.3l-0.1,0.101L54.8,25.649
		c-1.199-1.1-2.899-1.899-4.8-2.3c-2.399-0.399-6.399-0.5-6.5-0.5h-41c-0.4,0-0.5,0.101-0.5,0.5c0,0.4,0,1.3,0,1.7s0.1,0.5,0.5,0.5
		h41.3c0.9,0,4,0,5.7,0.4c2.7,0.6,4.101,2.6,4.4,3h2c0.3-0.4,1.7-2.4,4.399-3c1.7-0.4,4.7-0.4,6-0.4H107.4
		C107.7,25.55,107.8,25.45,107.8,25.05"/>
</g>
</svg>
