<?xml version="1.0" encoding="utf-8"?>
<!-- Generator: Adobe Illustrator 16.0.0, SVG Export Plug-In . SVG Version: 6.00 Build 0)  -->
<!DOCTYPE svg PUBLIC "-//W3C//DTD SVG 1.0//EN" "http://www.w3.org/TR/2001/REC-SVG-20010904/DTD/svg10.dtd">
<svg version="1.0" id="Layer_2" xmlns="http://www.w3.org/2000/svg" xmlns:xlink="http://www.w3.org/1999/xlink" x="0px" y="0px"
	 width="32px" height="32px" viewBox="0 0 32 32" enable-background="new 0 0 32 32" xml:space="preserve">
<g>
	<g>
		<path d="M-27.636,1.812h-10.438V30h2.38V4.01h7.808c3.716,0,6.137,2.493,6.137,6.043c0,3.507-2.421,6.043-6.137,6.043h-5.525
			l0.089,2.197h5.687c5.303,0,8.392-3.803,8.392-8.24S-22.292,1.812-27.636,1.812z M-9.915,1.812L-21.313,30h2.756l2.755-6.931
			h12.626l-0.859-2.197h-10.973L-8.412,4.39L1.692,30h2.756L-6.95,1.812H-9.915z M17.095,1.812H6.656V30h2.38V4.01h7.808
			c3.716,0,6.138,2.493,6.138,6.043c0,3.507-2.422,6.043-6.138,6.043h-5.489l0.022,2.197h5.717c5.302,0,8.392-3.803,8.392-8.24
			S22.438,1.812,17.095,1.812z M28.614,30h17.661v-2.198H30.994V16.645h14.989v-2.197H30.994V4.01h15.281V1.812H28.614V30z
			 M69.151,10.053c0-5.156-3.674-8.241-8.475-8.241H50.28V30h2.38V4.01h7.808c3.716,0,6.179,2.493,6.179,6.043
			s-2.463,6.086-6.179,6.086h-6.002l0.077,2.197h4.254L66.605,30h2.88l-8.057-11.833C65.603,17.998,69.151,15.167,69.151,10.053z
			 M83.965,10.84h-0.958l-2.426,10.936h6.289l0.165-0.854h-5.314L83.965,10.84z M88.77,21.776h0.858l1.766-7.919h-0.858
			L88.77,21.776z M91.443,11.315c-0.33,0-0.743,0.279-0.743,0.722c0,0.311,0.265,0.573,0.595,0.573c0.347,0,0.759-0.278,0.759-0.721
			C92.054,11.578,91.79,11.315,91.443,11.315z M95.587,11.692h-0.875l-0.479,2.165h-1.32l-0.166,0.754h1.32l-1.254,5.624
			c-0.05,0.147-0.066,0.344-0.066,0.426c0,0.902,0.611,1.312,1.602,1.312c0.462,0,0.842-0.164,1.139-0.378l-0.165-0.688
			c-0.198,0.147-0.528,0.295-0.842,0.295c-0.545,0-0.81-0.279-0.81-0.755c0-0.147,0.018-0.245,0.034-0.344l1.221-5.493h1.618
			l0.182-0.754h-1.617L95.587,11.692z M101.579,13.66c-2.477,0-4.425,2.181-4.425,4.82c0,2.065,1.403,3.492,3.797,3.492
			c1.04,0,2.063-0.426,2.773-0.968l-0.33-0.623c-0.693,0.574-1.602,0.853-2.409,0.853c-1.948,0-2.923-1.229-2.923-2.689
			c0-0.146,0.017-0.36,0.033-0.458h6.734c0.05-0.197,0.133-0.655,0.133-1C104.963,15.152,103.708,13.66,101.579,13.66z
			 M104.121,17.415h-5.942c0.28-1.624,1.699-3.017,3.301-3.017c1.717,0,2.657,1.115,2.657,2.657
			C104.137,17.152,104.137,17.333,104.121,17.415z M106.905,5.821H78.681c-1.841,0-3.34,1.488-3.34,3.317V23.32
			c0,1.829,1.499,3.317,3.34,3.317h28.225c1.842,0,3.341-1.488,3.341-3.317V9.139C110.246,7.31,108.747,5.821,106.905,5.821z
			 M109.704,23.32c0,1.533-1.256,2.779-2.799,2.779H78.681c-1.543,0-2.798-1.246-2.798-2.779V9.139c0-1.533,1.255-2.78,2.798-2.78
			h28.225c1.543,0,2.799,1.247,2.799,2.78V23.32z"/>
	</g>
</g>
</svg>
