<?xml version="1.0" encoding="utf-8"?>
<!-- Generator: Adobe Illustrator 16.0.0, SVG Export Plug-In . SVG Version: 6.00 Build 0)  -->
<!DOCTYPE svg PUBLIC "-//W3C//DTD SVG 1.1//EN" "http://www.w3.org/Graphics/SVG/1.1/DTD/svg11.dtd">
<svg version="1.1" id="Layer_1" xmlns="http://www.w3.org/2000/svg" xmlns:xlink="http://www.w3.org/1999/xlink" x="0px" y="0px"
	 width="32px" height="32px" viewBox="0 0 32 32" enable-background="new 0 0 32 32" xml:space="preserve">
<polygon fill="#231F20" points="-12.573,1.064 -24.601,30.536 -24.798,30.936 -21.229,30.936 -18.323,23.731 -4.775,23.731 
	-5.964,20.889 -17.264,20.889 -10.789,4.832 -0.413,30.738 -0.348,30.936 3.221,30.936 -9.004,1.064 "/>
<path fill="#231F20" d="M-23.08,9.92c0-5.219-3.767-8.855-9.119-8.855h-11.3V31h3.106V3.973h7.929c3.701,0,6.145,2.379,6.145,5.947
	c0,3.569-2.444,5.947-6.145,5.947h-6.145l0.131,2.909h6.278C-26.847,18.775-23.08,15.141-23.08,9.92z"/>
<polygon fill="#231F20" points="30.317,30.936 49.544,30.936 49.544,28.092 33.423,28.092 33.423,17.057 49.214,17.057 
	49.214,14.149 33.423,14.149 33.423,3.906 49.544,3.906 49.544,1.064 30.317,1.064 "/>
<path fill="#231F20" d="M17.296,1.064h-11.3V31h3.106V3.973h7.929c3.703,0,6.147,2.379,6.147,5.947c0,3.569-2.444,5.947-6.147,5.947
	h-6.078v2.909h6.343c5.354,0,9.117-3.634,9.117-8.855C26.413,4.701,22.65,1.064,17.296,1.064z"/>
<path fill="#231F20" d="M66.924,18.646c4.033-0.399,7.865-3.174,7.865-8.726c0-2.642-0.928-4.891-2.646-6.542
	C70.493,1.859,68.183,1,65.601,1H54.368v29.936h3.105V3.906h7.93c3.703,0,6.216,2.379,6.216,5.949c0,3.568-2.513,6.012-6.216,6.012
	h-6.606l0.133,2.909h4.622l8.196,12.092h3.767L66.924,18.646z"/>
</svg>
