<?xml version="1.0" encoding="utf-8"?>
<!-- Generator: Adobe Illustrator 16.0.0, SVG Export Plug-In . SVG Version: 6.00 Build 0)  -->
<!DOCTYPE svg PUBLIC "-//W3C//DTD SVG 1.1//EN" "http://www.w3.org/Graphics/SVG/1.1/DTD/svg11.dtd">
<svg version="1.1" id="Layer_2" xmlns="http://www.w3.org/2000/svg" xmlns:xlink="http://www.w3.org/1999/xlink" x="0px" y="0px"
	 width="32px" height="32px" viewBox="0 0 32 32" enable-background="new 0 0 32 32" xml:space="preserve">
<g>
	<path d="M14,12.35c0,1.2-0.2,2.101-0.7,2.601c-0.5,0.6-1.3,0.8-2.5,0.8h-2H8.5v-0.3v-6.3V8.85h0.3h2c1.2,0,2,0.301,2.5,0.801
		S14,11.05,14,12.35 M20.6,12.35c0-3.3-0.8-5.699-2.3-7c-1.5-1.3-4.1-2-7.5-2h-8C2.2,3.35,2,3.55,2,4.15V27.85
		c0,0.601,0.2,0.8,0.8,0.8h4.9c0.6,0,0.8-0.199,0.8-0.8v-6.6v-0.3h0.3h1.3h0.2l0.1,0.199l3.3,6.801c0.3,0.5,0.7,0.8,1.3,0.8h5
		c0.4,0,0.5-0.101,0.5-0.2c0.1-0.2,0-0.4-0.1-0.7l-4-7.5l-0.1-0.3l0.3-0.1L16.7,19.85C19.3,18.55,20.6,15.95,20.6,12.35 M31,27.85
		V4.15c0-0.601-0.2-0.801-0.8-0.801h-4.9c-0.6,0-0.8,0.2-0.8,0.801V27.85c0,0.601,0.2,0.8,0.8,0.8h4.9
		C30.8,28.649,31,28.45,31,27.85 M47.5,15.95c0,2.699-0.3,4.5-0.9,5.5c-0.699,1-1.8,1.5-3.399,1.5H42.1h-0.3v-0.301V9.25v-0.3h0.3h1
		c1.601,0,2.7,0.5,3.4,1.5S47.5,13.25,47.5,15.95 M51.6,25.75c1.7-1.9,2.601-5.2,2.601-9.8c0-4.601-0.9-7.9-2.601-9.8
		C49.9,4.25,47.1,3.35,43.4,3.35h-7.2c-0.601,0-0.8,0.2-0.8,0.801V27.85c0,0.601,0.199,0.8,0.8,0.8h7.3
		C47.1,28.649,49.9,27.649,51.6,25.75 M64.6,27.85V4.15c0-0.601-0.199-0.801-0.8-0.801H58.9c-0.7,0-0.9,0.2-0.9,0.801V27.85
		c0,0.601,0.2,0.8,0.8,0.8h4.9C64.4,28.649,64.6,28.45,64.6,27.85 M81,20.75c0,1-0.2,1.7-0.6,2.1c-0.4,0.5-1.2,0.7-2.2,0.7h-2.7
		h-0.3v-0.3v-5v-0.3h0.3h2.6c1,0,1.7,0.199,2.2,0.699S81,19.85,81,20.75 M80.4,10.85c0,0.9-0.2,1.5-0.7,1.9
		c-0.4,0.4-1.101,0.6-2,0.6h-2.3H75.1v-0.3V8.65V8.35H75.4h2.3c0.899,0,1.6,0.2,2,0.601C80.2,9.35,80.4,9.95,80.4,10.85 M83.6,15.25
		l-0.699-0.2l0.699-0.3l0.301-0.1c1.899-0.9,2.899-2.5,2.899-5c0-2.4-0.7-4-2-4.9c-1.399-0.9-3.7-1.4-6.8-1.4h-8.4
		c-0.6,0-0.8,0.2-0.8,0.801V27.85c0,0.601,0.2,0.8,0.8,0.8h9c6,0,8.9-2.399,8.9-7.399c0-1.601-0.3-2.8-1-3.8c-0.6-1-1.5-1.601-2.5-2
		L83.6,15.25z M103.4,15.95c0,2.8-0.2,4.8-0.7,5.8c-0.5,1.1-1.4,1.7-2.601,1.7c-1.199,0-2.1-0.601-2.6-1.7c-0.4-1-0.7-3-0.7-5.8
		s0.2-4.7,0.7-5.8c0.5-1.101,1.4-1.7,2.6-1.7c1.2,0,2.101,0.6,2.601,1.7C103.2,11.25,103.4,13.15,103.4,15.95 M109.4,22.35
		c0.399-1.7,0.699-3.899,0.699-6.3c0-2.5-0.199-4.6-0.699-6.3c-0.4-1.7-1.101-3-2-4c-0.9-1-1.9-1.7-3-2.1
		c-1.2-0.4-2.601-0.601-4.301-0.601c-1.6,0-3.1,0.2-4.3,0.601c-1.2,0.399-2.2,1.1-3,2.1c-0.899,1-1.5,2.3-2,4
		c-0.399,1.7-0.7,3.9-0.7,6.3c0,2.5,0.2,4.6,0.7,6.3c0.4,1.7,1.101,3,2,4c0.9,1,1.9,1.7,3,2.101c1.2,0.399,2.601,0.6,4.3,0.6
		c1.601,0,3.101-0.2,4.301-0.6c1.199-0.4,2.199-1.101,3-2.101C108.3,25.35,108.9,24.05,109.4,22.35 M125.7,15.95
		c0,2.8-0.2,4.8-0.7,5.8c-0.5,1.1-1.4,1.7-2.6,1.7c-1.2,0-2.101-0.601-2.601-1.7c-0.399-1-0.7-3-0.7-5.8s0.2-4.7,0.7-5.8
		c0.5-1.101,1.4-1.7,2.601-1.7c1.199,0,2.1,0.6,2.6,1.7C125.5,11.25,125.7,13.15,125.7,15.95 M131.7,22.35
		c0.399-1.7,0.7-3.899,0.7-6.3c0-2.5-0.2-4.6-0.7-6.3c-0.4-1.7-1.101-3-2-4c-0.9-1-1.9-1.7-3-2.1c-1.2-0.4-2.601-0.601-4.3-0.601
		c-1.601,0-3.101,0.2-4.301,0.601c-1.199,0.399-2.199,1.1-3,2.1c-0.899,1-1.5,2.3-2,4c-0.399,1.7-0.699,3.9-0.699,6.3
		c0,2.5,0.199,4.6,0.699,6.3c0.4,1.7,1.101,3,2,4c0.9,1,1.9,1.7,3,2.101c1.2,0.399,2.601,0.6,4.301,0.6c1.6,0,3.1-0.2,4.3-0.6
		c1.2-0.4,2.2-1.101,3-2.101C130.6,25.35,131.3,24.05,131.7,22.35 M155,28.35c0.1-0.1,0.1-0.3-0.1-0.7l-6.4-12.899l-0.1-0.1
		l0.1-0.101l6-10.399c0.2-0.4,0.2-0.601,0.1-0.7c0-0.101-0.1-0.2-0.5-0.2H149c-0.6,0-1,0.3-1.4,0.9l-4.5,8.1l-0.5,1v-1.1v-8
		c0-0.601-0.199-0.801-0.8-0.801H136.9c-0.601,0-0.801,0.2-0.801,0.801V27.85c0,0.601,0.2,0.8,0.801,0.8h4.899
		c0.601,0,0.8-0.199,0.8-0.8v-10.2v-1.3l0.601,1.2l4.899,10.2c0.301,0.6,0.7,0.899,1.301,0.899h5.199
		C154.8,28.649,154.9,28.55,155,28.35 M173.7,21.649c0-1.1-0.101-2-0.4-2.8s-0.7-1.5-1.3-2.1s-1.3-1.2-1.8-1.5
		c-0.601-0.4-1.5-0.9-2.601-1.5c-2.399-1.2-3.5-2.3-3.5-3.5c0-0.9,0.5-1.3,0.801-1.5c0.5-0.2,1.1-0.3,2-0.3c1.399,0,2.8,0.2,4,0.6
		c0.199,0,0.3,0.101,0.399,0.101c0.3,0,0.5-0.101,0.601-0.601l0.6-3.5c0.1-0.3,0-0.8-0.7-1.1c-1.6-0.601-3.6-1-5.899-1
		c-3,0-5.2,0.6-6.601,1.7c-1.399,1.1-2.1,2.899-2.1,5.399c0,1.2,0.2,2.2,0.5,3.2c0.3,0.9,0.8,1.7,1.399,2.3
		c0.601,0.601,1.301,1.2,1.9,1.6c0.6,0.4,1.4,0.801,2.3,1.301c1.3,0.699,2.2,1.3,2.7,1.6c0.5,0.5,0.8,1,0.8,1.6c0,1.301-1.3,2-3.8,2
		c-1.5,0-3-0.3-4.3-0.8c-0.2-0.1-0.4-0.1-0.5-0.1c-0.2,0-0.4,0-0.5,0.6l-0.601,3.5c-0.1,0.4,0,0.601,0,0.601
		c0.101,0.1,0.2,0.199,0.7,0.399c1.9,0.8,4.3,1.2,6.9,1.2c2.6,0,4.7-0.6,6.3-1.8C172.9,25.95,173.7,24.149,173.7,21.649"/>
</g>
</svg>
