<?xml version="1.0" encoding="utf-8"?>
<!-- Generated by IcoMoon.io -->
<!DOCTYPE svg PUBLIC "-//W3C//DTD SVG 1.1//EN" "http://www.w3.org/Graphics/SVG/1.1/DTD/svg11.dtd">
<svg version="1.1" xmlns="http://www.w3.org/2000/svg" xmlns:xlink="http://www.w3.org/1999/xlink" width="32" height="32" viewBox="0 0 32 32">
<path fill="#000000" d="M29.44 25.52v-13.44c-0.373 0.42-0.776 0.805-1.207 1.155-3.127 2.403-5.612 4.375-7.455 5.915-0.595 0.502-1.079 0.892-1.453 1.172s-0.878 0.563-1.514 0.849c-0.636 0.286-1.234 0.429-1.794 0.429l-0.018-0h-0.018c-0.56 0-1.158-0.143-1.794-0.429s-1.14-0.569-1.514-0.849c-0.373-0.28-0.858-0.671-1.453-1.172-1.844-1.54-4.328-3.512-7.455-5.915-0.431-0.35-0.834-0.735-1.207-1.155v13.44c0 0.151 0.055 0.283 0.166 0.394s0.242 0.166 0.394 0.166h25.76c0.151 0 0.283-0.055 0.394-0.166s0.166-0.242 0.166-0.394zM29.44 7.128v-0.429c0 0-0.003-0.076-0.009-0.228s-0.023-0.225-0.053-0.219c-0.029 0.006-0.061-0.047-0.096-0.157s-0.088-0.155-0.157-0.131c-0.070 0.023-0.152 0.009-0.245-0.044h-25.76c-0.151 0-0.283 0.055-0.394 0.166s-0.166 0.242-0.166 0.394c0 1.96 0.858 3.617 2.573 4.97 2.252 1.773 4.591 3.622 7.017 5.548 0.070 0.058 0.274 0.23 0.613 0.516s0.607 0.505 0.805 0.656c0.198 0.151 0.458 0.335 0.779 0.551s0.615 0.376 0.884 0.481c0.268 0.105 0.519 0.157 0.752 0.157l0.017 0h0.018c0.233 0 0.484-0.053 0.753-0.157s0.563-0.265 0.884-0.481 0.58-0.4 0.779-0.551 0.467-0.37 0.805-0.656c0.338-0.286 0.542-0.458 0.613-0.516 2.427-1.925 4.766-3.774 7.017-5.547 0.63-0.502 1.216-1.175 1.759-2.021s0.814-1.613 0.814-2.301zM31.68 6.48v19.040c0 0.77-0.274 1.429-0.823 1.978s-1.207 0.823-1.978 0.823h-25.76c-0.77 0-1.429-0.274-1.977-0.823s-0.823-1.208-0.823-1.978v-19.040c0-0.77 0.274-1.429 0.823-1.977s1.207-0.823 1.977-0.823h25.76c0.77 0 1.429 0.274 1.978 0.823s0.822 1.208 0.822 1.977z"></path>
</svg>
