<?xml version="1.0" encoding="utf-8"?>
<!-- Generated by IcoMoon.io -->
<!DOCTYPE svg PUBLIC "-//W3C//DTD SVG 1.1//EN" "http://www.w3.org/Graphics/SVG/1.1/DTD/svg11.dtd">
<svg version="1.1" xmlns="http://www.w3.org/2000/svg" xmlns:xlink="http://www.w3.org/1999/xlink" width="32" height="32" viewBox="0 0 32 32">
<path fill="#000000" d="M16 1.6c-5.383 0-9.746 4.363-9.746 9.746 0 1.726 0.451 3.347 1.238 4.753l5.636 12.024c0.305 1.305 1.473 2.277 2.871 2.277 1.396 0 2.563-0.97 2.87-2.274l5.64-12.031c0.786-1.405 1.236-3.024 1.236-4.749-0-5.383-4.364-9.746-9.746-9.746zM16 16.059c-2.603 0-4.713-2.111-4.713-4.713 0-2.603 2.11-4.713 4.713-4.713s4.713 2.109 4.713 4.713c0 2.602-2.111 4.713-4.713 4.713z"></path>
</svg>
