<?xml version="1.0" encoding="utf-8"?>
<!-- Generator: Adobe Illustrator 19.2.1, SVG Export Plug-In . SVG Version: 6.00 Build 0)  -->
<svg version="1.1" id="Layer_1" xmlns="http://www.w3.org/2000/svg" xmlns:xlink="http://www.w3.org/1999/xlink" x="0px" y="0px"
	 viewBox="0 0 32 32" style="enable-background:new 0 0 32 32;" xml:space="preserve">
<path d="M31,7.1H1c-0.6,0-1-0.4-1-1l0-1.6c0-0.6,0.4-1,1-1h30c0.6,0,1,0.4,1,1v1.6C32,6.7,31.6,7.1,31,7.1z"/>
<path d="M31,17.8H1c-0.6,0-1-0.4-1-1l0-1.6c0-0.6,0.4-1,1-1h30c0.6,0,1,0.4,1,1v1.6C32,17.3,31.6,17.8,31,17.8z"/>
<path d="M31,28.4H1c-0.6,0-1-0.4-1-1l0-1.6c0-0.6,0.4-1,1-1h30c0.6,0,1,0.4,1,1v1.6C32,28,31.6,28.4,31,28.4z"/>
</svg>
