<?xml version="1.0" encoding="utf-8"?>
<!-- Generated by IcoMoon.io -->
<!DOCTYPE svg PUBLIC "-//W3C//DTD SVG 1.1//EN" "http://www.w3.org/Graphics/SVG/1.1/DTD/svg11.dtd">
<svg version="1.1" xmlns="http://www.w3.org/2000/svg" xmlns:xlink="http://www.w3.org/1999/xlink" width="32" height="32" viewBox="0 0 32 32">
<path fill="#000000" d="M28.296 13.095h-24.591c-1.604 0-2.905 1.3-2.905 2.904s1.3 2.905 2.905 2.905h24.591c1.604 0 2.904-1.3 2.904-2.905s-1.3-2.904-2.904-2.904zM28.296 24.666h-24.591c-1.604 0-2.905 1.3-2.905 2.904s1.3 2.905 2.905 2.905h24.591c1.604 0 2.904-1.3 2.904-2.905s-1.3-2.904-2.904-2.904zM28.296 1.525h-24.591c-1.604 0-2.905 1.3-2.905 2.905s1.3 2.904 2.905 2.904h24.591c1.604 0 2.904-1.3 2.904-2.905s-1.3-2.904-2.904-2.904z"></path>
</svg>
