<?xml version="1.0" encoding="utf-8"?>
<!-- Generator: Adobe Illustrator 19.2.1, SVG Export Plug-In . SVG Version: 6.00 Build 0)  -->
<svg version="1.1" id="Layer_1" xmlns="http://www.w3.org/2000/svg" xmlns:xlink="http://www.w3.org/1999/xlink" x="0px" y="0px"
	 viewBox="0 0 32 32" style="enable-background:new 0 0 32 32;" xml:space="preserve">
<path d="M31,7.4H1c-0.6,0-1-0.4-1-1l0-2.2c0-0.6,0.4-1,1-1h30c0.6,0,1,0.4,1,1v2.2C32,7,31.6,7.4,31,7.4z"/>
<path d="M31,18.1H1c-0.6,0-1-0.4-1-1l0-2.2c0-0.6,0.4-1,1-1h30c0.6,0,1,0.4,1,1v2.2C32,17.7,31.6,18.1,31,18.1z"/>
<path d="M31,28.8H1c-0.6,0-1-0.4-1-1l0-2.2c0-0.6,0.4-1,1-1h30c0.6,0,1,0.4,1,1v2.2C32,28.3,31.6,28.8,31,28.8z"/>
</svg>
