<?xml version="1.0" encoding="utf-8"?>
<!-- Generated by IcoMoon.io -->
<!DOCTYPE svg PUBLIC "-//W3C//DTD SVG 1.1//EN" "http://www.w3.org/Graphics/SVG/1.1/DTD/svg11.dtd">
<svg version="1.1" xmlns="http://www.w3.org/2000/svg" xmlns:xlink="http://www.w3.org/1999/xlink" width="32" height="32" viewBox="0 0 32 32">
<path fill="#000000" d="M17.392 5.149c-4.226 0-7.748 3.622-7.748 7.681 0 3.522 2.482 5.602 5.367 5.602 0.403 0 1.074-0.168 1.811-0.502l2.047-0.974c-1.745 4.865-6.072 8.018-10.466 8.924l0.201 1.072c1.174 0 3.522-0.435 5.065-1.007 5.904-2.179 9.929-7.413 9.929-13.518 0-4.092-2.079-7.279-6.206-7.279zM17.024 6.423c2.382 0 2.817 3.12 2.817 4.898 0 1.878-0.302 3.421-0.637 4.36-0.503 0.336-1.443 0.638-2.147 0.638-2.382 0-3.589-1.846-3.589-4.428 0-2.65 1.409-5.468 3.556-5.468z"></path>
</svg>
