<?xml version="1.0" encoding="utf-8"?>
<!-- Generated by IcoMoon.io -->
<!DOCTYPE svg PUBLIC "-//W3C//DTD SVG 1.1//EN" "http://www.w3.org/Graphics/SVG/1.1/DTD/svg11.dtd">
<svg version="1.1" xmlns="http://www.w3.org/2000/svg" xmlns:xlink="http://www.w3.org/1999/xlink" width="32" height="32" viewBox="0 0 32 32">
<path fill="#000000" d="M11.96 9.375l0.805 0.772c1.040-1.208 2.282-2.483 4.025-2.483 1.644 0 2.684 0.939 2.684 2.65 0 2.75-3.321 4.093-6.106 4.898l0.168 1.039c0.402-0.1 1.073-0.201 1.744-0.201 2.047 0 3.758 1.442 3.758 4.127 0 3.185-1.611 4.964-3.858 4.964-2.18 0-3.623-1.442-4.461-2.315-0.268-0.235-0.537-0.235-0.839-0.033-0.503 0.335-1.040 0.972-1.073 1.509-0.034 0.504 0.134 0.939 0.804 1.511 0.704 0.637 2.113 1.14 3.489 1.14 1.61 0 4.059-0.737 6.071-2.079 2.348-1.578 3.79-3.557 3.79-5.972 0-2.549-1.845-4.193-4.059-4.763l0.034-0.067c1.14-0.603 1.912-1.073 2.751-1.744 0.771-0.604 1.509-1.51 1.509-2.885 0-2.65-2.213-4.194-4.797-4.194-2.046 0-3.589 0.839-4.662 1.913l-1.778 2.213z"></path>
</svg>
