<?xml version="1.0" encoding="utf-8"?>
<!-- Generated by IcoMoon.io -->
<!DOCTYPE svg PUBLIC "-//W3C//DTD SVG 1.1//EN" "http://www.w3.org/Graphics/SVG/1.1/DTD/svg11.dtd">
<svg version="1.1" xmlns="http://www.w3.org/2000/svg" xmlns:xlink="http://www.w3.org/1999/xlink" width="32" height="32" viewBox="0 0 32 32">
<path fill="#000000" d="M18.047 5.249c-3.69 0-6.81 2.583-6.81 5.972 0 2.146 1.241 3.487 2.717 4.661-1.14 0.672-2.65 1.61-3.556 2.315-1.174 0.907-1.878 2.013-1.878 3.455 0 3.422 2.951 5.3 6.407 5.3 4.025 0 7.816-2.717 7.816-6.372 0-2.483-1.61-3.958-3.723-5.502 1.744-1.074 2.348-1.543 2.851-1.912 0.939-0.771 1.61-1.878 1.61-3.086 0-3.12-2.616-4.831-5.434-4.831zM17.543 6.524c1.711 0 2.75 1.51 2.75 3.388 0 1.979-0.939 3.455-2.348 4.428-1.443-0.939-3.355-2.147-3.355-4.528 0-1.811 1.242-3.287 2.952-3.287zM15.497 25.678c-2.213 0-3.421-1.913-3.421-4.026 0-2.146 1.208-3.89 2.951-5.030 2.415 1.61 3.992 2.917 3.992 5.098 0 2.348-1.51 3.959-3.523 3.959z"></path>
</svg>
