<?xml version="1.0" encoding="utf-8"?>
<!-- Generated by IcoMoon.io -->
<!DOCTYPE svg PUBLIC "-//W3C//DTD SVG 1.1//EN" "http://www.w3.org/Graphics/SVG/1.1/DTD/svg11.dtd">
<svg version="1.1" xmlns="http://www.w3.org/2000/svg" xmlns:xlink="http://www.w3.org/1999/xlink" width="32" height="32" viewBox="0 0 32 32">
<path fill="#000000" d="M23.733 5.048c-1.241 0.201-3.053 0.503-4.697 1.040-7.078 2.213-11.003 7.748-11.003 13.787 0 4.092 2.382 7.077 6.34 7.077 4.461 0 7.949-3.69 7.949-7.983 0-3.623-2.247-5.837-5.434-5.837-0.637 0-1.341 0.268-1.98 0.571l-1.878 0.838-0.033-0.033c1.845-4.361 5.166-6.24 7.245-7.146 1.208-0.536 2.616-0.939 3.724-1.14l-0.235-1.174zM14.977 15.178c2.483 0 3.556 1.98 3.556 4.595 0 2.717-1.174 5.937-3.556 5.937-2.147 0-3.152-2.716-3.152-5.333 0-2.080 0.369-3.489 0.737-4.461 0.638-0.336 1.409-0.739 2.415-0.739z"></path>
</svg>
