<?xml version="1.0" encoding="utf-8"?>
<!-- Generated by IcoMoon.io -->
<!DOCTYPE svg PUBLIC "-//W3C//DTD SVG 1.1//EN" "http://www.w3.org/Graphics/SVG/1.1/DTD/svg11.dtd">
<svg version="1.1" xmlns="http://www.w3.org/2000/svg" xmlns:xlink="http://www.w3.org/1999/xlink" width="32" height="32" viewBox="0 0 32 32">
<path fill="#000000" d="M11.472 10.415l0.772 0.805c1.14-1.375 2.616-2.885 4.562-2.885 2.281 0 3.321 1.409 3.321 3.488 0 2.952-2.785 6.004-5.569 8.722-2.080 2.013-4.461 4.026-6.373 5.603l-0.135 0.804h13.117c0.57-1.544 1.174-3.22 1.878-4.796l-0.973-0.402c-1.275 1.844-1.677 2.046-3.623 2.046h-5.568l3.522-2.985c4.395-3.624 7.548-6.005 7.548-9.762 0-3.355-2.248-5.401-5.535-5.401-1.912 0-3.455 0.704-4.73 1.913l-2.214 2.85z"></path>
</svg>
