<?xml version="1.0" encoding="utf-8"?>
<!-- Generated by IcoMoon.io -->
<!DOCTYPE svg PUBLIC "-//W3C//DTD SVG 1.1//EN" "http://www.w3.org/Graphics/SVG/1.1/DTD/svg11.dtd">
<svg version="1.1" xmlns="http://www.w3.org/2000/svg" xmlns:xlink="http://www.w3.org/1999/xlink" width="32" height="32" viewBox="0 0 32 32">
<path fill="#000000" d="M12.368 5.249c-2.383 0.906-4.932 1.443-7.112 1.745l-0.235 0.973 1.040 0.034c1.845 0.066 2.113 0.336 1.711 2.414l-2.348 11.876c-0.571 2.716-0.772 2.95-3.589 3.22l-0.235 1.039h9.929l0.235-1.039c-3.052-0.269-3.187-0.537-2.684-3.22l3.288-17.042z"></path>
<path fill="#000000" d="M24.983 5.249c-6.005 0-9.024 7.581-9.293 12.713-0.369 4.629 0.94 8.99 5.469 8.99 6.004 0 8.856-7.581 9.191-13.015 0.336-4.328-0.939-8.688-5.367-8.688zM24.748 6.49c1.845 0 2.080 3.287 1.744 6.44-0.335 4.327-2.046 12.78-5.132 12.78-1.878 0-2.147-3.32-1.845-6.742 0.301-4.528 2.012-12.478 5.233-12.478z"></path>
</svg>
