<?xml version="1.0" encoding="utf-8"?>
<!-- Generated by IcoMoon.io -->
<!DOCTYPE svg PUBLIC "-//W3C//DTD SVG 1.1//EN" "http://www.w3.org/Graphics/SVG/1.1/DTD/svg11.dtd">
<svg version="1.1" xmlns="http://www.w3.org/2000/svg" xmlns:xlink="http://www.w3.org/1999/xlink" width="32" height="32" viewBox="0 0 32 32">
<path fill="#000000" d="M23.75 5.651h-10.131l-2.818 10.031 0.235 0.302c0.537-0.168 1.61-0.47 2.784-0.47 2.986 0 4.73 1.71 4.73 4.897 0 2.85-1.308 4.729-3.823 4.729-2.315 0-3.825-1.611-4.562-2.315-0.268-0.235-0.503-0.268-0.805-0.066-0.503 0.268-1.074 1.005-1.107 1.474-0.034 0.537 0.235 1.041 0.737 1.476 0.705 0.639 2.148 1.241 3.724 1.241 1.51 0 3.455-0.502 5.334-1.676 2.683-1.611 4.36-3.891 4.327-6.474 0-3.22-2.583-5.367-5.971-5.367-0.737 0-1.878 0.302-3.689 0.839l1.711-5.502h8.050l1.275-3.12z"></path>
</svg>
