<?xml version="1.0" encoding="utf-8"?>
<!-- Generated by IcoMoon.io -->
<!DOCTYPE svg PUBLIC "-//W3C//DTD SVG 1.1//EN" "http://www.w3.org/Graphics/SVG/1.1/DTD/svg11.dtd">
<svg version="1.1" xmlns="http://www.w3.org/2000/svg" xmlns:xlink="http://www.w3.org/1999/xlink" width="32" height="32" viewBox="0 0 32 32">
<path fill="#000000" d="M7.074 28.939c-1.988 0-3.619-1.031-4.069-2.569-0.281-0.994-0.056-2.063 0.638-3.019 0.675-0.938 1.744-1.669 3-2.025 0.563-0.169 1.125-0.244 1.688-0.244 0.413 0 0.825 0.037 1.219 0.131 0.037 0 0.075 0.019 0.113 0.019 0.113 0 0.244-0.037 0.338-0.113 0.131-0.113 0.206-0.263 0.206-0.431v-15.133c0-0.075 0.056-0.15 0.15-0.169l18.584-2.325c0.056 0 0.094 0.019 0.131 0.037 0.037 0.037 0.056 0.075 0.056 0.131v19.465c-0.019 0.056-0.037 0.094-0.037 0.15-0.094 1.763-1.631 3.413-3.732 4.032-0.563 0.169-1.125 0.244-1.706 0.244-1.988 0-3.619-1.031-4.069-2.569-0.281-0.994-0.056-2.063 0.638-3.019 0.675-0.956 1.744-1.669 3-2.025 0.563-0.169 1.125-0.244 1.688-0.244 0.413 0 0.844 0.056 1.238 0.131 0.037 0.019 0.075 0.019 0.113 0.019 0.113 0 0.244-0.037 0.338-0.113 0.131-0.113 0.206-0.263 0.206-0.431v-8.607c0-0.15-0.075-0.3-0.188-0.413-0.094-0.094-0.225-0.131-0.356-0.131-0.019 0-0.037 0-0.075 0l-13.202 1.65c-0.263 0.037-0.469 0.263-0.469 0.544v12.583c0 1.838-1.538 3.563-3.751 4.201-0.563 0.169-1.125 0.244-1.688 0.244v0z"></path>
</svg>
