<?xml version="1.0" encoding="utf-8"?>
<!-- Generator: Adobe Illustrator 19.1.0, SVG Export Plug-In . SVG Version: 6.00 Build 0)  -->
<svg version="1.1" id="Layer_1" xmlns="http://www.w3.org/2000/svg" xmlns:xlink="http://www.w3.org/1999/xlink" x="0px" y="0px"
	 viewBox="0 0 32 32" enable-background="new 0 0 32 32" xml:space="preserve">
<g>
	<g>
		<path fill="#3D4142" d="M19.7,17.8c2.7-1.5,4.6-4.5,4.6-7.8c0-4.9-4-9-9-9c-4.9,0-9,4-9,9c0,3.4,1.8,6.3,4.6,7.8
			c-4.4,1.7-7.6,6.1-7.6,11.1v2h2v-2c0-5.5,4.5-10,10-10c2.2,0,4.3,0.7,5.9,2h2.9C22.9,19.6,21.4,18.5,19.7,17.8z M8.3,10
			c0-3.8,3.1-7,7-7c3.8,0,7,3.1,7,7c0,3.8-3.1,7-7,7C11.4,17,8.3,13.9,8.3,10z"/>
	</g>
	<g>
		<path fill="#3D4142" d="M15.5,23.5h1.7l1.4,4.4c0.2,0.5,0.3,1.1,0.3,1.2h0c0-0.1,0.2-0.7,0.4-1.2l1.4-4.4h1.7l1,7.4h-1.8l-0.4-3.5
			c-0.1-0.5-0.1-1-0.1-1.1h0c0,0.1-0.1,0.6-0.3,1.1l-1.1,3.5H18l-1.1-3.5c-0.1-0.5-0.3-1-0.3-1.1h0c0,0.1,0,0.6-0.1,1.1l-0.4,3.5
			h-1.6L15.5,23.5z"/>
		<path fill="#3D4142" d="M26.1,28.1l-2.4-4.6h2l1.4,2.9h0l1.4-2.9h1.7l-2.4,4.6v2.8h-1.8V28.1z"/>
	</g>
</g>
</svg>
