<?xml version="1.0" encoding="utf-8"?>
<!-- Generator: Adobe Illustrator 16.0.0, SVG Export Plug-In . SVG Version: 6.00 Build 0)  -->
<!DOCTYPE svg PUBLIC "-//W3C//DTD SVG 1.1//EN" "http://www.w3.org/Graphics/SVG/1.1/DTD/svg11.dtd">
<svg version="1.1" id="Layer_1" xmlns="http://www.w3.org/2000/svg" xmlns:xlink="http://www.w3.org/1999/xlink" x="0px" y="0px"
	 width="32px" height="32px" viewBox="0.5 0.5 32 32" enable-background="new 0.5 0.5 32 32" xml:space="preserve">
<path d="M18.79,22.069l0.23,0.468l0.257-0.542l0.402-0.812h4.224c-0.457-0.387-0.954-0.746-1.498-1.09
	c-0.557-0.333-1.224-0.612-1.945-0.918c-1.361-0.528-2.893-1.14-3.227-2.169c-0.193-0.666,0.086-1.584,0.835-2.752
	c2.31-3.726,2.727-6.951,1.225-9.537c-1.17-2.002-3.143-3.197-5.339-3.197c-2.17,0-4.171,1.195-5.338,3.197
	c-1.502,2.586-1.085,5.812,1.251,9.537c0.751,1.168,1.028,2.086,0.806,2.752c-0.335,1.029-1.863,1.641-3.198,2.169
	C6.724,19.481,6.028,19.76,5.5,20.093c-1.975,1.251-3.421,2.643-3.976,5.255c-0.111,0.474,0.167,0.917,0.613,1.057
	c0.101,0.026,2.702,0.775,9.819,0.899l0.852-4.981l0.225-1.143h5.368l0.391,0.89H18.79z M20.758,23.2l-1.78,4.426l-1.68-4.426h-2.12
	l-1.405,8.279h2.14l0.692-4.766h0.022l1.899,4.766h0.855l1.987-4.766h0.021l0.605,4.766h2.151L22.895,23.2h-2.14H20.758z
	 M29.834,23.2l-1.548,2.251L26.738,23.2h-2.582l3.055,4.305v3.976h2.151v-3.976l3.055-4.305H29.834L29.834,23.2z"/>
</svg>
