<?xml version="1.0" encoding="utf-8"?>
<!-- Generated by IcoMoon.io -->
<!DOCTYPE svg PUBLIC "-//W3C//DTD SVG 1.1//EN" "http://www.w3.org/Graphics/SVG/1.1/DTD/svg11.dtd">
<svg version="1.1" xmlns="http://www.w3.org/2000/svg" xmlns:xlink="http://www.w3.org/1999/xlink" width="32" height="32" viewBox="0 0 32 32">
<path fill="#000000" d="M27.585 14.017l0.003-0.005-0-4.714h-1.765v0.677c-0.257-0.329-0.786-0.858-1.515-0.858-1.222 0-2.531 0.766-2.531 3.063 0 2.298 2.369 2.508 2.369 2.508s1.122 0.081 1.655-0.812c0.006 0.024 0.014 0.067 0.023 0.124v0.525c-0.076 0.479-0.417 1.011-1.604 0.855v1.682c0 0 2.185 0.024 2.855-1.187 0.547-0.992 0.514-1.522 0.514-1.852 0-0.002-0.003-0.005-0.003-0.006zM25.823 13.845h-0.006c0.002-0.003 0.003-0.006 0.006-0.009v0.009zM25.823 12.535c-0.209 0.378-0.603 0.636-1.060 0.636-0.674 0-1.222-0.557-1.222-1.246 0-0.688 0.547-1.246 1.222-1.246 0.457 0 0.85 0.26 1.060 0.638v1.219zM17.849 9.073h-0.015c-1.65 0-2.986 1.271-2.986 2.838s1.337 2.837 2.986 2.837h0.015c1.65 0 2.986-1.269 2.986-2.837s-1.336-2.838-2.986-2.838zM17.805 13.202c-0.674 0-1.22-0.558-1.22-1.246s0.546-1.246 1.22-1.246 1.222 0.558 1.222 1.246-0.547 1.246-1.222 1.246zM7.83 9.163c-0.717 0-1.239 0.509-1.5 0.838v-3.106h-1.766v7.702h1.766v-0.691c0.527 0.909 1.662 0.827 1.662 0.827s2.369-0.211 2.369-2.508c0-2.298-1.31-3.063-2.531-3.063zM7.374 13.217c-0.447 0-0.832-0.246-1.044-0.61v-1.272c0.213-0.364 0.598-0.61 1.044-0.61 0.674 0 1.22 0.558 1.22 1.246s-0.546 1.246-1.22 1.246zM10.949 6.67v1.832c0 0 0.249 0 0.573 0.3 0.283 0.263 0.307 1.101 0.309 1.306v4.476l1.765 0v-4.43h0.003c0 0-0.003-1.486-0.65-2.523s-2.001-0.96-2.001-0.96zM25.392 0.023h-18.784c-3.459 0-6.262 2.861-6.262 6.39v19.173c0 3.529 2.803 6.39 6.262 6.39h18.784c3.459 0 6.262-2.861 6.262-6.39l-0-19.173c0-3.529-2.803-6.39-6.262-6.39zM30.556 16.265c0 3.282-2.607 5.943-5.823 5.943h-5.218c-0.604 1.373-2.364 5.399-2.535 5.996-0.205 0.72-0.529 0.96-0.971 0.931-0.441-0.031-0.794-0.931-0.794-0.931l-2.655-5.996h-5.294c-3.216 0-5.823-2.661-5.823-5.943v-9.339c0-3.282 2.607-5.942 5.823-5.942h17.466c3.216 0 5.823 2.661 5.823 5.942v9.339z"></path>
</svg>
