<?xml version="1.0" encoding="utf-8"?>
<!-- Generated by IcoMoon.io -->
<!DOCTYPE svg PUBLIC "-//W3C//DTD SVG 1.1//EN" "http://www.w3.org/Graphics/SVG/1.1/DTD/svg11.dtd">
<svg version="1.1" xmlns="http://www.w3.org/2000/svg" xmlns:xlink="http://www.w3.org/1999/xlink" width="32" height="32" viewBox="0 0 32 32">
<path fill="#000000" d="M27.52 1.6h-23.040c-1.591 0-2.88 1.289-2.88 3.595v23.040c0 0.875 1.289 2.165 2.88 2.165h23.040c1.59 0 2.88-1.29 2.88-2.88v-23.040c0-1.591-1.289-2.88-2.88-2.88zM22.559 21.814c0 0.205-0.031 0.331-0.091 0.38s-0.228 0.073-0.502 0.073h-2.168c-0.183 0-0.304-0.014-0.365-0.041s-0.137-0.1-0.228-0.218l-6.593-8.516v8.387c0 0.172-0.023 0.28-0.069 0.323s-0.19 0.065-0.433 0.065l-2.076 0c-0.228 0-0.373-0.022-0.433-0.065s-0.091-0.151-0.091-0.323v-11.651c0-0.183 0.027-0.302 0.080-0.355s0.217-0.081 0.49-0.081h2.259c0.182 0 0.304 0.016 0.365 0.049s0.145 0.119 0.251 0.259l6.502 8.451 0-8.371c0-0.162 0.026-0.267 0.080-0.315s0.194-0.073 0.422-0.073h2.053c0.274 0 0.433 0.027 0.479 0.081s0.068 0.156 0.068 0.307l0 11.635z"></path>
</svg>
