<?xml version="1.0" encoding="utf-8"?>
<!-- Generated by IcoMoon.io -->
<!DOCTYPE svg PUBLIC "-//W3C//DTD SVG 1.1//EN" "http://www.w3.org/Graphics/SVG/1.1/DTD/svg11.dtd">
<svg version="1.1" xmlns="http://www.w3.org/2000/svg" xmlns:xlink="http://www.w3.org/1999/xlink" width="32" height="32" viewBox="0 0 32 32">
<path fill="#000000" d="M31.337 4.778c-0.005-0.087-0.029-0.171-0.044-0.257-0.013-0.079-0.021-0.159-0.037-0.236-0.005-0.012-0.013-0.027-0.018-0.044-0.039-0.142-0.086-0.285-0.146-0.419-0.026-0.059-0.060-0.109-0.091-0.161-0.044-0.090-0.086-0.181-0.14-0.267-0.445-0.677-1.159-1.172-2.006-1.302-0.148-0.021-0.297-0.033-0.445-0.033h-17.73c-1.624 0-2.953 1.33-2.953 2.951v1.937h2.271v-0.885h17.493v14.656h-1.019v2.271c0.529 0 1.938 0 1.938 0 1.623 0 2.951-1.328 2.951-2.951l0-15.027c0-0.080-0.015-0.152-0.023-0.232zM24.607 11.074c-0.016-0.077-0.021-0.156-0.039-0.232-0.005-0.016-0.013-0.031-0.018-0.044-0.039-0.143-0.086-0.285-0.143-0.419-0.026-0.060-0.063-0.109-0.091-0.165-0.044-0.090-0.088-0.18-0.143-0.266-0.443-0.678-1.159-1.171-2.006-1.301-0.146-0.022-0.297-0.033-0.448-0.033l-18.125-0c-1.623-0-2.953 1.326-2.953 2.952v15.422c0 0.078 0.017 0.151 0.023 0.229 0.006 0.088 0.029 0.174 0.043 0.261 0.015 0.078 0.021 0.156 0.040 0.232 0.005 0.023 0.016 0.042 0.019 0.063 0.039 0.138 0.086 0.274 0.142 0.404 0.035 0.078 0.079 0.148 0.121 0.221 0.038 0.070 0.071 0.14 0.113 0.209 0.443 0.677 1.159 1.172 2.004 1.3 0.144 0.023 18.572 0.036 18.572 0.036 1.625 0 2.953-1.328 2.953-2.953l0-15.422c0-0.081-0.015-0.156-0.021-0.234-0.007-0.086-0.028-0.171-0.044-0.258zM20.804 25.936h-16.029v-13.321h16.029v13.321z"></path>
</svg>
