<?xml version="1.0" encoding="utf-8"?>
<!-- Generated by IcoMoon.io -->
<!DOCTYPE svg PUBLIC "-//W3C//DTD SVG 1.1//EN" "http://www.w3.org/Graphics/SVG/1.1/DTD/svg11.dtd">
<svg version="1.1" xmlns="http://www.w3.org/2000/svg" xmlns:xlink="http://www.w3.org/1999/xlink" width="32" height="32" viewBox="0 0 32 32">
<path fill="#000000" d="M16 0.998c-8.289 0-15.002 6.713-15.002 15.002s6.713 15.002 15.002 15.002 15.002-6.713 15.002-15.002c0-8.289-6.713-15.002-15.002-15.002zM20.313 22.732h-3.188l-2.532-6.282c-0.356-0.881-0.694-2.307-0.694-2.307h-0.037c0 0-0.113 1.444-0.281 2.307l-1.219 6.282h-3.3l2.625-13.483h3.207l2.513 6.301c0.356 0.881 0.675 2.307 0.675 2.307h0.037c0 0 0.131-1.444 0.3-2.307l1.219-6.301h3.3l-2.625 13.483z"></path>
</svg>
