<?xml version="1.0" encoding="utf-8"?>
<!-- Generated by IcoMoon.io -->
<!DOCTYPE svg PUBLIC "-//W3C//DTD SVG 1.1//EN" "http://www.w3.org/Graphics/SVG/1.1/DTD/svg11.dtd">
<svg version="1.1" xmlns="http://www.w3.org/2000/svg" xmlns:xlink="http://www.w3.org/1999/xlink" width="32" height="32" viewBox="0 0 32 32">
<path fill="#000000" d="M25.083 9.642h-18.167c-3.488 0-6.358 2.87-6.358 6.358v0c0 3.488 2.87 6.358 6.358 6.358h18.167c3.488 0 6.358-2.87 6.358-6.358v0c0-3.488-2.87-6.358-6.358-6.358zM10.895 19.252h-1.544l-1.217-3.034c-0.163-0.418-0.327-1.108-0.327-1.108h-0.018c0 0-0.055 0.69-0.145 1.108l-0.581 3.034h-1.599l1.272-6.504h1.544l1.217 3.034c0.182 0.418 0.327 1.108 0.327 1.108v0c0 0 0.055-0.69 0.145-1.108l0.581-3.034h1.599l-1.253 6.504zM17.472 14.111h-2.471l-0.218 1.181h1.98l-0.273 1.363h-1.998l-0.236 1.235h2.616l-0.273 1.363h-4.196l1.272-6.504h4.069l-0.273 1.363zM24.411 19.252h-1.853l-0.182-3.288c0-0.254 0-0.509 0.018-0.763h-0.018c0 0-0.091 0.345-0.273 0.763l-1.453 3.288h-1.835l-0.418-6.504h1.653l0.091 4.069c0.018 0.4-0.018 0.69-0.018 0.69h0.018c0 0 0.073-0.273 0.236-0.69l1.78-4.069h1.326l0.182 4.069c0.018 0.309-0.018 0.69-0.018 0.69h0.018c0 0 0.073-0.327 0.218-0.69l1.635-4.069h1.744l-2.852 6.504z"></path>
</svg>
