<?xml version="1.0" encoding="utf-8"?>
<!-- Generated by IcoMoon.io -->
<!DOCTYPE svg PUBLIC "-//W3C//DTD SVG 1.1//EN" "http://www.w3.org/Graphics/SVG/1.1/DTD/svg11.dtd">
<svg version="1.1" xmlns="http://www.w3.org/2000/svg" xmlns:xlink="http://www.w3.org/1999/xlink" width="32" height="32" viewBox="0 0 32 32">
<path fill="rgb(68, 68, 68)" d="M16 31.847c-8.75 0-15.847-7.097-15.847-15.847s7.097-15.847 15.847-15.847 15.847 7.094 15.847 15.847-7.097 15.847-15.847 15.847zM12.809 8.294h-2.334c-0.309 2.213-2.191 2.916-4.237 2.872v2.213h3.638v9.384h2.934v-14.469zM20.141 8.003c-3.019 0-5.066 2.334-5.066 5.291 0 1.137 0.35 2.334 1.116 3.225 0.828 0.909 2.087 1.488 3.328 1.488 1.406 0 2.459-0.475 3.266-1.613l0.041 0.041c-0.081 1.613-0.641 4.403-2.769 4.403-1.012 0-1.756-0.828-1.944-1.797h-2.791c0.331 2.544 2.191 4.009 4.691 4.009 4.113 0 5.684-4.031 5.684-7.566 0.003-3.656-1.175-7.481-5.556-7.481zM20.225 15.797c-1.509 0-2.212-1.366-2.212-2.728 0-1.303 0.806-2.647 2.212-2.647 1.469 0 2.334 1.344 2.334 2.688 0 1.425-0.766 2.688-2.334 2.688z"></path>
</svg>
