<?xml version="1.0" encoding="utf-8"?>
<!-- Generated by IcoMoon.io -->
<!DOCTYPE svg PUBLIC "-//W3C//DTD SVG 1.1//EN" "http://www.w3.org/Graphics/SVG/1.1/DTD/svg11.dtd">
<svg version="1.1" xmlns="http://www.w3.org/2000/svg" xmlns:xlink="http://www.w3.org/1999/xlink" width="32" height="32" viewBox="0 0 32 32">
<path fill="#000000" d="M13.331 18.085c-0.973-0.918-2.099-1.376-3.378-1.376-0.611 0-0.987-0.11-1.124-0.334-0.14-0.22-0.098-0.721 0.124-1.5 0.334-1.445 1.055-2.722 2.168-3.836 1.112-1.112 2.474-2.001 4.086-2.669l-1.501-3.084c-1.448 0.556-2.81 1.307-4.086 2.252-1.281 0.945-2.392 2.042-3.337 3.294-0.945 1.25-1.696 2.641-2.252 4.17s-0.833 3.125-0.833 4.793c0 1.948 0.542 3.587 1.625 4.921 1.085 1.333 2.516 2.001 4.296 2.001 1.777 0 3.168-0.513 4.17-1.543 1-1.028 1.5-2.264 1.5-3.709 0-1.336-0.487-2.461-1.46-3.378zM26.925 18.085c-0.975-0.918-2.099-1.376-3.378-1.376-0.668 0-1.071-0.11-1.209-0.334-0.14-0.22-0.098-0.721 0.124-1.5 0.389-1.445 1.14-2.722 2.252-3.836 1.112-1.112 2.474-2.001 4.086-2.669l-1.501-3.084c-1.448 0.556-2.808 1.307-4.086 2.252-1.28 0.945-2.392 2.042-3.337 3.294-0.944 1.25-1.696 2.641-2.25 4.17-0.558 1.529-0.835 3.125-0.835 4.793 0 1.948 0.528 3.587 1.584 4.921s2.474 2.001 4.253 2.001c1.779 0 3.182-0.513 4.212-1.543 1.028-1.028 1.541-2.264 1.541-3.709 0-1.335-0.486-2.461-1.458-3.377z"></path>
</svg>
