<?xml version="1.0" encoding="utf-8"?>
<!-- Generated by IcoMoon.io -->
<!DOCTYPE svg PUBLIC "-//W3C//DTD SVG 1.1//EN" "http://www.w3.org/Graphics/SVG/1.1/DTD/svg11.dtd">
<svg version="1.1" xmlns="http://www.w3.org/2000/svg" xmlns:xlink="http://www.w3.org/1999/xlink" width="32" height="32" viewBox="0 0 32 32">
<path fill="rgb(68, 68, 68)" d="M16 3.281c-8.609 0-15.591 5.766-15.591 12.872 0 7.109 6.978 12.872 15.591 12.872 1.281 0 2.528-0.128 3.719-0.369 1.006-0.203 1.381-1.181 0.869-2.069l-1.941-3.381c-1.028-1.791-0.188-3.244 1.878-3.244h8.509c1.025 0 2.169-0.778 2.359-1.788 0.125-0.659 0.191-1.334 0.191-2.022 0.006-7.106-6.975-12.872-15.584-12.872zM5.481 18.031c-1.456 0-2.638-0.841-2.638-1.878s1.181-1.878 2.638-1.878c1.456 0 2.638 0.841 2.638 1.878s-1.181 1.878-2.638 1.878zM7.872 11.406c-1.031-1.031-1.272-2.459-0.537-3.191 0.734-0.734 2.163-0.494 3.191 0.537 1.031 1.031 1.269 2.459 0.537 3.191-0.731 0.734-2.159 0.494-3.191-0.537zM17.119 24.956c-0.15 1.222-1.666 2.047-3.384 1.837s-2.994-1.372-2.844-2.597c0.15-1.225 1.666-2.047 3.384-1.837s2.991 1.372 2.844 2.597zM16 10.191c-1.037 0-1.878-1.181-1.878-2.638s0.841-2.638 1.878-2.638c1.038 0 1.878 1.181 1.878 2.638s-0.841 2.638-1.878 2.638zM20.934 11.944c-0.734-0.734-0.494-2.162 0.538-3.191 1.031-1.031 2.459-1.272 3.191-0.537 0.734 0.734 0.494 2.162-0.538 3.191-1.028 1.031-2.456 1.272-3.191 0.537zM26.519 18.031c-1.456 0-2.637-0.841-2.637-1.878s1.181-1.878 2.637-1.878c1.456 0 2.637 0.841 2.637 1.878s-1.181 1.878-2.637 1.878z"></path>
</svg>
