<?xml version="1.0" encoding="utf-8"?>
<!-- Generator: Adobe Illustrator 18.1.1, SVG Export Plug-In . SVG Version: 6.00 Build 0)  -->
<svg version="1.1" id="Layer_1" xmlns="http://www.w3.org/2000/svg" xmlns:xlink="http://www.w3.org/1999/xlink" x="0px" y="0px"
	 viewBox="0 0 32 32" enable-background="new 0 0 32 32" xml:space="preserve">
<g>
	<path fill="#231F20" d="M27.7,2c0.1,0.4,0.2,0.9,0.2,1.4v25.3c0,0.9-0.3,1.7-0.7,2.3h0.1c1.3,0,2.3-1.1,2.3-2.3V4.3
		C29.6,3.1,28.8,2.2,27.7,2z"/>
	<path fill="#231F20" d="M24.5,1H6.7C5.4,1,4.4,2.1,4.4,3.3v25.3c0,1.3,1.1,2.3,2.3,2.3h3.6h14.2c1.3,0,2.3-1.1,2.3-2.3V3.3
		c0-0.5-0.2-1-0.5-1.4C26,1.4,25.3,1,24.5,1z M19.8,27.3h-8.4v-1.9h8.4V27.3z"/>
</g>
</svg>
