<?xml version="1.0" encoding="utf-8"?>
<!-- Generator: Adobe Illustrator 16.0.4, SVG Export Plug-In . SVG Version: 6.00 Build 0)  -->
<!DOCTYPE svg PUBLIC "-//W3C//DTD SVG 1.1//EN" "http://www.w3.org/Graphics/SVG/1.1/DTD/svg11.dtd">
<svg version="1.1" id="Layer_2" xmlns="http://www.w3.org/2000/svg" xmlns:xlink="http://www.w3.org/1999/xlink" x="0px" y="0px"
	 width="300px" height="300px" viewBox="0 0 300 300" enable-background="new 0 0 300 300" xml:space="preserve">
<path d="M241.471,10H58.529c-5.804,0-10.508,4.708-10.508,10.508v258.986c0,5.803,4.708,10.506,10.508,10.506h182.941
	c5.807,0,10.508-4.709,10.508-10.506V20.508C251.979,14.708,247.277,10,241.471,10z M58.925,190.226c0,2.306-1.882,4.186-4.19,4.186
	h-2.529c-0.766,0-1.392-0.619-1.392-1.389c0-0.765,0.622-1.389,1.392-1.389h2.524c0.778,0,1.412-0.636,1.412-1.419v-80.432
	c0-0.779-0.634-1.415-1.412-1.415h-2.524c-0.766,0-1.392-0.621-1.392-1.391c0-0.765,0.622-1.391,1.392-1.391h2.524
	c2.31,0,4.191,1.88,4.191,4.192v80.447H58.925z M233.434,257.901H66.564V36.22h166.879v221.681H233.434z M245.064,191.634h2.453
	c0.764,0,1.393,0.624,1.393,1.393c0,0.766-0.625,1.394-1.393,1.394h-2.453c-2.311,0-4.195-1.88-4.195-4.194v-80.443
	c0-2.312,1.885-4.192,4.195-4.192h2.453c0.764,0,1.393,0.622,1.393,1.392c0,0.764-0.625,1.39-1.393,1.39h-2.453
	c-0.781,0-1.42,0.634-1.42,1.415v80.438C243.645,191.002,244.283,191.634,245.064,191.634z"/>
</svg>
