<?xml version="1.0" encoding="utf-8"?>
<!-- Generator: Adobe Illustrator 19.2.0, SVG Export Plug-In . SVG Version: 6.00 Build 0)  -->
<svg version="1.1" id="Layer_1" xmlns="http://www.w3.org/2000/svg" xmlns:xlink="http://www.w3.org/1999/xlink" x="0px" y="0px"
	 viewBox="0 0 42 32" enable-background="new 0 0 42 32" xml:space="preserve">
<g>
	<path d="M39.3,7.3h-2.7V1.9c0-0.5-0.4-0.9-0.9-0.9H1.8C1.3,1,0.9,1.4,0.9,1.9V26c0,0.5,0.4,0.9,0.9,0.9H14v2h-2.9
		c-0.5,0-0.8,0.4-0.8,0.8V31h16.8v-1.3c0-0.5-0.4-0.8-0.8-0.8h-2.8v-2h5.8v2c0,1,0.8,1.8,1.8,1.8h8.3c1,0,1.8-0.8,1.8-1.8V9.1
		C41.1,8.1,40.3,7.3,39.3,7.3L39.3,7.3z M29.2,9.1v12.1H3.1V3.1h31.2v4.2H31C30,7.3,29.2,8.1,29.2,9.1L29.2,9.1z M35.1,29.3
		c-0.6,0-1-0.5-1-1s0.5-1,1-1s1,0.5,1,1C36.2,28.9,35.7,29.3,35.1,29.3z M39.7,26.2h-9V10.9h9V26.2z"/>
	<g>
		<path d="M21.7,12.5c-0.2,1-0.4,1.9-0.7,2.9h-1.6c-0.2-0.9-0.3-1.9-0.5-2.9h-0.5c-0.2,0.9-0.4,1.9-0.6,2.9h-1.6
			c-0.2-1-0.4-1.9-0.6-2.9h-1v-1.1h0.8C15.3,10.6,15.2,9.8,15,9h1.5c0.1,0.8,0.3,1.6,0.4,2.3h0.8c0.2-0.8,0.3-1.6,0.4-2.3h1.5
			c0.1,0.8,0.3,1.6,0.4,2.3h0.8c0.1-0.8,0.3-1.6,0.4-2.3h1.4c-0.2,0.8-0.4,1.6-0.5,2.3h0.8v1.1H21.7z M17.4,12.5H17
			c0.1,0.6,0.2,1,0.2,1.5C17.2,13.5,17.3,13,17.4,12.5z M18.8,11.3l0-0.6c0,0.2,0,0.4-0.1,0.6H18.8z M20.5,12.5h-0.4
			c0.1,0.5,0.1,1,0.2,1.5C20.3,13.5,20.4,13,20.5,12.5z"/>
	</g>
	<g>
		<path d="M37.1,18.7c-0.1,0.6-0.3,1.2-0.4,1.8h-1c-0.1-0.6-0.2-1.2-0.3-1.8h-0.3c-0.1,0.6-0.3,1.2-0.4,1.8h-1
			c-0.1-0.6-0.3-1.2-0.4-1.8h-0.6V18h0.5c-0.1-0.5-0.2-1-0.3-1.5h0.9c0.1,0.5,0.2,1,0.2,1.5h0.5c0.1-0.5,0.2-1,0.3-1.5h0.9
			c0.1,0.5,0.2,1,0.2,1.5h0.5c0.1-0.5,0.2-1,0.3-1.5h0.9c-0.1,0.5-0.2,1-0.3,1.5h0.5v0.7H37.1z M34.4,18.7h-0.2
			c0.1,0.4,0.1,0.7,0.1,0.9C34.3,19.4,34.3,19.1,34.4,18.7z M35.3,18l0-0.4C35.2,17.7,35.2,17.9,35.3,18L35.3,18z M36.3,18.7h-0.2
			c0.1,0.3,0.1,0.6,0.1,0.9C36.2,19.3,36.3,19,36.3,18.7z"/>
	</g>
</g>
</svg>
