<?xml version="1.0" encoding="utf-8"?>
<!-- Generator: Adobe Illustrator 19.2.1, SVG Export Plug-In . SVG Version: 6.00 Build 0)  -->
<svg version="1.1" id="Layer_1" xmlns="http://www.w3.org/2000/svg" xmlns:xlink="http://www.w3.org/1999/xlink" x="0px" y="0px"
	 viewBox="0 0 32 32" style="enable-background:new 0 0 32 32;" xml:space="preserve">
<path d="M28.1,4.6H3.9C2.3,4.6,1,5.9,1,7.5v1.1h30V7.5C31,5.9,29.7,4.6,28.1,4.6z"/>
<path d="M1,23.5c0,1.6,1.3,2.9,2.9,2.9h24.2c1.6,0,2.9-1.3,2.9-2.9V11.7H1V23.5z M5,17.3c0-0.3,0.3-0.6,0.6-0.6h4.5
	c0.3,0,0.6,0.3,0.6,0.6v4.5c0,0.3-0.3,0.6-0.6,0.6H5.6c-0.3,0-0.6-0.3-0.6-0.6V17.3z"/>
</svg>
