<?xml version="1.0" encoding="utf-8"?>
<!-- Generator: Adobe Illustrator 19.2.1, SVG Export Plug-In . SVG Version: 6.00 Build 0)  -->
<svg version="1.1" id="Layer_1" xmlns="http://www.w3.org/2000/svg" xmlns:xlink="http://www.w3.org/1999/xlink" x="0px" y="0px"
	 viewBox="0 0 32 32" style="enable-background:new 0 0 32 32;" xml:space="preserve">
<g>
	<line x1="56.9" y1="11.1" x2="56.9" y2="12.7"/>
	<line x1="60.9" y1="12.7" x2="60.9" y2="11.1"/>
	<path d="M-25,1.1c-1.4,0-2.8,0.4-3.9,1.1V1h-4v23.1h4v-8.9c1.1,0.7,2.5,1.1,3.9,1.1c4.2,0,7.6-3.4,7.6-7.6S-20.8,1.1-25,1.1z
		 M-25,12.3c-2,0-3.6-1.6-3.6-3.6c0-2,1.6-3.6,3.6-3.6c2,0,3.6,1.6,3.6,3.6C-21.4,10.7-23,12.3-25,12.3z"/>
	<path d="M35.7,8.3c-4.2,0-7.6,3.4-7.6,7.6s3.4,7.6,7.6,7.6s7.6-3.4,7.6-7.6S39.9,8.3,35.7,8.3z M35.7,19.5c-2,0-3.6-1.6-3.6-3.6
		c0-2,1.6-3.6,3.6-3.6c2,0,3.6,1.6,3.6,3.6C39.3,17.9,37.7,19.5,35.7,19.5z"/>
	<path d="M-2.8,17.6V8.4h-4v1c-1.1-0.7-2.4-1.1-3.9-1.1c-4.2,0-7.6,3.4-7.6,7.6s3.4,7.6,7.6,7.6c1.8,0,3.5-0.7,4.8-1.7
		c0.4,0.9,1,1.7,1.8,2.4l2.6-3.1C-2.5,20.2-2.7,18.2-2.8,17.6z M-10.6,19.5c-2,0-3.6-1.6-3.6-3.6c0-2,1.6-3.6,3.6-3.6
		c2,0,3.6,1.6,3.6,3.6C-7,17.9-8.6,19.5-10.6,19.5z"/>
	<path d="M12.2,8.1h-4v8.1c0,0.9-0.2,3.8-2.8,3.8s-2.8-2.9-2.8-3.8V8.1h-4v8.1c0,4.6,2.8,7.8,6.8,7.8c1,0,2-0.2,2.8-0.6v1.1
		c0,0.8-0.1,1.7-0.7,2.1c-0.9,0.6-2.6,0.1-3.8-0.4l-2.4,3.3C1.6,29.8,4,31,6.2,31c1.2,0,2.4-0.2,3.5-0.9c1.1-0.7,2.5-2.3,2.5-5.5V16
		h0V8.1z"/>
	<rect x="60.9" y="8.5" width="4" height="1.6"/>
	<rect x="44.9" y="8.5" width="4" height="1.6"/>
	<rect x="52.9" y="8.5" width="4" height="1.6"/>
	<rect x="60.9" y="11.1" width="4" height="1.6"/>
	<rect x="52.9" y="11.1" width="4" height="1.6"/>
	<path d="M60.9,16.2c0,1.4-0.4,3.8-2,3.8c-1.6,0-2-2.4-2-3.8v-2.5h-4v2.5c0,1.4-0.4,3.8-2,3.8s-2-2.4-2-3.8v-2.5h-4v2.5
		c0,4.7,2.4,7.8,6,7.8c1.6,0,3-0.6,4-1.8c1,1.1,2.4,1.8,4,1.8c3.6,0,6-3.1,6-7.8v-2.5h-4V16.2z"/>
	<rect x="44.9" y="11.1" width="4" height="1.6"/>
	<path d="M20.1,8.1c-4,0-6.8,3.2-6.8,7.8v8.1h4v-8.1c0-0.9,0.2-3.8,2.8-3.8s2.8,2.9,2.8,3.8v8.1h4v-8.1C26.9,11.3,24.1,8.1,20.1,8.1
		z"/>
</g>
</svg>
