<?xml version="1.0" encoding="utf-8"?>
<!-- Generated by IcoMoon.io -->
<!DOCTYPE svg PUBLIC "-//W3C//DTD SVG 1.1//EN" "http://www.w3.org/Graphics/SVG/1.1/DTD/svg11.dtd">
<svg version="1.1" xmlns="http://www.w3.org/2000/svg" xmlns:xlink="http://www.w3.org/1999/xlink" width="32" height="32" viewBox="0 0 32 32">
<path fill="#000000" d="M25.572 20.013h-11.938l-4.776 3.829h3.314v3.829l-5.743 0v3.829h17.23v-3.829h-5.743v-3.829h11.487v-17.224l-3.829 3.055 0 10.34zM4.513 6.786h12.843l4.775-3.829-21.447-0v16.183l3.829-3.055v-9.299zM31.322 1.819l-0.576-0.732c-0.547-0.698-1.555-0.82-2.255-0.272l-27.539 21.914c-0.698 0.547-0.819 1.555-0.272 2.255l0.575 0.733c0.548 0.698 1.558 0.819 2.255 0.272l27.541-21.915c0.698-0.548 0.819-1.557 0.272-2.256z"></path>
</svg>
