<?xml version="1.0" encoding="utf-8"?>
<!-- Generated by IcoMoon.io -->
<!DOCTYPE svg PUBLIC "-//W3C//DTD SVG 1.1//EN" "http://www.w3.org/Graphics/SVG/1.1/DTD/svg11.dtd">
<svg version="1.1" xmlns="http://www.w3.org/2000/svg" xmlns:xlink="http://www.w3.org/1999/xlink" width="32" height="32" viewBox="0 0 32 32">
<path fill="rgb(68, 68, 68)" d="M29.168 9.376c0-0.336-0.128-0.64-0.368-0.88l-5.92-5.92c-0.24-0.24-0.544-0.368-0.88-0.368s-0.64 0.128-0.88 0.368l-18.784 18.8c-0.224 0.208-0.352 0.496-0.368 0.8l-0.368 6.304c-0.016 0.352 0.112 0.688 0.368 0.944 0.24 0.24 0.544 0.368 0.88 0.368 0.016 0 0.048-0.016 0.064 0l6.304-0.368c0.304-0.032 0.592-0.16 0.8-0.368l18.784-18.8c0.24-0.24 0.368-0.544 0.368-0.88zM8.592 26.96l-2.811 0.162c-0.206-0.767-0.767-1.341-1.525-1.564l0.16-2.775 14.535-14.521 1.209 1.209-13.888 13.872c-0.48 0.496-0.48 1.28 0 1.76 0.24 0.24 0.56 0.368 0.88 0.368s0.64-0.128 0.88-0.368l13.888-13.872 1.207 1.207-14.535 14.521zM24.887 10.679l-4.176-4.176 1.289-1.287 4.176 4.176-1.289 1.287z"></path>
<path fill="rgb(68, 68, 68)" d="M29.152 27.088h-13.856c-0.688 0-1.248 0.56-1.248 1.248s0.56 1.248 1.248 1.248h13.856c0.688 0 1.248-0.56 1.248-1.248s-0.56-1.248-1.248-1.248z"></path>
</svg>
