<?xml version="1.0" encoding="utf-8"?>
<!-- Generated by IcoMoon.io -->
<!DOCTYPE svg PUBLIC "-//W3C//DTD SVG 1.1//EN" "http://www.w3.org/Graphics/SVG/1.1/DTD/svg11.dtd">
<svg version="1.1" xmlns="http://www.w3.org/2000/svg" xmlns:xlink="http://www.w3.org/1999/xlink" width="32" height="32" viewBox="0 0 32 32">
<path fill="rgb(68, 68, 68)" d="M28.592 20.624c-2.16-0.976-3.856-1.52-6.688-2.16-0.144-0.032-0.304-0.048-0.48-0.048s-1.664 0.016-2.256 0.944l-1.312 2.096c-0.016 0-0.064 0.016-0.128 0.016-0.208 0-0.448-0.096-0.672-0.256-1.136-0.832-2.272-1.792-3.344-2.848-1.072-1.088-2.032-2.224-2.864-3.36-0.272-0.384-0.272-0.72-0.288-0.736l2.208-1.376c0.864-0.56 1.072-2.112 0.896-2.784-0.608-2.304-1.456-4.704-2.112-6.544-0.384-1.040-1.856-1.376-2.512-1.376-0.288 0-0.56 0.048-0.8 0.144-1.952 0.752-3.696 1.888-5.168 3.36-0.416 0.416-0.8 0.848-1.184 1.344l-0.256 0.32-0.016 0.4c-0.144 5.552 2.352 11.296 6.832 15.776l0.080 0.096c4.352 4.352 9.952 6.848 15.376 6.848h0.8l0.32-0.256c0.48-0.384 0.928-0.768 1.344-1.184 1.472-1.472 2.608-3.216 3.36-5.152 0.432-1.088-0.176-2.832-1.136-3.264zM24.656 27.312c-0.256 0.256-0.528 0.496-0.816 0.736-4.768-0.016-9.712-2.256-13.568-6.096l-0.112-0.128c-3.84-3.84-6.112-8.896-6.128-13.6 0.24-0.288 0.48-0.56 0.72-0.8 1.248-1.232 2.688-2.176 4.24-2.784 0.096 0 0.224 0.032 0.336 0.064 0.624 1.744 1.392 3.936 1.904 5.984 0 0.080-0.016 0.224-0.048 0.336l-1.92 1.216c-0.544 0.336-0.928 0.896-1.056 1.568-0.176 0.864 0.080 1.84 0.672 2.656 0.896 1.232 1.952 2.448 3.12 3.648 1.184 1.152 2.4 2.192 3.632 3.088 1.44 1.056 3.456 0.864 4.224-0.368l1.216-1.936c0.096-0.032 0.224-0.048 0.288-0.064 2.56 0.56 4.096 1.056 5.984 1.888 0.048 0.112 0.096 0.256 0.112 0.272-0.624 1.632-1.568 3.088-2.8 4.32z"></path>
<path fill="rgb(68, 68, 68)" d="M16.208 1.536c-0.672 0-1.216 0.544-1.216 1.216s0.544 1.216 1.216 1.216c6.48 0 11.76 5.28 11.76 11.76 0 0.672 0.544 1.216 1.216 1.216s1.216-0.544 1.216-1.216c0-7.824-6.368-14.192-14.192-14.192z"></path>
<path fill="rgb(68, 68, 68)" d="M16.208 7.776c4.384 0 7.952 3.568 7.952 7.952 0 0.672 0.544 1.216 1.216 1.216s1.216-0.544 1.216-1.216c0-5.728-4.656-10.384-10.384-10.384-0.672 0-1.216 0.544-1.216 1.216s0.544 1.216 1.216 1.216z"></path>
<path fill="rgb(68, 68, 68)" d="M16.208 11.792c2.176 0 3.936 1.76 3.936 3.936 0 0.672 0.544 1.216 1.216 1.216s1.216-0.544 1.216-1.216c0-3.504-2.848-6.368-6.368-6.368-0.672 0-1.216 0.544-1.216 1.216s0.544 1.216 1.216 1.216z"></path>
</svg>
