<?xml version="1.0" encoding="utf-8"?>
<!-- Generated by IcoMoon.io -->
<!DOCTYPE svg PUBLIC "-//W3C//DTD SVG 1.1//EN" "http://www.w3.org/Graphics/SVG/1.1/DTD/svg11.dtd">
<svg version="1.1" xmlns="http://www.w3.org/2000/svg" xmlns:xlink="http://www.w3.org/1999/xlink" width="32" height="32" viewBox="0 0 32 32">
<path fill="#000000" d="M27.681 16.672c-0.055 0.908-0.2 1.817-0.472 2.707 0.708 1.054 1.671 2.798 1.163 3.688-0.636 1.090-3.524 0.89-4.523 0.763-3.488-0.454-7.212-2.053-10.228-3.797s-6.267-4.178-8.411-6.958c-0.618-0.799-2.234-3.197-1.599-4.287 0.509-0.89 2.507-0.926 3.76-0.836 0.636-0.672 1.344-1.253 2.107-1.762-3.706-0.708-6.576-0.218-7.63 1.58-1.163 2.035 0.345 5.323 3.597 8.593 0.145 3.488 2.035 6.812 5.268 8.684 3.252 1.871 7.067 1.835 10.155 0.218 4.469 1.181 8.066 0.854 9.247-1.217 1.054-1.78 0.036-4.523-2.434-7.376z"></path>
<path fill="#000000" d="M7.353 10.623c-0.291 0.49-0.527 0.999-0.708 1.508 1.853 2.561 5.105 4.941 7.83 6.504 2.743 1.58 6.395 3.179 9.556 3.524 0.345-0.418 0.672-0.89 0.945-1.381 2.816-4.869 1.145-11.082-3.724-13.897-4.869-2.798-11.082-1.126-13.897 3.742z"></path>
</svg>
