<?xml version="1.0" encoding="utf-8"?>
<!-- Generated by IcoMoon.io -->
<!DOCTYPE svg PUBLIC "-//W3C//DTD SVG 1.1//EN" "http://www.w3.org/Graphics/SVG/1.1/DTD/svg11.dtd">
<svg version="1.1" xmlns="http://www.w3.org/2000/svg" xmlns:xlink="http://www.w3.org/1999/xlink" width="32" height="32" viewBox="0 0 32 32">
<path fill="#000000" d="M15.835 0.53c-4.084 0-7.941 1.568-10.87 4.393l-0.041 0.041c-2.826 2.929-4.393 6.786-4.393 10.87 0 3.486 1.114 6.786 3.238 9.529 2.063 2.661 4.95 4.62 8.189 5.528 1.382 0.392 2.785 0.578 4.208 0.578 4.084 0 7.941-1.568 10.87-4.393l0.041-0.041c2.455-2.537 3.981-5.858 4.332-9.344 0.041-0.516 0.082-1.011 0.082-1.526-0.021-8.622-7.034-15.635-15.656-15.635zM15.835 2.84c7.343 0 13.325 5.982 13.325 13.325 0 0.433-0.021 0.866-0.062 1.3-0.289 2.97-1.588 5.796-3.672 7.962-2.496 2.413-5.796 3.754-9.261 3.754-1.217 0-2.413-0.165-3.589-0.495-5.734-1.609-9.736-6.889-9.736-12.83 0-3.486 1.32-6.765 3.733-9.261 2.496-2.434 5.796-3.754 9.261-3.754z"></path>
<path fill="#000000" d="M13.525 23.426l8.89-6.291c0.949-0.722 1.279-1.629-0.021-2.578l-8.849-6.002c-0.949-0.701-1.733-0.309-1.733 0.887v13.118c0 1.196 0.763 1.588 1.712 0.866z"></path>
</svg>
