<?xml version="1.0" encoding="utf-8"?>
<!-- Generated by IcoMoon.io -->
<!DOCTYPE svg PUBLIC "-//W3C//DTD SVG 1.1//EN" "http://www.w3.org/Graphics/SVG/1.1/DTD/svg11.dtd">
<svg version="1.1" xmlns="http://www.w3.org/2000/svg" xmlns:xlink="http://www.w3.org/1999/xlink" width="32" height="32" viewBox="0 0 32 32">
<path fill="rgb(68, 68, 68)" d="M18.415 5.323c-0.829 0-1.644 0.102-2.415 0.276-0.786-0.175-1.586-0.276-2.415-0.276-5.891 0-10.677 4.786-10.677 10.677s4.786 10.677 10.677 10.677c0.829 0 1.644-0.102 2.415-0.276 0.785 0.175 1.586 0.276 2.415 0.276 5.891 0 10.677-4.786 10.677-10.677s-4.786-10.677-10.677-10.677zM18.749 25.339c3.287-1.818 5.513-5.324 5.513-9.339s-2.226-7.506-5.513-9.339c5.004 0.175 9.033 4.291 9.033 9.339s-4.029 9.164-9.033 9.339zM13.251 25.339c-5.004-0.175-9.019-4.291-9.019-9.339s4.029-9.164 9.033-9.339c0.102 0 0.218-0.015 0.32-0.015 0.364 0 0.727 0.029 1.091 0.073 0.451 0.058 0.902 0.145 1.324 0.262 3.986 1.076 6.924 4.699 6.924 9.019s-2.953 7.957-6.924 9.019c-0.436 0.116-0.873 0.204-1.324 0.262-0.364 0.044-0.727 0.073-1.091 0.073-0.116 0-0.218-0.015-0.335-0.015z"></path>
<path fill="rgb(68, 68, 68)" d="M16.175 16.335c0.335-0.218 0.596-0.495 0.785-0.858 0.189-0.349 0.291-0.786 0.291-1.309 0-0.48-0.087-0.902-0.247-1.236-0.16-0.349-0.407-0.625-0.713-0.844s-0.684-0.378-1.106-0.48c-0.436-0.102-0.916-0.145-1.455-0.145h-3.055v9.353h1.658v-3.869h1.28c0.495 0 0.96-0.044 1.396-0.145 0.451-0.102 0.829-0.247 1.164-0.465zM14.284 15.491l-1.935 0.058v-2.677h1.207c0.262 0 0.509 0.015 0.742 0.044 0.247 0.029 0.451 0.087 0.64 0.189s0.335 0.233 0.451 0.407c0.116 0.175 0.175 0.393 0.175 0.669s-0.058 0.509-0.175 0.684c-0.116 0.175-0.262 0.32-0.466 0.422-0.175 0.087-0.393 0.16-0.64 0.204z"></path>
</svg>
