<?xml version="1.0" encoding="utf-8"?>
<!-- Generator: Adobe Illustrator 18.1.1, SVG Export Plug-In . SVG Version: 6.00 Build 0)  -->
<svg version="1.1" id="Layer_1" xmlns="http://www.w3.org/2000/svg" xmlns:xlink="http://www.w3.org/1999/xlink" x="0px" y="0px"
	 viewBox="0 0 90.7 90.7" enable-background="new 0 0 90.7 90.7" xml:space="preserve">
<g>
	<path d="M45,2.5C21.6,2.5,2.5,21.6,2.5,45c0,23.4,19.1,42.5,42.5,42.5c23.4,0,42.5-19.1,42.5-42.5C87.5,21.6,68.4,2.5,45,2.5z
		 M45,82.4C24.4,82.4,7.6,65.6,7.6,45S24.4,7.6,45,7.6S82.4,24.4,82.4,45S65.6,82.4,45,82.4z"/>
	<path d="M47.5,19.2c-8.6,0-15.8,7.1-15.8,15.5v27.7l-5.7-6.1l-3.3,3.6l12,11.9l12-12l-4-3.4l-6.1,5.7V34.7c0-5.7,5-10.5,10.8-10.5
		c5.9,0,10.7,4.7,10.7,10.4S53.5,45,47.8,45h-6.1v1.7V50h6.1c8.6,0,15.4-6.8,15.4-15.4C63.2,26.1,56.2,19.2,47.5,19.2z"/>
</g>
</svg>
