<?xml version="1.0" encoding="utf-8"?>
<!-- Generated by IcoMoon.io -->
<!DOCTYPE svg PUBLIC "-//W3C//DTD SVG 1.1//EN" "http://www.w3.org/Graphics/SVG/1.1/DTD/svg11.dtd">
<svg version="1.1" xmlns="http://www.w3.org/2000/svg" xmlns:xlink="http://www.w3.org/1999/xlink" width="32" height="32" viewBox="0 0 32 32">
<path fill="#000000" d="M19.393 5.709c-0.334-1.293-1.514-2.253-2.91-2.253-1.667 0-3.014 1.341-3.014 3.004 0 0.28 0.032 0.536 0.105 0.788h1.207c0.090 0.208 0.185 0.328 0.185 0.328 0.362 0.523 0.971 0.864 1.654 0.864 1.115 0 2.021-0.906 2.021-2.022 0-0.256 0.065-0.488-0.042-0.709l0.794-0z"></path>
<path fill="#000000" d="M19.309 23.669c-0.317 0.322-0.751 0.567-1.245 0.567v-6.544l4.53-1.301 1.133 2.235-4.417 5.043z"></path>
<path fill="#000000" d="M15.508 8.696c-0.298-0.333-0.731-0.541-1.217-0.541-0.515 0-0.976 0.238-1.272 0.612l-3.593 5.491c-0.147 0.244-0.229 0.53-0.229 0.833 0 0.566 0.286 1.060 0.721 1.354l4.822 2.676v4.553c0 0.645 0.521 1.169 1.165 1.169 0.641 0 1.164-0.524 1.164-1.169v-5.686c0 0 0.155-0.906-0.876-1.402l-3.006-1.572 2.189-3.345 1.164 1.825c0.231 0.368 0.545 0.511 0.831 0.505l2.987-0.012c1.215 0 1.215-1.579 0-1.573h-2.42l-2.43-3.719z"></path>
<path fill="#000000" d="M28.72 16.16c0.048 0.046 0.078 0.107 0.078 0.183 0 0.143-0.12 0.263-0.263 0.263-0.040 0-0.065 0-0.096-0.012-0.517-0.221-0.846-0.358-1.442-0.358-0.399 0-0.887 0.137-1.454 0.597l-0.524-1.037c0.654-0.196 1.192-0.37 1.751-0.37 0.895-0 1.366 0.185 1.95 0.734z"></path>
<path fill="#000000" d="M8.672 16.957l5.060 2.79 0.012 1.12-5.78-3.181c-0.418-0.216-0.98-0.341-1.379-0.341-0.597 0-4.728-0.168-5.241 0.054-0.032 0.011-0.059 0.011-0.096 0.011-0.143 0-0.265-0.118-0.265-0.261 0-0.078 0.031-0.137 0.078-0.185 0.585-0.55 4.984-0.43 5.878-0.43 0.458 0 1.017 0.054 1.732 0.424z"></path>
<path fill="#000000" d="M9.141 27.222c1.648 0 2.983-1.335 2.983-2.987s-1.335-2.987-2.983-2.987c-1.648 0-2.983 1.335-2.983 2.987s1.335 2.987 2.983 2.987zM4.836 24.235c0-2.379 1.928-4.31 4.305-4.31 2.382 0 4.31 1.932 4.31 4.31s-1.928 4.308-4.31 4.308c-2.377 0-4.305-1.93-4.305-4.308z"></path>
<path fill="#000000" d="M26.95 27.222c1.652 0 2.987-1.335 2.987-2.987s-1.336-2.987-2.987-2.987c-1.644 0-2.979 1.335-2.979 2.987s1.335 2.987 2.979 2.987zM22.647 24.235c0-2.379 1.924-4.31 4.303-4.31s4.31 1.932 4.31 4.31c0 2.378-1.932 4.308-4.31 4.308s-4.303-1.93-4.303-4.308z"></path>
<path fill="#000000" d="M26.002 19.312l-2.092-4.185c-0.273-0.502-0.81-0.847-1.423-0.847h-1.366c-0.269 0-0.483 0.221-0.483 0.488 0 0.269 0.213 0.483 0.483 0.483l1.366-0.006c0.231 0 0.488 0.157 0.584 0.381l1.972 4.019 0.96-0.334z"></path>
<path fill="#000000" d="M8.48 15.083c0 0.418-0.339 0.757-0.757 0.757h-6.166c-0.418 0-0.757-0.339-0.757-0.757v-4.406c0-0.418 0.339-0.757 0.757-0.757h6.166c0.418 0 0.757 0.339 0.757 0.757v4.406z"></path>
</svg>
