<?xml version="1.0" encoding="utf-8"?>
<!-- Generator: Adobe Illustrator 19.2.1, SVG Export Plug-In . SVG Version: 6.00 Build 0)  -->
<svg version="1.1" id="Layer_1" xmlns="http://www.w3.org/2000/svg" xmlns:xlink="http://www.w3.org/1999/xlink" x="0px" y="0px"
	 viewBox="0 0 32 32" style="enable-background:new 0 0 32 32;" xml:space="preserve">
<path d="M27.8,2.6c-0.1,0-0.1,0-0.2,0v0H11.1c-2.3,0-4,2.8-4,6.4v12.9H0.2V23c0,0.5,0,0.9,0.1,1.4c0.5,2.9,2.4,5.1,4.4,5.1h17.1
	l0.1,0c0.1,0,0.1,0,0.2,0c2.3,0,4-2.8,4-6.4V10.1h5.7V9C31.8,5.3,30.1,2.6,27.8,2.6z M29.4,7.8h-3.2c0.3-1.9,1.1-2.9,1.6-2.9
	C28.3,4.9,29.1,5.9,29.4,7.8z M18.9,27.1H4.7c-0.6,0-1.7-1.1-2-2.9h15.5c0,0.1,0,0.1,0,0.2C18.3,25.4,18.5,26.3,18.9,27.1z M23.8,9
	v14c0,2.7-1.1,4.1-1.7,4.1c-0.5,0-1.4-1.1-1.6-3c0-0.3-0.1-0.7-0.1-1.1v-1.2h-11V9c0-2.7,1.1-4.1,1.7-4.1h13.6
	C24.1,6,23.8,7.4,23.8,9z"/>
</svg>
