<?xml version="1.0" encoding="utf-8"?>
<!-- Generated by IcoMoon.io -->
<!DOCTYPE svg PUBLIC "-//W3C//DTD SVG 1.1//EN" "http://www.w3.org/Graphics/SVG/1.1/DTD/svg11.dtd">
<svg version="1.1" xmlns="http://www.w3.org/2000/svg" xmlns:xlink="http://www.w3.org/1999/xlink" width="32" height="32" viewBox="0 0 32 32">
<path fill="rgb(68, 68, 68)" d="M21.269 9.328c0.009-2.897 2.359-5.244 5.259-5.244s5.25 2.347 5.259 5.244h-10.519zM19.994 12.366l3.891 7.328c0.563 0.837 0.894 1.847 0.894 2.931 0 2.906-2.356 5.259-5.259 5.259-2.906 0-5.259-2.356-5.259-5.259 0-0.803 0.181-1.566 0.503-2.247h-3.912l-2.403-9.066c-0.247-0.609-0.381-1.272-0.381-1.969 0-2.906 2.356-5.259 5.259-5.259 0.053 0 0.106 0 0.159 0.003v-0.003h8.128c-1.406 1.313-2.284 3.184-2.284 5.259 0 1.081 0.238 2.103 0.666 3.022zM14.666 27.931c-1.434-1.316-2.338-3.203-2.338-5.303 0-0.103 0.003-0.206 0.006-0.306h-12.113c-0.006 0.116-0.013 0.231-0.013 0.35 0 2.906 2.356 5.259 5.259 5.259 0.037 0 9.197 0 9.197 0z"></path>
</svg>
