<?xml version="1.0" encoding="utf-8"?>
<!-- Generator: Adobe Illustrator 19.1.0, SVG Export Plug-In . SVG Version: 6.00 Build 0)  -->
<svg version="1.1" id="Layer_1" xmlns="http://www.w3.org/2000/svg" xmlns:xlink="http://www.w3.org/1999/xlink" x="0px" y="0px"
	 viewBox="0 0 32 32" enable-background="new 0 0 32 32" xml:space="preserve">
<path fill-rule="evenodd" clip-rule="evenodd" fill="#3D4142" d="M29.7,29.7c-0.4,0.4-1,0.4-1.4,0l-7.6-7.6c-2,1.6-4.5,2.6-7.3,2.6
	c-6.3,0-11.3-5.1-11.3-11.3S7.1,2.1,13.4,2.1c6.3,0,11.3,5.1,11.3,11.3c0,2.8-1,5.3-2.6,7.3l7.6,7.6C30,28.6,30,29.3,29.7,29.7z
	 M22.8,13.4c0-5.2-4.2-9.4-9.4-9.4C8.2,4,4,8.2,4,13.4c0,5.2,4.2,9.4,9.4,9.4C18.6,22.8,22.8,18.6,22.8,13.4z"/>
</svg>
