<?xml version="1.0" encoding="utf-8"?>
<!-- Generated by IcoMoon.io -->
<!DOCTYPE svg PUBLIC "-//W3C//DTD SVG 1.1//EN" "http://www.w3.org/Graphics/SVG/1.1/DTD/svg11.dtd">
<svg version="1.1" xmlns="http://www.w3.org/2000/svg" xmlns:xlink="http://www.w3.org/1999/xlink" width="32" height="32" viewBox="0 0 32 32">
<path fill="#000000" d="M24.852 25.903c0 0.033-0.049 0.085-0.089 0.085h-21.359c-0.038 0-0.088-0.054-0.088-0.085l0.001-16.822c0-0.035 0.048-0.086 0.088-0.086h4.819c1.82-1.64 4.306-2.473 4.71-2.647h-9.409c-1.596 0.006-2.881 1.289-2.886 2.886v16.5c0.003 1.599 1.288 2.878 2.884 2.886h21.096c1.596-0.008 2.891-1.29 2.899-2.886v-6.169l-2.667 2.215 0 4.123zM31.13 11.084l-8.964-7.544c-0.195-0.163-0.465-0.198-0.692-0.092-0.231 0.106-0.378 0.336-0.378 0.587v4.138c-2.884 0.332-14.508 2.415-14.508 13.346 0 0 2.217-6.474 14.508-6.768v4.184c0 0.249 0.145 0.478 0.372 0.583 0.089 0.042 0.184 0.062 0.276 0.062 0.148 0 0.294-0.050 0.413-0.146l8.963-7.35c0.149-0.122 0.236-0.304 0.238-0.497 0.001-0.195-0.083-0.377-0.23-0.503z"></path>
</svg>
