<?xml version="1.0" encoding="utf-8"?>
<!-- Generated by IcoMoon.io -->
<!DOCTYPE svg PUBLIC "-//W3C//DTD SVG 1.1//EN" "http://www.w3.org/Graphics/SVG/1.1/DTD/svg11.dtd">
<svg version="1.1" xmlns="http://www.w3.org/2000/svg" xmlns:xlink="http://www.w3.org/1999/xlink" width="32" height="32" viewBox="0 0 32 32">
<path fill="#000000" d="M16 31.2c-8.395 0-15.2-6.806-15.2-15.2s6.805-15.2 15.2-15.2c8.394 0 15.2 6.806 15.2 15.2s-6.806 15.2-15.2 15.2zM16 3.649c-6.821 0-12.351 5.53-12.351 12.351s5.53 12.35 12.351 12.35 12.35-5.53 12.35-12.35-5.53-12.351-12.35-12.351zM16 25.5c-3.459 0-6.486-1.848-8.148-4.612l2.444-1.466c1.164 1.934 3.282 3.229 5.704 3.229 2.42 0 4.54-1.295 5.703-3.229l2.444 1.466c-1.662 2.764-4.689 4.612-8.147 4.612zM21.699 12.2c-1.048 0-1.899-0.851-1.899-1.9s0.851-1.9 1.899-1.9c1.050 0 1.9 0.851 1.9 1.9s-0.851 1.9-1.9 1.9zM14.667 13.552h2.547v5.094h-2.547v-5.094zM10.3 12.2c-1.050 0-1.9-0.851-1.9-1.9s0.851-1.9 1.9-1.9c1.050 0 1.9 0.851 1.9 1.9s-0.851 1.9-1.9 1.9z"></path>
</svg>
