<?xml version="1.0" encoding="utf-8"?>
<!-- Generated by IcoMoon.io -->
<!DOCTYPE svg PUBLIC "-//W3C//DTD SVG 1.1//EN" "http://www.w3.org/Graphics/SVG/1.1/DTD/svg11.dtd">
<svg version="1.1" xmlns="http://www.w3.org/2000/svg" xmlns:xlink="http://www.w3.org/1999/xlink" width="32" height="32" viewBox="0 0 32 32">
<path fill="rgb(68, 68, 68)" d="M16.928 1.616c-0.32 0-0.576 0.256-0.576 0.576s0.256 0.576 0.576 0.576c6.672 0 12.112 5.44 12.112 12.112 0 0.32 0.256 0.576 0.576 0.576s0.576-0.256 0.592-0.56c0-7.328-5.952-13.28-13.28-13.28z"></path>
<path fill="rgb(68, 68, 68)" d="M16.928 5.344c-0.32 0-0.576 0.256-0.576 0.576s0.256 0.576 0.576 0.576c4.624 0 8.384 3.76 8.384 8.384 0 0.32 0.256 0.576 0.576 0.576s0.592-0.256 0.592-0.56c0-5.264-4.288-9.552-9.552-9.552z"></path>
<path fill="rgb(68, 68, 68)" d="M12.336 5.616c-0.272-0.176-0.624-0.24-0.944-0.144s-0.592 0.32-0.736 0.624l-5.104 10.608c-0.184 0.38-0.144 0.818 0.079 1.153l-2.175 2.175c-1.072 1.072-1.664 2.496-1.664 4.016s0.592 2.944 1.664 4.016c1.072 1.072 2.496 1.664 4.016 1.664 1.048 0 2.050-0.281 2.928-0.807 1.044 0.972 2.316 1.479 3.472 1.479 0.912 0 1.76-0.32 2.4-0.944 0.448-0.448 0.448-1.2 0-1.648s-1.2-0.464-1.648 0c-0.434 0.434-1.497 0.342-2.442-0.426l1.486-1.495c0.189 0.124 0.409 0.192 0.636 0.192 0.176 0 0.336-0.048 0.48-0.144l10.608-5.104c0.304-0.144 0.528-0.416 0.624-0.736s0.048-0.656-0.144-0.944c-3.568-5.424-8.112-9.984-13.536-13.536zM5.12 26.416c-0.624-0.64-0.976-1.472-0.976-2.368s0.336-1.744 0.976-2.368l2.383-2.396c1.783 1.367 3.369 2.953 4.736 4.736l-2.382 2.396c-1.264 1.264-3.472 1.264-4.736 0zM14.704 23.424c-1.824-2.576-4.032-4.784-6.608-6.608l4.080-8.48c4.304 3.008 8 6.704 11.024 11.008l-8.496 4.080z"></path>
</svg>
