<?xml version="1.0" encoding="utf-8"?>
<!-- Generated by IcoMoon.io -->
<!DOCTYPE svg PUBLIC "-//W3C//DTD SVG 1.1//EN" "http://www.w3.org/Graphics/SVG/1.1/DTD/svg11.dtd">
<svg version="1.1" xmlns="http://www.w3.org/2000/svg" xmlns:xlink="http://www.w3.org/1999/xlink" width="32" height="32" viewBox="0 0 32 32">
<path fill="#000000" d="M19.968 2.042h-7.936c-6.208 0-11.232 5.296-11.232 11.824s5.024 11.808 11.232 11.808h0.64l2.624 3.696c0.384 0.784 1.024 0.784 1.408 0l2.624-3.696h0.64c6.208 0 11.232-5.296 11.232-11.808 0-6.528-5.024-11.824-11.232-11.824zM8.624 16.842c-1.456 0-2.64-1.184-2.64-2.64s1.184-2.624 2.64-2.624 2.624 1.184 2.624 2.624c0 1.456-1.168 2.64-2.624 2.64zM16.16 16.842c-1.456 0-2.624-1.184-2.624-2.64s1.184-2.624 2.624-2.624c1.456 0 2.64 1.184 2.64 2.624-0.016 1.456-1.184 2.64-2.64 2.64zM23.376 16.842c-1.456 0-2.64-1.184-2.64-2.624 0-1.456 1.184-2.624 2.64-2.624s2.624 1.184 2.624 2.624c0.016 1.44-1.168 2.624-2.624 2.624z"></path>
</svg>
