<?xml version="1.0" encoding="utf-8"?>
<!-- Generated by IcoMoon.io -->
<!DOCTYPE svg PUBLIC "-//W3C//DTD SVG 1.1//EN" "http://www.w3.org/Graphics/SVG/1.1/DTD/svg11.dtd">
<svg version="1.1" xmlns="http://www.w3.org/2000/svg" xmlns:xlink="http://www.w3.org/1999/xlink" width="32" height="32" viewBox="0 0 32 32">
<path fill="rgb(68, 68, 68)" d="M28.080 2.288h-15.024c-1.264 0-2.304 1.024-2.304 2.304v6.080h-6.848c-1.264 0-2.304 1.024-2.304 2.304v10.112c0 1.264 1.024 2.304 2.304 2.304h1.088v3.184c0 0.448 0.256 0.848 0.656 1.040 0.16 0.080 0.32 0.112 0.496 0.112 0.256 0 0.512-0.096 0.72-0.272l5.168-4.080h6.896c1.264 0 2.304-1.024 2.304-2.304v-5.068l3.904 3.084c0.208 0.176 0.464 0.256 0.72 0.256 0.16 0 0.336-0.048 0.48-0.128 0.4-0.192 0.656-0.592 0.656-1.040v-3.184h1.088c1.264 0 2.304-1.024 2.304-2.304v-10.096c0-1.264-1.024-2.304-2.304-2.304zM18.928 23.072h-7.296c-0.256 0-0.512 0.096-0.72 0.256l-3.616 2.848v-1.952c0-0.64-0.512-1.152-1.152-1.152h-2.24v-10.096h15.024v10.096zM28.080 14.704h-2.24c-0.64 0-1.152 0.512-1.152 1.152v1.936l-3.456-2.722v-2.094c0-1.264-1.024-2.304-2.304-2.304h-5.872v-6.080h15.024v10.112z"></path>
</svg>
