<?xml version="1.0" encoding="utf-8"?>
<!-- Generated by IcoMoon.io -->
<!DOCTYPE svg PUBLIC "-//W3C//DTD SVG 1.1//EN" "http://www.w3.org/Graphics/SVG/1.1/DTD/svg11.dtd">
<svg version="1.1" xmlns="http://www.w3.org/2000/svg" xmlns:xlink="http://www.w3.org/1999/xlink" width="32" height="32" viewBox="0 0 32 32">
<path fill="#000000" d="M17.205 14.738l-1.091-3.317-1.313 3.41-3.608 0.23 2.791 2.059-1.14 3.458 3.038-2.136 2.903 1.907-0.912-3.379 2.934-2.281-3.602 0.048zM30.865 14.69l-3.602 0.048-1.091-3.317-1.313 3.41-3.607 0.23 2.79 2.059-1.139 3.458 3.038-2.136 2.904 1.907-0.912-3.379 2.934-2.28zM7.148 14.738l-1.091-3.317-1.313 3.41-3.608 0.23 2.791 2.059-1.14 3.458 3.038-2.136 2.904 1.907-0.913-3.379 2.934-2.281-3.602 0.048z"></path>
</svg>
