<?xml version="1.0" encoding="utf-8"?>
<!-- Generated by IcoMoon.io -->
<!DOCTYPE svg PUBLIC "-//W3C//DTD SVG 1.1//EN" "http://www.w3.org/Graphics/SVG/1.1/DTD/svg11.dtd">
<svg version="1.1" xmlns="http://www.w3.org/2000/svg" xmlns:xlink="http://www.w3.org/1999/xlink" width="32" height="32" viewBox="0 0 32 32">
<path fill="#000000" d="M27.169 2.766c-0.124-0.268-0.413-0.454-0.723-0.454h-21.574c-0.33 0-0.619 0.206-0.723 0.495l-3.221 8.217c-0.041 0.083-0.062 0.186-0.062 0.289 0 1.982 1.197 3.716 3.035 4.439 0.165 0.062 0.268 0.206 0.268 0.392v12.717c0 0.434 0.351 0.785 0.785 0.785h21.987c0.434 0 0.785-0.351 0.785-0.785v-12.738c0-0.165 0.103-0.33 0.268-0.392 1.837-0.723 3.035-2.457 3.035-4.439 0-0.103-0.021-0.227-0.083-0.33l-3.778-8.196zM5.698 4.294h19.985l0.64 1.383h-21.161l0.537-1.383zM22.338 27.644h-12.779v-7.597h12.779v7.597zM25.745 27.644h-2.209v-8.196c0-0.33-0.268-0.599-0.599-0.599h-13.977c-0.33 0-0.599 0.268-0.599 0.599v8.196h-2.188v-11.19c1.094-0.103 2.106-0.578 2.911-1.301 0.929 0.846 2.147 1.321 3.427 1.321s2.498-0.495 3.427-1.321c0.929 0.846 2.147 1.321 3.427 1.321s2.498-0.495 3.427-1.321c0.805 0.723 1.837 1.177 2.911 1.301v11.19zM26.261 14.080c-0.991 0-1.899-0.537-2.395-1.404-0.206-0.372-0.619-0.599-1.032-0.599-0.434 0-0.826 0.227-1.032 0.599-0.495 0.888-1.404 1.404-2.395 1.404s-1.899-0.537-2.395-1.404c-0.434-0.743-1.652-0.743-2.085 0-0.495 0.888-1.404 1.404-2.395 1.404s-1.899-0.537-2.395-1.404c-0.434-0.743-1.652-0.743-2.085 0-0.495 0.888-1.404 1.404-2.395 1.404-1.466 0-2.663-1.135-2.766-2.56l1.817-4.645h22.173l2.168 4.686c-0.145 1.404-1.321 2.519-2.787 2.519z"></path>
</svg>
