<?xml version="1.0" encoding="utf-8"?>
<!-- Generated by IcoMoon.io -->
<!DOCTYPE svg PUBLIC "-//W3C//DTD SVG 1.1//EN" "http://www.w3.org/Graphics/SVG/1.1/DTD/svg11.dtd">
<svg version="1.1" xmlns="http://www.w3.org/2000/svg" xmlns:xlink="http://www.w3.org/1999/xlink" width="32" height="32" viewBox="0 0 32 32">
<path fill="#000000" d="M22.734 14.254l5.689-4.924-0.175-6.323-6.441-0.172-4.665 5.193 5.592 6.226z"></path>
<path fill="#000000" d="M14.705 21.203l-5.288-4.576-1.956 2.178-2.404-2.36-2.084 2.803 3.309 3.249-1.73 1.434c-0.774-0.079-1.577 0.17-2.17 0.754-1.044 1.024-1.043 2.687 0.001 3.713 1.044 1.023 2.737 1.024 3.781 0 0.593-0.581 0.848-1.37 0.768-2.13l1.461-1.697 3.309 3.247 2.855-2.046-2.403-2.358 2.551-2.21z"></path>
<path fill="#000000" d="M29.027 19.248l-2.084-2.803-2.404 2.36-14.345-15.971-6.442 0.172-0.175 6.323 16.268 14.084-2.403 2.358 2.855 2.046 3.31-3.249 1.46 1.697c-0.081 0.761 0.175 1.548 0.769 2.131 1.044 1.024 2.737 1.023 3.781 0 1.043-1.026 1.044-2.688 0-3.713-0.594-0.582-1.394-0.833-2.168-0.754l-1.732-1.434 3.309-3.248z"></path>
</svg>
