<?xml version="1.0" encoding="utf-8"?>
<!-- Generated by IcoMoon.io -->
<!DOCTYPE svg PUBLIC "-//W3C//DTD SVG 1.1//EN" "http://www.w3.org/Graphics/SVG/1.1/DTD/svg11.dtd">
<svg version="1.1" xmlns="http://www.w3.org/2000/svg" xmlns:xlink="http://www.w3.org/1999/xlink" width="32" height="32" viewBox="0 0 32 32">
<path fill="#000000" d="M28.47 10.464c0 0 1.455 0.808 1.317 2.724-0.087 1.23-1.494 2.371-1.494 2.371s0.616 1.144 0.616 1.669c0 0.528 0 1.844-1.317 2.547s-7.645-0.262-7.645-0.262 0.605 3.654 0.692 4.18c0.088 0.527 0.652 1.056 0.714 2.758 0.081 2.198-0.792 4.836-2.723 4.747-1.934-0.089-1.406-3.161-1.406-3.691 0-0.526-1.403-3.688-2.636-5.711-1.228-2.020-2.63-2.94-3.074-4.919-0.389-1.731-2.279-2.377-2.279-2.377-0.582-0.147-0.555-0.609-0.477-1.092 1.201-7.439 2.414-11.396 2.414-11.396s3.153-0.683 4.296-0.773c1.142-0.086 0.948-0.151 2.109-0.351 1.158-0.198 3.514 0 5.358 0s2.636 0.44 4.48 1.757c1.845 1.319 0.527 3.162 0.527 3.162s1.519 0.401 1.517 2.422c-0.005 1.772-0.989 2.234-0.989 2.234z"></path>
<path fill="#000000" d="M6.967 13.418c-0.112 0.557-0.669 1.013-1.238 1.012l-2.355-0.007c-0.569-0.002-1.090-0.466-1.159-1.031l-0.012-11.425c0.016-0.569 0.495-1.034 1.064-1.034l5.172-0.006c0.568 0.006 0.838 0.732 0.691 1.372l-2.164 11.119z"></path>
</svg>
