<?xml version="1.0" encoding="utf-8"?>
<!-- Generator: Adobe Illustrator 18.1.1, SVG Export Plug-In . SVG Version: 6.00 Build 0)  -->
<svg version="1.1" id="Layer_1" xmlns="http://www.w3.org/2000/svg" xmlns:xlink="http://www.w3.org/1999/xlink" x="0px" y="0px"
	 viewBox="0 0 32 32" enable-background="new 0 0 32 32" xml:space="preserve">
<path d="M30.8,18.4c0.1,0,0.1,0,0.2,0v5.8c-0.1,1.6-1.4,2.8-3,2.8H4c-1.6,0-3-1.3-3-3V8c0-1.6,1.3-3,3-3H28c1.6,0,2.9,1.3,3,2.8v5.8
	c-0.1,0-0.1,0-0.2,0c-1.3,0-2.4,1.1-2.4,2.4S29.5,18.4,30.8,18.4L30.8,18.4z M29,19.7c-1.4-0.7-2.3-2.1-2.3-3.7c0-1.6,1-3,2.3-3.7
	v-4C29,7.6,28.4,7,27.7,7H23v2h-2V7H4.4C3.6,7,3,7.6,3,8.4v15.3C3,24.4,3.6,25,4.4,25h23.3c0.7,0,1.3-0.6,1.3-1.4L29,19.7L29,19.7
	L29,19.7z M21,23h2v2h-2V23z M21,19h2v2h-2V19z M21,15h2v2h-2V15z M21,11h2v2h-2V11z"/>
</svg>
