<?xml version="1.0" encoding="utf-8"?>
<!-- Generated by IcoMoon.io -->
<!DOCTYPE svg PUBLIC "-//W3C//DTD SVG 1.1//EN" "http://www.w3.org/Graphics/SVG/1.1/DTD/svg11.dtd">
<svg version="1.1" xmlns="http://www.w3.org/2000/svg" xmlns:xlink="http://www.w3.org/1999/xlink" width="32" height="32" viewBox="0 0 32 32">
<path fill="#000000" d="M12.566 14.675c-0.159 0.412-0.25 0.858-0.25 1.326 0 2.035 1.648 3.685 3.684 3.685s3.684-1.65 3.684-3.685c0-2.015-1.618-3.651-3.627-3.682l-7.421-8.754c0 0-1.645-1.558-2.753-0.921-0.892 0.697-0.371 1.958 0.167 2.818l6.515 9.214zM16 0.32c-0.671 0-1.195 0.033-1.946 0.104-0.128 0.003-0.175 0.010-0.248 0.010-1.167 0-2.115 0.947-2.115 2.116s0.947 2.116 2.115 2.116c0.031 0 0.062-0.003 0.093-0.005v0c0.678-0.125 1.387-0.107 2.101-0.107 6.321 0 11.445 5.124 11.445 11.446s-5.123 11.446-11.445 11.446-11.447-5.123-11.447-11.446c0-1.785 0.396-3.482 1.125-4.988v0c0.1-0.246 0.156-0.514 0.156-0.795 0-1.169-0.947-2.116-2.117-2.116-0.751 0-1.41 0.393-1.785 0.984l-0.007-0.004c-0.011 0.022-0.021 0.045-0.032 0.068-0.060 0.103-0.112 0.212-0.155 0.326-0.911 1.986-1.419 4.196-1.419 6.524 0 8.661 7.020 15.679 15.68 15.679s15.68-7.019 15.68-15.679c0-8.66-7.020-15.68-15.68-15.68z"></path>
</svg>
