<?xml version="1.0" encoding="utf-8"?>
<!-- Generated by IcoMoon.io -->
<!DOCTYPE svg PUBLIC "-//W3C//DTD SVG 1.1//EN" "http://www.w3.org/Graphics/SVG/1.1/DTD/svg11.dtd">
<svg version="1.1" xmlns="http://www.w3.org/2000/svg" xmlns:xlink="http://www.w3.org/1999/xlink" width="32" height="32" viewBox="0 0 32 32">
<path fill="#000000" d="M5.039 15.239c-1.274 0-2.579 0.97-2.579 2.16 0 0.453 0.145 0.937 0.553 1.236 0.198 0.164 0.198 0.406-0.032 0.672-0.27 0.309-0.667 0.551-1.064 0.551-0.481 0-1.117-0.473-1.117-1.389 0-0.507 0.313-1.599 1.566-2.591 1.316-1.058 2.443-1.41 3.737-1.498 2.735-2.304 4.948-2.723 6.556-2.723 1.755 0 3.319 0.595 4.113 0.926 0.711 0.286 3.467 1.499 5.419 2.403 2.045 0.892 3.81 1.433 5.021 1.433 0.972 0 2.37-0.365 2.37-1.621 0-0.463-0.177-0.783-0.418-0.97-0.135-0.121-0.24-0.298-0.24-0.452 0-0.463 0.397-1.168 1.085-1.168 0.773 0 1.19 0.816 1.19 1.432 0 1.675-1.732 2.811-2.901 3.318-2.151 2.413-4.323 3.384-6.431 3.384-1.546 0-3.028-0.441-4.99-1.19-1.483-0.574-6.138-2.58-8.007-3.208-1.723-0.562-2.704-0.705-3.811-0.705h-0.020zM11.042 12.572c-1.43 0-2.788 0.761-3.456 1.884 0.815 0.012 2.048 0.198 4.082 0.981 2.036 0.728 5.794 2.425 7.11 2.898 1.462 0.507 2.86 0.926 4.249 0.926 1.555 0 2.944-0.54 3.675-1.929-1.451 0.198-2.819-0.044-4.833-0.871-1.546-0.628-5.805-2.689-7.246-3.207-1.21-0.43-2.38-0.683-3.559-0.683h-0.021z"></path>
</svg>
