<?xml version="1.0" encoding="utf-8"?>
<!-- Generated by IcoMoon.io -->
<!DOCTYPE svg PUBLIC "-//W3C//DTD SVG 1.1//EN" "http://www.w3.org/Graphics/SVG/1.1/DTD/svg11.dtd">
<svg version="1.1" xmlns="http://www.w3.org/2000/svg" xmlns:xlink="http://www.w3.org/1999/xlink" width="32" height="32" viewBox="0 0 32 32">
<path fill="#000000" d="M26.961 15.239c1.274 0 2.58 0.97 2.58 2.16 0 0.452-0.146 0.937-0.554 1.235-0.198 0.166-0.198 0.408 0.032 0.673 0.272 0.308 0.667 0.551 1.065 0.551 0.48 0 1.116-0.474 1.116-1.389 0-0.507-0.313-1.599-1.566-2.591-1.316-1.058-2.443-1.41-3.737-1.498-2.736-2.304-4.949-2.723-6.556-2.723-1.754 0-3.319 0.595-4.113 0.926-0.71 0.286-3.466 1.499-5.419 2.403-2.046 0.892-3.81 1.433-5.021 1.433-0.971 0-2.371-0.365-2.371-1.621 0-0.463 0.178-0.783 0.419-0.97 0.135-0.121 0.24-0.298 0.24-0.452 0-0.463-0.397-1.168-1.086-1.168-0.772 0-1.19 0.816-1.19 1.432 0 1.675 1.732 2.811 2.902 3.318 2.15 2.413 4.322 3.384 6.431 3.384 1.545 0 3.027-0.441 4.99-1.191 1.483-0.573 6.139-2.579 8.007-3.207 1.723-0.562 2.704-0.705 3.812-0.705h0.019zM20.958 12.572c1.43 0 2.788 0.761 3.456 1.884-0.815 0.012-2.047 0.198-4.082 0.981-2.036 0.728-5.794 2.424-7.109 2.898-1.462 0.507-2.861 0.926-4.249 0.926-1.555 0-2.944-0.54-3.675-1.929 1.451 0.198 2.819-0.044 4.834-0.871 1.545-0.628 5.804-2.689 7.245-3.207 1.21-0.43 2.379-0.683 3.559-0.683h0.021z"></path>
</svg>
