<?xml version="1.0" encoding="utf-8"?>
<!-- Generated by IcoMoon.io -->
<!DOCTYPE svg PUBLIC "-//W3C//DTD SVG 1.1//EN" "http://www.w3.org/Graphics/SVG/1.1/DTD/svg11.dtd">
<svg version="1.1" xmlns="http://www.w3.org/2000/svg" xmlns:xlink="http://www.w3.org/1999/xlink" width="32" height="32" viewBox="0 0 32 32">
<path fill="#000000" d="M29.867 5.989h-7.413v-0.699c0-1.439-1.119-3.557-2.897-3.557h-7.134c-1.758 0-2.897 2.098-2.897 3.557v0.699h-7.393c-0.619 0-1.119 0.5-1.119 1.119s0.5 1.119 1.119 1.119h2.078l0.599 19.163c0.020 1.599 1.299 2.897 2.897 2.897h16.585c1.599 0 2.877-1.299 2.897-2.897l0.599-19.163h2.098c0.619 0 1.119-0.5 1.119-1.119s-0.52-1.119-1.139-1.119zM11.764 5.29c0-0.579 0.48-1.279 0.679-1.319h7.114c0.22 0.060 0.699 0.759 0.699 1.339v0.699h-8.492v-0.719zM24.972 27.31c0 0.020 0 0.020 0 0.040 0 0.38-0.3 0.699-0.679 0.699h-16.585c-0.38 0-0.679-0.32-0.679-0.699 0-0.020 0-0.020 0-0.040l-0.599-19.103h19.143l-0.599 19.103z"></path>
<path fill="#000000" d="M11.164 12.064c-0.619 0-1.119 0.5-1.119 1.119v9.891c0 0.619 0.5 1.119 1.119 1.119s1.119-0.5 1.119-1.119v-9.891c0-0.619-0.5-1.119-1.119-1.119z"></path>
<path fill="#000000" d="M16.38 12.064c-0.619 0-1.119 0.5-1.119 1.119v9.891c0 0.619 0.5 1.119 1.119 1.119s1.119-0.5 1.119-1.119v-9.891c0-0.619-0.5-1.119-1.119-1.119z"></path>
<path fill="#000000" d="M20.216 13.183v9.891c0 0.619 0.5 1.119 1.119 1.119s1.119-0.5 1.119-1.119v-9.891c0-0.619-0.5-1.119-1.119-1.119s-1.119 0.5-1.119 1.119z"></path>
</svg>
