<?xml version="1.0" encoding="utf-8"?>
<!-- Generated by IcoMoon.io -->
<!DOCTYPE svg PUBLIC "-//W3C//DTD SVG 1.1//EN" "http://www.w3.org/Graphics/SVG/1.1/DTD/svg11.dtd">
<svg version="1.1" xmlns="http://www.w3.org/2000/svg" xmlns:xlink="http://www.w3.org/1999/xlink" width="32" height="32" viewBox="0 0 32 32">
<path fill="rgb(68, 68, 68)" d="M24.844 21.829h-0.272c-1.025 0-1.858 0.833-1.874 1.842v0 0.272c0 0 0 0.016 0 0.016s0 0 0 0.016c0 1.025 0.833 1.858 1.874 1.858h0.272c1.041 0 1.874-0.833 1.874-1.874v-0.304c-0.016-0.993-0.849-1.826-1.874-1.826z"></path>
<path fill="rgb(68, 68, 68)" d="M7.084 21.829h-0.272c-1.025 0-1.858 0.817-1.874 1.842v0 0.288c0 1.025 0.833 1.874 1.874 1.874h0.272c1.041 0 1.874-0.833 1.874-1.874v-0.304c-0.016-0.993-0.849-1.826-1.874-1.826z"></path>
<path fill="rgb(68, 68, 68)" d="M30.305 18.114h-28.458c-0.128 0-0.256 0.048-0.352 0.144s-0.144 0.224-0.144 0.352v4.388c0 0.384 0.304 0.673 0.673 0.673h1.762c0.016-1.649 1.345-2.995 3.011-2.995 0 0 0.272 0 0.272 0 1.666 0 2.995 1.345 3.011 2.995h11.482c0.016-1.649 1.345-2.995 3.011-2.995 0 0 0.272 0 0.272 0 1.649 0 2.995 1.329 3.011 2.995 0 0 2.402-0.769 2.418-0.769 0.304-0.080 0.529-0.128 0.529-0.529v-3.763c0-0.128-0.048-0.256-0.144-0.352-0.096-0.080-0.224-0.144-0.352-0.144z"></path>
<path fill="rgb(68, 68, 68)" d="M30.689 7.352c-0.096-0.080-0.208-0.128-0.336-0.128h-19.538c-0.128 0-0.256 0.048-0.336 0.128-0.096 0.080-0.144 0.208-0.144 0.336v9.144h20.018c0.128 0 0.256-0.048 0.336-0.128 0.096-0.080 0.144-0.208 0.144-0.32v-8.696c0-0.128-0.048-0.24-0.144-0.336zM29.392 15.391h-17.616v-6.726h17.616v6.726z"></path>
<path fill="rgb(68, 68, 68)" d="M1.735 16.833h7.255v-6.566c0-0.128-0.048-0.256-0.144-0.336-0.096-0.096-0.208-0.144-0.336-0.144h-4.596c-0.208 0-0.384 0.128-0.448 0.32l-2.178 6.086c-0.048 0.144-0.032 0.304 0.064 0.432 0.080 0.128 0.224 0.208 0.384 0.208z"></path>
</svg>
