<?xml version="1.0" encoding="utf-8"?>
<!-- Generator: Adobe Illustrator 16.0.0, SVG Export Plug-In . SVG Version: 6.00 Build 0)  -->
<!DOCTYPE svg PUBLIC "-//W3C//DTD SVG 1.0//EN" "http://www.w3.org/TR/2001/REC-SVG-20010904/DTD/svg10.dtd">
<svg version="1.0" id="Layer_1" xmlns="http://www.w3.org/2000/svg" xmlns:xlink="http://www.w3.org/1999/xlink" x="0px" y="0px"
	 width="32px" height="32px" viewBox="0 0 32 32" enable-background="new 0 0 32 32" xml:space="preserve">
<g>
	<path d="M22,30h1.76c0.696,0,1.366-0.127,1.996-0.35L22,25.894V30z"/>
	<path d="M29.139,20.363c0.541-1.426,0.846-2.955,0.846-4.555c0-7.547-6.424-13.665-14.055-13.665c-3.391,0-6.48,1.212-8.87,3.217
		L9.04,7.341c1.803-1.494,4.11-2.391,6.691-2.391c6.066,0,10.968,4.966,10.968,11.071c0,0.606-0.233,1.069-0.431,1.642
		C25.502,17.32,24.654,17,23.76,17H22v3.302l6.908,6.908C29.595,26.201,30,24.994,30,23.716v-0.308
		C30,22.299,29.652,21.261,29.139,20.363z"/>
	<path d="M5.615,17.734c-0.248-0.594-0.523-1.136-0.523-1.763c0-2.035,0.518-3.932,1.42-5.564L4.423,8.318
		c-1.419,2.152-2.249,4.723-2.249,7.49c0,1.53,0.282,2.993,0.809,4.365C2.398,21.113,2,22.219,2,23.408v0.308
		C2,27.107,4.86,30,8.252,30H10V17H8.252C7.307,17,6.415,17.354,5.615,17.734z"/>
	<polygon points="22,21.716 8.301,8.017 6.316,6.032 3.496,3.211 2.113,4.594 5.018,7.498 7.051,9.532 22,24.479 26.732,29.212 
		27.982,30.462 29.364,29.08 28.276,27.992 	"/>
</g>
</svg>
