<?xml version="1.0" encoding="utf-8"?>
<!-- Generated by IcoMoon.io -->
<!DOCTYPE svg PUBLIC "-//W3C//DTD SVG 1.1//EN" "http://www.w3.org/Graphics/SVG/1.1/DTD/svg11.dtd">
<svg version="1.1" xmlns="http://www.w3.org/2000/svg" xmlns:xlink="http://www.w3.org/1999/xlink" width="32" height="32" viewBox="0 0 32 32">
<path fill="#000000" d="M30.4 7.368c0 0.102-0.026 0.195-0.077 0.277-0.655 1.065-1.572 2.038-2.749 2.918v0.507c0.041 2.325-0.471 4.664-1.536 7.020-1.372 3.041-3.407 5.42-6.106 7.135s-5.727 2.573-9.085 2.573c-2.714 0-5.274-0.625-7.68-1.874-0.655-0.338-1.101-0.594-1.336-0.768-0.154-0.123-0.23-0.261-0.23-0.415 0-0.133 0.049-0.248 0.146-0.346s0.212-0.146 0.346-0.146c0.143 0 0.369 0.013 0.676 0.038s0.538 0.038 0.691 0.038c2.089 0 4.009-0.543 5.76-1.628-1.055-0.246-1.981-0.737-2.78-1.475s-1.367-1.623-1.705-2.657c-0.021-0.082-0.031-0.138-0.031-0.169 0-0.123 0.046-0.233 0.138-0.33s0.205-0.146 0.338-0.146c0.051 0 0.123 0.010 0.215 0.031s0.154 0.031 0.184 0.031c-0.911-0.563-1.638-1.316-2.181-2.258s-0.814-1.946-0.814-3.011c0-0.154 0.059-0.284 0.177-0.392s0.259-0.161 0.422-0.161c0.102 0 0.282 0.059 0.538 0.177s0.41 0.187 0.461 0.207c-0.942-1.126-1.413-2.437-1.413-3.932 0-0.522 0.074-1.075 0.223-1.659s0.356-1.070 0.622-1.459c0.102-0.164 0.23-0.246 0.384-0.246 0.164 0 0.302 0.061 0.415 0.184 0.778 0.86 1.341 1.449 1.69 1.766 1.259 1.137 2.673 2.046 4.239 2.726s3.19 1.093 4.869 1.236c-0.041-0.215-0.061-0.466-0.061-0.753 0-1.71 0.607-3.172 1.82-4.385s2.675-1.82 4.385-1.82c1.669 0 3.113 0.584 4.332 1.751 0.973-0.205 2.043-0.625 3.21-1.26 0.082-0.051 0.164-0.077 0.246-0.077 0.133 0 0.248 0.049 0.346 0.146s0.146 0.213 0.146 0.346c0 0.246-0.143 0.62-0.43 1.121s-0.548 0.891-0.783 1.167c0.072-0.021 0.225-0.074 0.461-0.161s0.456-0.169 0.66-0.246 0.328-0.115 0.369-0.115c0.133 0 0.248 0.049 0.346 0.146s0.146 0.212 0.146 0.345z"></path>
</svg>
