<?xml version="1.0" encoding="utf-8"?>
<!-- Generated by IcoMoon.io -->
<!DOCTYPE svg PUBLIC "-//W3C//DTD SVG 1.1//EN" "http://www.w3.org/Graphics/SVG/1.1/DTD/svg11.dtd">
<svg version="1.1" xmlns="http://www.w3.org/2000/svg" xmlns:xlink="http://www.w3.org/1999/xlink" width="32" height="32" viewBox="0 0 32 32">
<path fill="#000000" d="M30.426 0.494h-28.851c-0.693 0-1.254 0.553-1.254 1.238v28.535c0 0.685 0.562 1.238 1.254 1.238h28.851c0.693 0 1.254-0.553 1.254-1.238l0-28.535c0-0.685-0.562-1.238-1.254-1.238zM27.64 9.21c-0.532 0.865-1.361 1.656-2.232 2.372v0.412c0 1.889-0.385 3.79-1.25 5.704-1.115 2.471-2.77 4.404-4.962 5.797s-4.654 2.091-7.383 2.091c-2.205 0-4.285-0.508-6.241-1.523-0.533-0.274-0.895-0.483-1.086-0.624-0.125-0.1-0.187-0.212-0.187-0.337 0-0.108 0.039-0.202 0.118-0.281s0.173-0.118 0.281-0.118c0.117 0 0.3 0.010 0.549 0.031s0.437 0.031 0.561 0.031c1.697 0 3.257-0.441 4.68-1.323-0.857-0.2-1.61-0.599-2.259-1.198s-1.111-1.319-1.385-2.159c-0.017-0.067-0.025-0.113-0.025-0.137 0-0.1 0.037-0.189 0.112-0.268s0.166-0.119 0.275-0.119c0.042 0 0.1 0.008 0.175 0.025s0.125 0.025 0.15 0.025c-0.741-0.458-1.331-1.069-1.772-1.835s-0.661-1.581-0.661-2.446c0-0.125 0.048-0.231 0.144-0.318s0.21-0.131 0.343-0.131c0.083 0 0.229 0.048 0.437 0.143s0.333 0.152 0.374 0.168c-0.766-0.915-1.148-1.98-1.148-3.195 0-0.425 0.060-0.874 0.181-1.348s0.289-0.87 0.505-1.186c0.083-0.133 0.187-0.2 0.312-0.2 0.133 0 0.245 0.050 0.337 0.15 0.632 0.699 1.090 1.177 1.373 1.435 1.023 0.924 2.172 1.662 3.445 2.215s2.592 0.888 3.956 1.005c-0.033-0.175-0.050-0.379-0.050-0.612 0-1.39 0.493-2.577 1.479-3.563s2.174-1.479 3.563-1.479c1.357 0 2.53 0.474 3.52 1.423 0.79-0.166 1.66-0.508 2.609-1.023 0.067-0.042 0.133-0.062 0.2-0.062 0.108 0 0.202 0.040 0.281 0.119s0.119 0.173 0.119 0.281c0 0.2-0.116 0.503-0.349 0.911s-0.445 0.724-0.637 0.949c0.058-0.017 0.183-0.060 0.374-0.131s0.37-0.137 0.537-0.2c0.167-0.062 0.266-0.094 0.3-0.094 0.108 0 0.202 0.040 0.281 0.119s0.119 0.173 0.119 0.281c0.001 0.083-0.019 0.158-0.061 0.224z"></path>
</svg>
