<?xml version="1.0" encoding="utf-8"?>
<!-- Generated by IcoMoon.io -->
<!DOCTYPE svg PUBLIC "-//W3C//DTD SVG 1.1//EN" "http://www.w3.org/Graphics/SVG/1.1/DTD/svg11.dtd">
<svg version="1.1" xmlns="http://www.w3.org/2000/svg" xmlns:xlink="http://www.w3.org/1999/xlink" width="32" height="32" viewBox="0 0 32 32">
<path fill="rgb(68, 68, 68)" d="M27.917 25.684c0 0 0 0 0 0 4.91-6.018 4.552-14.918-1.057-20.527-2.898-2.898-6.751-4.501-10.843-4.501s-7.945 1.603-10.843 4.501c-2.915 2.898-4.518 6.751-4.518 10.843s1.603 7.945 4.484 10.843c2.898 2.898 6.751 4.501 10.843 4.501s7.962-1.603 10.86-4.501c0.307-0.307 0.597-0.631 0.869-0.955 0.068-0.051 0.136-0.136 0.205-0.205-0.017 0 0 0 0 0zM6.998 6.998c2.404-2.404 5.609-3.734 9.002-3.734 3.41 0 6.598 1.33 9.002 3.734 4.296 4.313 4.876 10.945 1.722 15.873-0.051-0.034-0.085-0.051-0.136-0.068-1.978-0.938-4.092-1.62-6.291-1.995 0.597-0.546 0.972-1.21 1.023-1.841l0.068-0.546c0.529-0.273 0.904-0.784 0.955-1.398l0.273-2.54c0.068-0.597-0.17-1.142-0.58-1.517l0.068-0.665c0.085-0.887 0.273-2.967-1.313-4.382-1.125-1.091-2.864-1.722-4.791-1.722s-3.666 0.631-4.74 1.688c-1.637 1.466-1.432 3.546-1.347 4.433l0.068 0.648c-0.409 0.375-0.648 0.921-0.58 1.517l0.273 2.54c0.068 0.614 0.443 1.142 0.955 1.398 0.017 0.17 0.034 0.341 0.051 0.511 0.068 0.665 0.443 1.33 1.040 1.875-2.199 0.392-4.33 1.057-6.342 2.012-0.034 0.017-0.068 0.034-0.085 0.051-1.296-2.029-2.012-4.399-2.012-6.871-0.017-3.41 1.313-6.598 3.717-9.002zM16 28.736c-0.205 0-0.426 0-0.631-0.017-2.523-0.119-4.927-0.989-6.939-2.472-0.494-0.375-0.972-0.784-1.432-1.228-0.017-0.017-0.017-0.017-0.034-0.034s-0.017-0.017-0.034-0.034c2.012-0.904 4.177-1.5 6.427-1.773 0.341-0.034 0.665-0.222 0.887-0.494s0.307-0.631 0.256-0.989l-0.256-1.773c-0.051-0.375-0.273-0.716-0.597-0.921-0.256-0.153-0.392-0.341-0.392-0.358-0.068-0.563-0.119-1.108-0.188-1.671-0.068-0.494-0.409-0.921-0.887-1.091 0 0-0.017 0-0.017 0l-0.102-0.904c0.017-0.017 0.034-0.017 0.051-0.034 0.409-0.273 0.631-0.75 0.563-1.228l-0.188-1.654c-0.085-0.835-0.102-1.705 0.546-2.285 0.631-0.614 1.739-0.989 2.967-0.989s2.336 0.375 3.018 1.023c0.597 0.529 0.58 1.398 0.494 2.233l-0.188 1.654c-0.051 0.477 0.153 0.955 0.563 1.228 0.017 0.017 0.051 0.034 0.068 0.051l-0.102 0.921c0 0-0.017 0-0.017 0-0.477 0.153-0.835 0.58-0.887 1.091l-0.188 1.62c-0.017 0.068-0.153 0.239-0.409 0.409-0.324 0.205-0.529 0.529-0.58 0.904l-0.256 1.79c-0.051 0.341 0.051 0.699 0.256 0.972 0.222 0.273 0.529 0.46 0.869 0.494 2.268 0.273 4.433 0.869 6.427 1.773-0.017 0.017-0.034 0.034-0.051 0.051-2.421 2.404-5.609 3.734-9.019 3.734z"></path>
</svg>
