<?xml version="1.0" encoding="utf-8"?>
<!-- Generator: Adobe Illustrator 16.0.0, SVG Export Plug-In . SVG Version: 6.00 Build 0)  -->
<!DOCTYPE svg PUBLIC "-//W3C//DTD SVG 1.0//EN" "http://www.w3.org/TR/2001/REC-SVG-20010904/DTD/svg10.dtd">
<svg version="1.0" id="Layer_1" xmlns="http://www.w3.org/2000/svg" xmlns:xlink="http://www.w3.org/1999/xlink" x="0px" y="0px"
	 width="30px" height="30px" viewBox="0 0 30 30" enable-background="new 0 0 30 30" xml:space="preserve">
<g>
	<defs>
		<rect id="SVGID_1_" x="1" y="1" width="28" height="28"/>
	</defs>
	<clipPath id="SVGID_2_">
		<use xlink:href="#SVGID_1_"  overflow="visible"/>
	</clipPath>
	<path clip-path="url(#SVGID_2_)" d="M28.358,28.431H1.642C1.287,28.431,1,28.144,1,27.79v-2.992c0-0.449,0-1.815,6.22-4.078
		c3.618-1.317,4.201-2.275,4.201-4.058c0-0.386-0.087-0.484-0.344-0.777c-0.378-0.428-0.895-1.015-1.185-2.572
		c-0.015-0.076-0.029-0.103-0.029-0.103c-0.006,0.003-0.06-0.024-0.102-0.045c-0.655-0.315-1.084-0.816-1.198-2.34
		c-0.002-0.017-0.002-0.031-0.002-0.048c0-0.722,0.234-1.171,0.464-1.438C8.939,8.842,8.789,7.916,8.716,7.136
		c-0.088-0.931,0.207-2.454,1.328-3.684c0.782-0.859,2.276-1.882,4.957-1.882c2.678,0,4.171,1.021,4.953,1.877
		c1.121,1.23,1.419,2.755,1.333,3.688c-0.073,0.781-0.224,1.707-0.309,2.205c0.229,0.268,0.463,0.717,0.463,1.438
		c0,0.017,0,0.032-0.001,0.048c-0.116,1.524-0.545,2.025-1.201,2.341c-0.038,0.018-0.088,0.042-0.109,0.056
		c0.001,0.005-0.011,0.033-0.021,0.09c-0.289,1.559-0.806,2.146-1.184,2.573c-0.257,0.293-0.345,0.392-0.345,0.777
		c0,2.175,1.239,2.978,4.202,4.058c0.005,0.002,0.012,0.004,0.018,0.007C29,22.988,29,24.351,29,24.798v2.992
		C29,28.144,28.713,28.431,28.358,28.431 M2.283,27.148h25.434v-2.351c-0.06-0.265-1.145-1.331-5.376-2.874
		c-0.006-0.002-0.012-0.004-0.019-0.007c-3.333-1.216-5.026-2.365-5.026-5.255c0-0.87,0.354-1.271,0.666-1.625
		c0.309-0.352,0.661-0.749,0.884-1.959c0.136-0.732,0.574-0.943,0.836-1.068c0.201-0.098,0.392-0.188,0.475-1.256
		c-0.004-0.395-0.124-0.552-0.169-0.598c-0.301-0.096-0.395-0.373-0.335-0.691c0.002-0.015,0.259-1.402,0.357-2.448
		c0.046-0.504-0.104-1.718-1.003-2.706c-0.884-0.968-2.231-1.459-4.005-1.459c-1.776,0-3.125,0.493-4.008,1.463
		c-0.899,0.987-1.047,2.199-1,2.701c0.099,1.047,0.354,2.435,0.357,2.449c0.06,0.32-0.035,0.598-0.337,0.693
		c-0.045,0.045-0.164,0.201-0.168,0.596c0.083,1.067,0.273,1.158,0.474,1.256c0.262,0.126,0.7,0.337,0.835,1.068
		c0.225,1.209,0.576,1.607,0.886,1.959c0.312,0.354,0.665,0.754,0.665,1.625c0,2.896-1.699,4.044-5.045,5.262
		c-4.233,1.541-5.317,2.607-5.377,2.889L2.283,27.148z"/>
</g>
</svg>
