<?xml version="1.0" encoding="utf-8"?>
<!-- Generator: Adobe Illustrator 16.0.0, SVG Export Plug-In . SVG Version: 6.00 Build 0)  -->
<!DOCTYPE svg PUBLIC "-//W3C//DTD SVG 1.0//EN" "http://www.w3.org/TR/2001/REC-SVG-20010904/DTD/svg10.dtd">
<svg version="1.0" xmlns="http://www.w3.org/2000/svg" xmlns:xlink="http://www.w3.org/1999/xlink" x="0px" y="0px" width="32px"
	 height="32px" viewBox="0 0 32 32" enable-background="new 0 0 32 32" xml:space="preserve">
<g id="Layer_1" display="none">
	<path display="inline" d="M4.788,10.718c-1.01,0-1.828,0.831-1.828,1.854v7.256c0,1.023,0.818,1.857,1.828,1.857
		c1.01,0,1.828-0.834,1.828-1.857v-7.256C6.616,11.548,5.798,10.717,4.788,10.718L4.788,10.718z M7.945,23.953
		c0,0.781,0.633,1.412,1.412,1.412h1.612v3.996c0,1.016,0.812,1.839,1.811,1.839c0.999,0,1.811-0.823,1.811-1.839v-3.996h2.817
		v3.996c0,1.016,0.809,1.839,1.812,1.839c0.997,0,1.809-0.823,1.809-1.839v-3.996h1.611c0.781,0,1.412-0.637,1.412-1.412V10.825
		H7.945V23.953z M27.214,10.715c-1.011,0-1.83,0.832-1.83,1.856v7.258c0,1.026,0.819,1.858,1.83,1.858
		c1.007,0,1.826-0.832,1.826-1.858v-7.258C29.04,11.547,28.221,10.715,27.214,10.715z M20.227,4.089l1.527-2.248
		c0.209-0.307,0.128-0.719-0.175-0.927c-0.304-0.205-0.718-0.127-0.921,0.177L18.99,3.543C18.062,3.224,17.059,3.04,16,3.04
		c-1.057,0-2.061,0.184-2.987,0.503l-1.67-2.452c-0.207-0.304-0.62-0.382-0.924-0.177c-0.304,0.208-0.382,0.62-0.175,0.927
		l1.531,2.248C9.631,5.23,8.143,7.206,7.944,9.501h16.108C23.855,7.206,22.367,5.229,20.227,4.089L20.227,4.089z M12.602,7.274
		c-0.492,0-0.892-0.398-0.892-0.892c0-0.491,0.398-0.89,0.892-0.89c0.493,0,0.89,0.4,0.89,0.89
		C13.492,6.876,13.094,7.274,12.602,7.274z M19.51,7.274c-0.494,0-0.892-0.398-0.892-0.892c0-0.491,0.397-0.89,0.892-0.89
		c0.49,0,0.891,0.4,0.891,0.89C20.4,6.876,20,7.274,19.51,7.274z"/>
</g>
<g id="Layer_2" display="none">
	<g display="inline">
		<defs>
			<rect id="SVGID_1_" x="1" y="1" width="30" height="30"/>
		</defs>
		<clipPath id="SVGID_2_">
			<use xlink:href="#SVGID_1_"  overflow="visible"/>
		</clipPath>
		<path clip-path="url(#SVGID_2_)" d="M12.972,26.896c0.007,1.133,0.645,2.048,1.429,2.048s1.419-0.915,1.43-2.048
			c-0.463-0.019-0.94-0.029-1.43-0.029C13.911,26.866,13.433,26.877,12.972,26.896"/>
		<path clip-path="url(#SVGID_2_)" d="M25.494,28.109c-0.078-1.646-2.518-3.656-3.621-11.261h-1.258H17.49v-3.125v-1.659h-1.66
			h-3.125V8.939V7.816c-1.931,0.625-4.819,2.487-5.501,8.063C6.159,24.421,3.451,26.46,3.451,28.188H3.446v0.003
			c0,1.552,4.938,2.809,11.02,2.809h0.011c6.086,0,11.021-1.262,11.021-2.813c0-0.027-0.002-0.053-0.005-0.079V28.109z
			 M21.705,29.417L21.705,29.417c-1.973,0.458-4.539,0.72-7.228,0.72h-0.011c-2.686,0-5.251-0.264-7.222-0.721
			c-2.049-0.474-2.787-1.028-2.936-1.239c0.148-0.212,0.888-0.753,2.938-1.229c1.973-0.458,4.541-0.704,7.229-0.704h0.011
			c2.687,0,5.252,0.242,7.221,0.699c2.049,0.475,2.787,1.019,2.936,1.229C24.494,28.382,23.755,28.94,21.705,29.417"/>
		<polygon clip-path="url(#SVGID_2_)" points="23.77,5.784 23.77,1 20.615,1 20.615,5.784 15.831,5.784 15.831,8.938 20.615,8.938 
			20.615,13.723 23.77,13.723 23.77,8.938 28.554,8.938 28.554,5.784 		"/>
	</g>
</g>
<g id="Layer_3" display="none">
	<g display="inline">
		<defs>
			<rect id="SVGID_3_" x="1" y="1" width="30" height="30"/>
		</defs>
		<clipPath id="SVGID_4_">
			<use xlink:href="#SVGID_3_"  overflow="visible"/>
		</clipPath>
		<path clip-path="url(#SVGID_4_)" d="M15.02,18.838c0.574,0.456,1.386,0.456,1.96,0L31,7.675V7.476c0-1.59-1.288-2.878-2.879-2.878
			H3.879C2.289,4.598,1,5.886,1,7.476v0.199L15.02,18.838z"/>
		<path clip-path="url(#SVGID_4_)" d="M17.539,20.585c-0.9,0.718-2.178,0.718-3.078,0L1,9.861v14.663
			c0,1.59,1.289,2.879,2.879,2.879h24.242c1.59,0,2.879-1.289,2.879-2.879V9.861L17.539,20.585z"/>
	</g>
</g>
<g id="Layer_4" display="none">
	<g display="inline">
		<defs>
			<rect id="SVGID_5_" x="1" y="1" width="30" height="30"/>
		</defs>
		<clipPath id="SVGID_6_">
			<use xlink:href="#SVGID_5_"  overflow="visible"/>
		</clipPath>
		<path clip-path="url(#SVGID_6_)" d="M20.159,6.494h-8.318c-0.98,0-1.783,0.802-1.783,1.783v15.447
			c0,0.979,0.803,1.782,1.783,1.782h8.318c0.979,0,1.782-0.803,1.782-1.782V8.277C21.941,7.296,21.139,6.494,20.159,6.494
			 M13.624,7.386h4.753V7.98h-4.753V7.386z M16,24.317c-0.656,0-1.188-0.532-1.188-1.188c0-0.657,0.532-1.188,1.188-1.188
			s1.188,0.531,1.188,1.188C17.188,23.785,16.656,24.317,16,24.317 M20.754,20.754h-9.506V8.872h9.506V20.754z"/>
		<path clip-path="url(#SVGID_6_)" d="M23.691,8.579c-0.438,0-0.791-0.354-0.791-0.792c0-1.313-1.07-2.383-2.383-2.383
			c-0.438,0-0.793-0.354-0.793-0.792c0-0.438,0.355-0.792,0.793-0.792c2.187,0,3.966,1.779,3.966,3.967
			C24.483,8.224,24.129,8.579,23.691,8.579"/>
		<path clip-path="url(#SVGID_6_)" d="M26.511,8.514c-0.437,0-0.792-0.354-0.792-0.792c0-2.833-2.305-5.139-5.138-5.139
			c-0.438,0-0.792-0.354-0.792-0.792C19.789,1.354,20.144,1,20.581,1c3.707,0,6.722,3.016,6.722,6.723
			C27.303,8.16,26.948,8.514,26.511,8.514"/>
		<path clip-path="url(#SVGID_6_)" d="M8.309,23.421c0.438,0,0.792,0.354,0.792,0.793c0,1.313,1.069,2.383,2.383,2.383
			c0.437,0,0.792,0.354,0.792,0.792s-0.355,0.791-0.792,0.791c-2.187,0-3.966-1.778-3.966-3.966
			C7.517,23.775,7.871,23.421,8.309,23.421"/>
		<path clip-path="url(#SVGID_6_)" d="M5.489,23.486c0.438,0,0.792,0.354,0.792,0.791c0,2.834,2.305,5.139,5.138,5.139
			c0.438,0,0.792,0.354,0.792,0.792c0,0.438-0.354,0.792-0.792,0.792c-3.707,0-6.722-3.016-6.722-6.723
			C4.697,23.84,5.052,23.486,5.489,23.486"/>
	</g>
</g>
<g id="Layer_5">
	<path d="M19.162,25.385c-3.042-1.107-4.015-2.043-4.015-4.045c0-1.201,0.93-0.81,1.336-3.011c0.169-0.912,0.99-0.014,1.148-2.099
		c0-0.831-0.448-1.038-0.448-1.038s0.229-1.229,0.317-2.175c0.108-1.18-0.682-4.224-4.903-4.224c-4.221,0-5.013,3.045-4.901,4.224
		c0.088,0.945,0.317,2.175,0.317,2.175s-0.449,0.207-0.449,1.038c0.156,2.084,0.977,1.187,1.146,2.099
		c0.409,2.201,1.336,1.81,1.336,3.011c0,2.003-0.972,2.938-4.013,4.045C2.982,26.495,1,27.628,1,28.403V31h23.194v-2.597
		C24.194,27.631,22.212,26.497,19.162,25.385L19.162,25.385z"/>
	<polygon points="26.216,13.723 26.216,8.938 31,8.938 31,5.784 26.216,5.784 26.216,1 23.062,1 23.062,5.784 18.277,5.784 
		18.277,8.938 23.062,8.938 23.062,13.723 	"/>
</g>
</svg>
