<?xml version="1.0" encoding="utf-8"?>
<!-- Generated by IcoMoon.io -->
<!DOCTYPE svg PUBLIC "-//W3C//DTD SVG 1.1//EN" "http://www.w3.org/Graphics/SVG/1.1/DTD/svg11.dtd">
<svg version="1.1" xmlns="http://www.w3.org/2000/svg" xmlns:xlink="http://www.w3.org/1999/xlink" width="32" height="32" viewBox="0 0 32 32">
<path fill="#000000" d="M16 0.32c-8.66 0-15.68 7.020-15.68 15.68s7.020 15.68 15.68 15.68 15.68-7.020 15.68-15.68c0-8.66-7.020-15.68-15.68-15.68zM8.16 22.446c0.055-0.349 0.183-0.858 0.503-1.649 0.241-0.596 0.913-1.168 1.355-1.317 0.71-0.239 1.459-0.603 2.764-1.118 0.881-0.344 1.151-1.002 1.184-1.397 0.041-0.504 0.072-1.010 0.096-1.455-0.251-0.266-0.491-0.54-0.702-0.785-0.417-0.476-0.681-1.352-0.864-3.384-0.255-2.798 1.238-4.46 3.503-4.506v-0.003c0 0-0.012 0.001 0 0.003 0.009-0.001-0-0.003-0-0.003v0.003c2.265 0.046 3.757 1.708 3.501 4.507-0.18 2.032-0.453 2.908-0.87 3.384-0.213 0.245-0.449 0.517-0.699 0.784 0.024 0.445 0.057 0.953 0.1 1.457 0.028 0.395 0.301 1.054 1.183 1.398 1.307 0.514 2.055 0.882 2.765 1.12 0.445 0.149 1.114 0.716 1.355 1.311 0.321 0.791 0.45 1.3 0.505 1.649h-15.68z"></path>
</svg>
