<?xml version="1.0" encoding="utf-8"?>
<!-- Generated by IcoMoon.io -->
<!DOCTYPE svg PUBLIC "-//W3C//DTD SVG 1.1//EN" "http://www.w3.org/Graphics/SVG/1.1/DTD/svg11.dtd">
<svg version="1.1" xmlns="http://www.w3.org/2000/svg" xmlns:xlink="http://www.w3.org/1999/xlink" width="34" height="32" viewBox="0 0 34 32">
<path fill="#000000" d="M31.493 9.277h-2.131v-4.243c0-0.388-0.31-0.697-0.698-0.697h-26.524c-0.387 0-0.698 0.31-0.698 0.697v18.891c0 0.387 0.31 0.698 0.698 0.698h9.571v1.531h-2.248c-0.368 0-0.659 0.291-0.659 0.659v1.027h13.175v-1.027c0-0.368-0.291-0.659-0.659-0.659h-2.228v-1.531h4.514v1.569c0 0.775 0.639 1.414 1.414 1.414h6.471c0.775 0 1.414-0.639 1.414-1.414v-15.5c0-0.775-0.62-1.414-1.414-1.414zM23.607 10.691v9.474h-20.441v-14.163h24.451v3.274h-2.596c-0.775 0-1.414 0.639-1.414 1.414zM28.257 26.54c-0.446 0-0.814-0.368-0.814-0.814s0.368-0.814 0.814-0.814c0.446 0 0.814 0.368 0.814 0.814 0.019 0.446-0.349 0.814-0.814 0.814zM31.822 24.060h-7.014v-11.993h7.014v11.993z"></path>
</svg>
