<?xml version="1.0" encoding="utf-8"?>
<!-- Generated by IcoMoon.io -->
<!DOCTYPE svg PUBLIC "-//W3C//DTD SVG 1.1//EN" "http://www.w3.org/Graphics/SVG/1.1/DTD/svg11.dtd">
<svg version="1.1" xmlns="http://www.w3.org/2000/svg" xmlns:xlink="http://www.w3.org/1999/xlink" width="32" height="32" viewBox="0 0 32 32">
<path fill="#000000" d="M12.702 19.356l0.679-2.659h-1.339zM15.709 15.129h0.582l-0.291-1.178zM16 0.32c-8.66 0-15.68 7.020-15.68 15.68s7.020 15.68 15.68 15.68c8.66 0 15.68-7.020 15.68-15.68s-7.020-15.68-15.68-15.68zM24.537 16.514c0 0.057-0.045 0.095-0.097 0.134s-0.129 0.049-0.194 0.049h-2.27l-1.552 6.089c-0.026 0.079-0.052 0.134-0.078 0.151s-0.097 0.032-0.213 0.032h-1.533c-0.143 0-0.223-0.009-0.243-0.026s-0.042-0.077-0.068-0.156l-1.571-6.090h-1.436l-1.572 6.089c-0.026 0.079-0.049 0.134-0.068 0.151s-0.1 0.032-0.242 0.032h-1.533c-0.116 0-0.188-0.009-0.213-0.026s-0.052-0.077-0.078-0.156l-1.552-6.090h-2.289c-0.065 0-0.133-0.009-0.184-0.049s-0.088-0.077-0.088-0.134v-1.178c0-0.057 0.035-0.106 0.088-0.146s0.12-0.061 0.184-0.061h1.901l-1.086-4.199c-0.026-0.080-0.026-0.098 0-0.138s0.123-0.019 0.291-0.019h1.455c0.090 0 0.155-0.033 0.194-0.015s0.071 0.044 0.097 0.124l1.067 4.247h2.154l1.106-4.267c0.026-0.080 0.055-0.087 0.087-0.104s0.094 0.015 0.184 0.015h1.63c0.091 0 0.152-0.033 0.184-0.015s0.061 0.044 0.087 0.124l1.106 4.247h2.154l1.067-4.267c0.026-0.080 0.058-0.087 0.097-0.104s0.104 0.016 0.194 0.016h1.455c0.168 0 0.265-0.021 0.291 0.019s0.026 0.078 0 0.158l-1.087 4.179h1.882c0.168 0 0.291 0.070 0.291 0.207l0 1.178zM19.298 19.356l0.66-2.659h-1.339z"></path>
</svg>
