<?xml version="1.0" encoding="utf-8"?>
<!-- Generated by IcoMoon.io -->
<!DOCTYPE svg PUBLIC "-//W3C//DTD SVG 1.1//EN" "http://www.w3.org/Graphics/SVG/1.1/DTD/svg11.dtd">
<svg version="1.1" xmlns="http://www.w3.org/2000/svg" xmlns:xlink="http://www.w3.org/1999/xlink" width="32" height="32" viewBox="0 0 32 32">
<path fill="rgb(68, 68, 68)" d="M21.525 24.341c0 0 2.4-0.241 4.441 0.719s3.122 1.078 3.122 4.203c0 1.681-0.241 2.522-2.281 2.522s-5.522 0.119-6.122-1.081c-0.916-1.828-1.681-2.041-4.681-2.041 0 0 0-0.012-0.003-0.038-0.003 0.025-0.003 0.038-0.003 0.038-3 0-3.769 0.212-4.681 2.041-0.6 1.2-4.081 1.081-6.122 1.081s-2.281-0.841-2.281-2.522c0-3.125 1.081-3.241 3.122-4.203 2.041-0.959 4.441-0.719 4.441-0.719 0.369 0.025 0.641-0.050 1.081-0.359 0.959-1.322 0.841-3.481 0.841-3.481l-3.363 1.081c-1.2 0.719-2.522-0.181-2.522-0.181-0.959-1.559-0.241-2.341-0.241-2.341l4.081-7.322c0.841-1.2 4.322-1.559 4.322-1.559v-1.681c-2.041-0.719-2.159-2.159-2.159-4.081s0.841-4.2 3.481-4.2c0 0 0.003 0 0.003 0s0.003 0 0.003 0c2.641 0 3.481 2.281 3.481 4.2 0 1.922-0.119 3.362-2.159 4.081v1.681c0 0 3.481 0.359 4.322 1.559l4.081 7.322c0 0 0.719 0.781-0.241 2.341 0 0-1.322 0.9-2.522 0.181l-3.359-1.081c0 0-0.119 2.159 0.841 3.481 0.438 0.309 0.709 0.384 1.078 0.359zM12.034 15.219c-1.681 1.441-2.822 3.722-2.822 3.722l2.941-0.241-0.119-3.481zM22.788 18.941c0 0-1.141-2.281-2.822-3.722l-0.122 3.481 2.944 0.241z"></path>
</svg>
